<?xml version="1.0" standalone="no"?>
<!DOCTYPE svg PUBLIC "-//W3C//DTD SVG 1.1//EN" "http://www.w3.org/Graphics/SVG/1.1/DTD/svg11.dtd" >
<svg xmlns="http://www.w3.org/2000/svg" xmlns:xlink="http://www.w3.org/1999/xlink" version="1.1">
<metadata>
Created by FontForge 20170924 at Wed Mar 11 11:30:26 2009
 By www-data
(C) 2007 Pakistan Data Management Services
</metadata>
<defs>
<font id="_PDMS_Saleem_QuranFont" horiz-adv-x="0" >
  <font-face 
    font-family="_PDMS_Saleem_QuranFont"
    font-weight="400"
    font-stretch="normal"
    units-per-em="2048"
    panose-1="2 1 0 0 0 0 0 0 0 0"
    ascent="1638"
    descent="-410"
    x-height="940"
    cap-height="1403"
    bbox="-3745 -962 8712.83 2324.26"
    underline-thickness="100"
    underline-position="-273"
    unicode-range="U+0020-FEFC"
  />
<missing-glyph horiz-adv-x="1024" 
d="M128 0v1825h768v-1825h-768zM256 128h512v1569h-512v-1569z" />
    <glyph glyph-name="alefwithmaddaabove" unicode="&#x627;&#x653;" horiz-adv-x="530" 
d="M559 1573q-16 -43 -51 -88q-79 -134 -311 -134q-66 0 -125 11q-7 -86 -31 -86q-14 0 -22 33q-21 97 -62 142q-6 7 -6 17q0 11 21 54q10 23 22 24q119 -85 241 -85q164 0 292 137q25 26 35 26q7 0 7 -11q0 -14 -10 -40zM320 274q-6 -143 -55 -262q-4 -10 -20 -12
q-9 5 -11 22q3 64 -16 399q-1 13 -50 633l-2 32q-2 20 -2 41q0 81 24 155q6 14 11 22q15 14 20 0q9 -25 25 -70q54 -132 52 -170q-11 -18 -34 -65z" />
    <glyph glyph-name="alefwithhamzaabove" unicode="&#x627;&#x654;" horiz-adv-x="405" 
d="M327 274q-6 -143 -55 -262q-4 -10 -20 -12q-9 5 -11 22q3 64 -17 399q0 13 -49 633l-3 32q-1 20 -1 41q0 81 24 155q6 14 11 22q15 14 20 0q8 -25 25 -70q54 -132 51 -170q-11 -18 -33 -65zM117 1533q3 -116 140 -116q55 23 135 60q17 2 1 -34q-12 -26 -37 -73
q-10 -7 -24 -16q-43 -14 -85 -29q-91 -40 -200 -128q-26 -22 -39 -22q-10 0 -10 13q0 11 8 33q6 12 37 49q44 48 90 70q-66 62 -66 142q0 33 13 66q30 74 95 74q22 0 44 -13q16 -13 42 -41q5 -9 5 -16q0 -21 -36 -8q-35 11 -63 11q-39 0 -50 -22z" />
    <glyph glyph-name="alefwithhamzabelow" unicode="&#x627;&#x655;" horiz-adv-x="409" 
d="M273 274q-6 -143 -55 -262q-4 -10 -20 -12q-10 5 -11 22q3 64 -17 399q0 13 -49 633l-3 32q-1 20 -1 41q0 81 24 155q6 14 11 22q14 14 20 0q8 -25 25 -70q54 -132 51 -170q-11 -18 -34 -65zM118 -138q3 -116 140 -116q55 23 134 61q17 1 2 -35q-12 -26 -38 -73
q-9 -7 -23 -16q-43 -14 -86 -29q-91 -40 -200 -128q-26 -22 -39 -22q-9 0 -9 13q0 11 8 33q6 12 36 49q44 48 91 70q-66 62 -66 142q0 33 13 67q29 73 94 73q23 0 44 -13q16 -13 42 -41q6 -9 6 -16q0 -21 -36 -8q-35 11 -64 11q-38 0 -49 -22z" />
    <glyph glyph-name="behwithalefmaksuraisolated" unicode="&#xfe91;&#xfef0;" horiz-adv-x="934" arabic-form="isolated" 
d="M921 168q1 -15 -10 -66l-4 -10q-37 -117 -81 -182q-47 -69 -143 -145q-142 -111 -278 -111q-41 0 -100 12q-172 35 -242 186q-43 93 -40 197q9 236 129 417q15 11 32 -4q1 -19 -21 -89q-43 -94 -47 -104q-19 -53 -19 -113q0 -185 121 -269q84 -58 184 -58q99 0 234 58
q121 67 202 192q2 7 2 14q0 48 -93 45l-121 3q3 0 -58 1q-24 0 -31 10q-5 7 -2 28q8 32 20 55q10 38 35 49l17 -1q5 1 8 1q116 18 132 70q0 111 -101 228q-57 67 -109 103q-13 8 -8 26l20 119q12 27 25 27q8 0 19 -6q61 -34 118 -107q94 -122 94 -274q0 -87 -32 -180
q-7 -17 3 -18h11q34 0 73 -11q66 -20 61 -93zM858 -367q-12 -49 -102 -168q-33 23 -133 85q11 50 96 164q82 -44 139 -81z" />
    <glyph glyph-name="behwithyehisolated" unicode="&#xfe91;&#xfef2;" horiz-adv-x="929" arabic-form="isolated" 
d="M918 168q0 -15 -11 -66l-3 -10q-37 -117 -81 -182q-47 -69 -143 -145q-142 -111 -278 -111q-41 0 -100 12q-173 35 -243 186q-42 93 -39 197q9 236 129 417q15 11 32 -4q1 -19 -21 -89q-43 -94 -47 -104q-19 -53 -19 -113q0 -185 121 -269q84 -58 184 -58q99 0 234 58
q121 67 202 192q2 7 2 14q0 48 -93 45l-121 3q3 0 -58 1q-24 0 -31 10q-5 7 -2 28q8 32 19 55q10 38 36 49l17 -1q4 1 8 1q116 18 131 70q0 111 -100 228q-57 67 -110 103q-12 8 -8 26l20 119q13 27 26 27q8 0 19 -6q61 -34 118 -107q94 -122 94 -274q0 -87 -32 -180
q-7 -17 3 -18h10q34 0 74 -11q66 -20 61 -93zM886 -338q-12 -49 -102 -168q-33 23 -133 85q11 50 96 164q82 -44 139 -81zM574 -459q-11 -45 -92 -152q-30 21 -120 77q10 45 87 148q73 -40 125 -73zM402 -496q-11 -44 -92 -152q-30 21 -120 78q10 44 87 147q73 -40 125 -73z
" />
    <glyph glyph-name="tehwithyehisolated" unicode="&#xfe97;&#xfef2;" horiz-adv-x="934" arabic-form="isolated" 
d="M804 1039q-12 -49 -102 -168q-33 23 -133 86q11 49 96 163q82 -44 139 -81zM547 998q-12 -49 -102 -168q-33 24 -133 86q11 49 96 163q82 -44 139 -81zM915 168q0 -15 -11 -66l-3 -10q-37 -117 -81 -182q-47 -69 -143 -145q-142 -111 -278 -111q-41 0 -100 12
q-173 35 -243 186q-43 93 -39 197q8 236 129 417q15 11 32 -4q1 -19 -21 -89q-43 -94 -47 -104q-19 -53 -19 -113q0 -185 121 -269q84 -58 184 -58q99 0 234 58q121 67 202 192q1 7 1 14q0 48 -92 45l-121 3q2 0 -58 1q-24 0 -31 10q-5 7 -2 28q8 32 19 55q10 38 36 49
l17 -1q4 1 8 1q116 18 131 70q0 111 -100 228q-57 67 -110 103q-12 8 -8 26l20 119q12 27 25 27q9 0 20 -6q60 -34 118 -107q94 -122 94 -274q0 -87 -32 -180q-7 -17 2 -18h11q34 0 74 -11q66 -20 61 -93zM706 -428q-10 -44 -91 -152q-30 21 -119 77q9 45 86 147
q73 -39 124 -72zM475 -465q-11 -44 -92 -151q-29 20 -119 77q10 44 87 147q73 -40 124 -73z" />
    <glyph glyph-name="fehwithalefmaksuraisolated" unicode="&#xfed3;&#xfef0;" horiz-adv-x="925" arabic-form="isolated" 
d="M712 1050q-12 -49 -102 -168q-33 23 -133 86q11 49 96 163q82 -44 139 -81zM917 168q1 -15 -10 -66l-4 -10q-37 -117 -81 -182q-47 -69 -143 -145q-142 -111 -278 -111q-41 0 -100 12q-172 35 -242 186q-43 93 -40 197q9 236 129 417q15 11 32 -4q1 -19 -21 -89
q-43 -94 -47 -104q-19 -53 -19 -113q0 -185 121 -269q84 -58 184 -58q99 0 234 58q121 67 202 192q2 7 2 14q0 48 -93 45l-121 3q3 0 -58 1q-24 0 -31 10q-5 7 -2 28q23 90 48 101l24 2q5 1 8 1q92 14 104 21t28 49q7 22 7 47q0 54 -31 110q-58 -22 -107 -22q-81 0 -97 65
q-7 25 -7 57q0 58 21 124q18 57 37 78q32 22 71 22q69 0 123 -80q52 -76 52 -216q0 -87 -19 -174q-2 -12 -24 -75q-8 -15 15 -19q15 1 72 -10q66 -20 61 -93z" />
    <glyph glyph-name="fehwithyehisolated" unicode="&#xfed3;&#xfef2;" horiz-adv-x="929" arabic-form="isolated" 
d="M716 1053q-12 -49 -102 -168q-33 23 -133 86q11 49 96 163q82 -44 139 -81zM917 168q1 -15 -10 -66l-4 -10q-37 -117 -81 -182q-47 -69 -143 -145q-142 -111 -278 -111q-41 0 -100 12q-172 35 -242 186q-43 93 -40 197q9 236 129 417q15 11 32 -4q1 -19 -21 -89
q-43 -94 -47 -104q-19 -53 -19 -113q0 -185 121 -269q84 -58 184 -58q99 0 234 58q121 67 202 192q2 7 2 14q0 48 -93 45l-121 3q3 0 -58 1q-24 0 -31 10q-5 7 -2 28q23 90 48 101l24 2q5 1 8 1q92 14 104 21t28 49q7 22 7 47q0 54 -31 110q-58 -22 -107 -22q-81 0 -97 65
q-7 25 -7 57q0 58 21 124q18 57 37 78q32 22 71 22q69 0 123 -80q52 -76 52 -216q0 -87 -19 -174q-2 -12 -24 -75q-8 -15 15 -19q15 1 72 -10q66 -20 61 -93zM677 -418q-11 -44 -91 -152q-31 22 -120 78q10 44 86 146q73 -39 125 -72zM446 -454q-12 -45 -92 -152
q-30 21 -119 77q9 44 86 147q73 -39 125 -72z" />
    <glyph glyph-name="lamwithalefmaksuraisolated" unicode="&#xfedf;&#xfef0;" horiz-adv-x="934" arabic-form="isolated" 
d="M917 171q1 -15 -10 -66l-4 -10q-37 -117 -81 -182q-47 -69 -143 -145q-142 -111 -278 -111q-41 0 -100 12q-172 35 -242 186q-43 93 -40 197q9 236 129 417q15 11 32 -4q1 -20 -21 -89q-43 -94 -47 -105q-19 -53 -19 -112q0 -185 121 -269q84 -58 184 -58q99 0 234 58
q121 67 202 192q2 7 2 14q0 48 -93 45l-121 3q3 0 -58 1q-24 0 -30 8.5t-3 29.5q8 32 20 55q10 38 35 49l17 -1q5 1 8 0q116 19 132 71l-1 6q-1 105 -8 296q-9 118 -37 450q-1 6 1 12q18 67 40 105q15 15 20 0q9 -25 25 -70q54 -132 52 -169q-11 -18 -34 -65q5 -39 23 -222
q9 -100 8 -112q-6 -139 -47 -241q-6 -27 -16 -54q-9 -16 15 -19q15 1 72 -10q66 -20 61 -93z" />
    <glyph glyph-name="lamwithyehisolated" unicode="&#xfedf;&#xfef2;" horiz-adv-x="929" arabic-form="isolated" 
d="M913 171q0 -15 -11 -66l-3 -10q-37 -117 -81 -182q-47 -69 -143 -145q-142 -111 -278 -111q-41 0 -100 12q-173 35 -243 186q-42 93 -39 197q9 236 129 417q15 11 32 -4q1 -20 -21 -89q-43 -94 -47 -105q-19 -53 -19 -112q0 -185 121 -269q84 -58 184 -58q99 0 234 58
q121 67 202 192q2 7 2 14q0 48 -93 45l-121 3q3 0 -58 1q-24 0 -30 8.5t-3 29.5q8 32 19 55q10 38 36 49l17 -1q4 1 8 0q116 19 131 71v6q-1 105 -8 296q-9 118 -38 450q0 6 2 12q18 67 40 105q15 15 20 0q8 -25 25 -70q54 -132 51 -169q-10 -18 -33 -65q5 -39 23 -222
q8 -100 8 -112q-6 -139 -47 -241q-7 -27 -16 -54q-9 -16 15 -19q14 1 72 -10q66 -20 61 -93zM677 -428q-11 -44 -91 -152q-31 22 -120 78q10 44 86 146q73 -39 125 -72zM446 -464q-12 -45 -92 -152q-30 21 -119 77q9 44 86 147q73 -39 125 -72z" />
    <glyph glyph-name="noonwithalefmaksuraisolated" unicode="&#xfee7;&#xfef0;" horiz-adv-x="929" arabic-form="isolated" 
d="M666 1066q-12 -49 -102 -168q-33 23 -133 86q11 49 96 163q82 -44 139 -81zM916 168q1 -15 -10 -66l-4 -10q-37 -117 -81 -182q-47 -69 -143 -145q-142 -111 -277 -111q-42 0 -101 12q-172 35 -242 186q-43 93 -39 197q8 236 128 417q15 11 33 -4q0 -19 -22 -89
q-43 -94 -47 -104q-19 -53 -19 -113q0 -185 121 -269q84 -58 184 -58q99 0 234 58q121 67 202 192q2 7 2 14q0 48 -93 45l-121 3q3 0 -58 1q-24 0 -31 10q-5 7 -2 28q9 32 20 55q10 38 35 49l18 -1q4 1 7 1q116 18 132 70q0 111 -100 228q-58 67 -110 103q-13 8 -8 26
l20 119q12 27 25 27q9 0 19 -6q61 -34 118 -107q94 -122 94 -274q0 -87 -32 -180q-7 -17 3 -18h11q34 0 73 -11q66 -20 61 -93z" />
    <glyph glyph-name="noonwithyehisolated" unicode="&#xfee7;&#xfef2;" horiz-adv-x="934" arabic-form="isolated" 
d="M623 1052q-12 -49 -102 -168q-33 23 -133 86q11 49 96 163q82 -44 139 -81zM915 168q0 -15 -11 -66l-3 -10q-37 -117 -81 -182q-47 -69 -143 -145q-142 -111 -278 -111q-41 0 -100 12q-173 35 -243 186q-43 93 -39 197q8 236 129 417q15 11 32 -4q1 -19 -21 -89
q-43 -94 -47 -104q-19 -53 -19 -113q0 -185 121 -269q84 -58 184 -58q99 0 234 58q121 67 202 192q1 7 1 14q0 48 -92 45l-121 3q2 0 -58 1q-24 0 -31 10q-5 7 -2 28q8 32 19 55q10 38 36 49l17 -1q4 1 8 1q116 18 131 70q0 111 -100 228q-57 67 -110 103q-12 8 -8 26
l20 119q12 27 25 27q9 0 20 -6q60 -34 118 -107q94 -122 94 -274q0 -87 -32 -180q-7 -17 2 -18h11q34 0 74 -11q66 -20 61 -93zM706 -425q-11 -45 -91 -152q-31 22 -120 78q10 44 86 147q73 -40 125 -73zM475 -461q-12 -45 -92 -153q-30 22 -119 78q10 44 86 147
q73 -39 125 -72z" />
    <glyph glyph-name="yehwithalefmaksuraisolated" unicode="&#xfef3;&#xfef0;" horiz-adv-x="934" arabic-form="isolated" 
d="M918 168q1 -15 -10 -66l-4 -10q-37 -117 -81 -182q-47 -69 -143 -145q-142 -111 -277 -111q-42 0 -101 12q-172 35 -242 186q-43 93 -39 197q8 236 128 417q15 11 33 -4q0 -19 -22 -89q-43 -94 -47 -104q-19 -53 -19 -113q0 -185 121 -269q84 -58 184 -58q99 0 234 58
q121 67 202 192q2 7 2 14q0 48 -93 45l-121 3q3 0 -58 1q-24 0 -31 10q-5 7 -2 28q9 32 20 55q10 38 35 49l18 -1q4 1 7 1q116 18 132 70q0 111 -100 228q-58 67 -110 103q-13 8 -8 26l20 119q12 27 25 27q9 0 19 -6q61 -34 118 -107q94 -122 94 -274q0 -87 -32 -180
q-7 -17 3 -18h11q34 0 73 -11q66 -20 61 -93zM709 -430q-10 -44 -91 -152q-30 21 -120 78q10 44 86 146q74 -39 125 -72zM478 -467q-11 -44 -92 -151q-29 21 -119 77q9 44 86 147q74 -40 125 -73z" />
    <glyph glyph-name="behwithrehfinal" unicode="&#xfe92;&#xfeae;" horiz-adv-x="1114" arabic-form="final" 
d="M711 59q81 -44 139 -81q-13 -49 -102 -168q-34 24 -133 86q11 49 96 163zM596 206q-8 -53 -22 -96q-58 -182 -262 -235q-36 -7 -158 -20q-65 -4 -116 4.5t-51 21.5q0 10 34 20q373 109 491 216q4 2 13 11q8 35 4 72q-4 34 -14 59q-33 87 -50 119q-8 15 -6 34q8 44 32 118
q5 16 11 15q3 0 5 -3q18 -25 34 -58q62 -79 136 -86q19 0 36 6q60 32 65 98q-6 39 -14 82q-3 15 25 105q12 38 25 27q19 -33 89 -347q34 -153 165 -190q8 -1 22 -6q11 -3 19 -3q50 1 72 -94q-7 -22 -17 -38q-24 -38 -55 -38q-42 0 -59 4q-81 21 -141 94q-57 66 -106 284
l-9 -39q3 -6 -13 -39q-22 -47 -71 -68q-23 -11 -49 -11q-28 0 -62 16q0 -8 -1 -23l-1 -12h-1z" />
    <glyph glyph-name="behwithnoonfinal" unicode="&#xfe92;&#xfee6;" horiz-adv-x="1428" arabic-form="final" 
d="M1026 44q81 -44 139 -81q-13 -49 -102 -168q-34 24 -133 86q11 49 96 163zM491 470q81 -44 139 -81q-13 -49 -102 -168q-34 23 -133 85q11 50 96 164zM853 200q-5 35 -14 59q-33 87 -51 119q-8 15 -5 34q8 44 32 118q4 15 10 15q3 0 5 -3q18 -25 34 -58q62 -79 136 -86
q19 0 36 6q60 32 65 98q-6 39 -14 82q-3 15 25 105q12 38 25 27q19 -33 89 -347q34 -153 165 -190q6 -1 20 -5t21 -4q50 1 72 -94q-7 -22 -17 -38q-24 -37 -55 -38q-39 -1 -59 4q-81 21 -141 94q-57 66 -106 284l-9 -39q3 -6 -13 -39q-22 -47 -71 -68q-23 -11 -49 -11
q-28 0 -62 16q0 -12 -1 -23q-5 -71 -16 -111q-68 -238 -236 -350q-126 -83 -282 -83q-45 0 -84 8q-173 34 -243 186q-42 93 -39 196q9 236 129 417q9 11 32 -3q0 -24 -4.5 -43.5t-16.5 -46.5q-43 -93 -47 -104q-19 -53 -19 -112q0 -185 121 -269q87 -61 189 -61t229 61
q113 54 203 193q22 42 16 104v0z" />
    <glyph glyph-name="behwithalefmaksurafinal" unicode="&#xfe92;&#xfef0;" horiz-adv-x="1209" arabic-form="final" 
d="M1287 76q-7 -21 -17 -37q-24 -37 -55 -39q-33 -2 -68 5q-91 17 -157 99q-44 51 -80 185q-21 34 -46 30q-44 -6 -81 -23q-90 -43 -134 -140q-4 -8 -4 -16q0 -35 70 -34q42 2 73 2q134 0 129 -103q-2 -8 -9 -39q-3 -10 -9 -34q-41 -120 -83 -186q-49 -76 -143 -150
q-133 -104 -263 -104q-40 0 -113 15q-173 34 -243 186q-43 93 -39 196q8 236 129 417q14 12 32 -3q0 -20 -22 -90q-43 -93 -46 -104q-20 -53 -20 -112q0 -185 122 -269q83 -59 184 -59q98 0 233 59q129 71 211 205l-1 2q-10 58 -170 44q-83 11 -97 58q-20 49 -2 123
q40 128 154 216q102 79 194 79q11 0 21 -2q24 -3 43 -82v-2q14 -59 70 -117q53 -55 102 -69h1q46 -13 62 -13q50 1 72 -94zM1133 -231q-12 -49 -102 -168q-33 23 -133 86q11 49 96 163q82 -44 139 -81z" />
    <glyph glyph-name="behwithyehfinal" unicode="&#xfe92;&#xfbfd;" horiz-adv-x="1209" arabic-form="final" 
d="M1284 76q-7 -21 -17 -37q-23 -37 -55 -39q-33 -2 -68 5q-91 17 -157 99q-44 51 -79 185q-22 34 -47 30q-43 -6 -81 -23q-89 -43 -134 -140q-4 -8 -4 -16q0 -35 71 -34q41 2 73 2q134 0 129 -103q-2 -8 -10 -39q-2 -10 -9 -34q-40 -120 -83 -186q-49 -76 -143 -150
q-133 -104 -262 -104q-41 0 -114 15q-173 34 -243 186q-43 93 -39 196q8 236 129 417q15 12 32 -3q1 -20 -21 -90q-43 -93 -47 -104q-19 -53 -19 -112q0 -185 121 -269q84 -59 184 -59q99 0 234 59q128 71 210 205l-1 2q-10 58 -170 44q-82 11 -96 58q-20 49 -2 123
q40 128 153 216q102 79 194 79q11 0 21 -2q24 -3 43 -82v-2q14 -59 70 -117q53 -55 102 -69h1q46 -13 62 -13q51 1 72 -94zM1142 -218q-12 -49 -102 -168q-33 23 -133 86q11 49 96 163q82 -44 139 -81zM687 -602q-10 -44 -91 -152q-30 21 -120 78q10 44 86 146
q74 -39 125 -72zM456 -639q-11 -44 -92 -151q-29 21 -119 77q9 44 86 147q74 -40 125 -73z" />
    <glyph glyph-name="tehwithnoonfinal" unicode="&#xfe98;&#xfee6;" horiz-adv-x="1428" arabic-form="final" 
d="M974 925q82 -43 139 -81q-12 -49 -102 -168q-33 24 -133 86q11 49 96 163zM1231 966q82 -44 139 -81q-12 -49 -102 -168q-33 23 -133 86q11 49 96 163zM491 470q81 -44 139 -81q-13 -49 -102 -168q-34 23 -133 85q11 50 96 164zM853 200q-5 35 -14 59q-33 87 -51 119
q-8 15 -5 34q8 44 32 118q4 15 10 15q3 0 5 -3q18 -25 34 -58q62 -79 136 -86q19 0 36 6q60 32 65 98q-6 39 -14 82q-3 15 25 105q12 38 25 27q19 -33 89 -347q34 -153 165 -190q6 -1 20 -5t21 -4q50 1 72 -94q-7 -22 -17 -38q-24 -37 -55 -38q-39 -1 -59 4q-81 21 -141 94
q-57 66 -106 284l-9 -39q3 -6 -13 -39q-22 -47 -71 -68q-23 -11 -49 -11q-28 0 -62 16q0 -12 -1 -23q-5 -71 -16 -111q-68 -238 -236 -350q-126 -83 -282 -83q-45 0 -84 8q-173 34 -243 186q-42 93 -39 196q9 236 129 417q9 11 32 -3q0 -24 -4.5 -43.5t-16.5 -46.5
q-43 -93 -47 -104q-19 -53 -19 -112q0 -185 121 -269q87 -61 189 -61t229 61q113 54 203 193q22 42 16 104v0z" />
    <glyph glyph-name="tehwithalefmaksurafinal" unicode="&#xfe98;&#xfef0;" horiz-adv-x="1209" arabic-form="final" 
d="M1106 669q-12 -49 -102 -168q-33 23 -133 86q11 49 96 163q82 -44 139 -81zM849 628q-12 -49 -102 -168q-33 24 -133 86q11 49 96 163q82 -44 139 -81zM1290 76q-7 -21 -17 -37q-24 -37 -55 -39q-33 -2 -68 5q-91 17 -157 99q-44 51 -80 185q-21 34 -46 30
q-43 -6 -81 -23q-89 -43 -134 -140q-4 -8 -4 -16q0 -35 70 -34q42 2 74 2q134 0 129 -103q-2 -8 -10 -39q-2 -10 -9 -34q-41 -120 -83 -186q-49 -76 -143 -150q-133 -104 -262 -104q-41 0 -114 15q-173 34 -243 186q-43 93 -39 196q8 236 129 417q15 12 32 -3q1 -20 -22 -90
q-42 -93 -46 -104q-19 -53 -19 -112q0 -185 121 -269q84 -59 184 -59q98 0 233 59q129 71 211 205l-1 2q-10 58 -170 44q-82 11 -97 58q-20 49 -1 123q40 128 153 216q102 79 194 79q11 0 21 -2q24 -3 43 -82v-2q14 -59 70 -117q53 -55 102 -69h1q46 -13 62 -13q50 1 72 -94
z" />
    <glyph glyph-name="tehwithyehfinal" unicode="&#xfe98;&#xfef2;" horiz-adv-x="1209" arabic-form="final" 
d="M1106 674q-12 -49 -102 -168q-33 23 -132 86q10 49 96 163q81 -44 138 -81zM849 633q-12 -49 -102 -168q-33 24 -132 86q10 49 96 163q81 -44 138 -81zM1286 76q-7 -21 -17 -37q-23 -37 -55 -39q-33 -2 -68 5q-91 17 -157 99q-44 51 -79 185q-22 34 -47 30
q-43 -6 -81 -23q-89 -43 -134 -140q-4 -8 -4 -16q0 -35 70 -34q42 2 74 2q134 0 129 -103q-2 -8 -10 -39q-2 -10 -9 -34q-40 -120 -83 -186q-49 -76 -143 -150q-133 -104 -262 -104q-41 0 -114 15q-173 34 -243 186q-43 93 -39 196q8 236 129 417q15 12 32 -3q1 -20 -21 -90
q-43 -93 -47 -104q-19 -53 -19 -112q0 -185 121 -269q84 -59 184 -59q99 0 234 59q128 71 210 205l-1 2q-10 58 -170 44q-82 11 -96 58q-20 49 -2 123q40 128 153 216q102 79 194 79q11 0 21 -2q24 -3 43 -82v-2q14 -59 70 -117q53 -55 102 -69h1q46 -13 62 -13q51 1 72 -94
zM697 -584q-11 -44 -91 -152q-31 22 -120 78q10 44 86 146q73 -39 125 -72zM466 -620q-12 -45 -92 -152q-30 21 -119 77q9 44 86 147q73 -39 125 -72z" />
    <glyph glyph-name="noonwithzainfinal" unicode="&#xfe98;&#xfeae;" horiz-adv-x="1133" arabic-form="final" 
d="M666 927q82 -44 139 -81q-12 -49 -102 -168q-33 24 -133 86q11 49 96 163zM923 968q82 -44 139 -81q-12 -49 -102 -168q-33 23 -133 86q11 49 96 163zM620 206q-8 -53 -22 -96q-58 -182 -262 -235q-36 -7 -158 -20q-65 -4 -116 4.5t-51 21.5q0 10 34 20q373 109 491 216
q4 2 13 11q8 35 4 72q-4 34 -14 59q-33 87 -50 119q-8 15 -6 34q8 44 32 118q5 16 11 15q3 0 5 -3q18 -25 34 -58q62 -79 136 -86q19 0 36 6q60 32 65 98q-6 39 -14 82q-3 15 25 105q12 38 25 27q19 -33 89 -347q34 -153 165 -190q8 -1 22 -6q11 -3 19 -3q50 1 72 -94
q-7 -22 -17 -38q-24 -38 -55 -38q-42 0 -59 4q-81 21 -141 94q-57 66 -106 284l-9 -39q3 -6 -13 -39q-22 -47 -71 -68q-23 -11 -49 -11q-28 0 -62 16q0 -8 -1 -23l-1 -12h-1z" />
    <glyph glyph-name="noonwithalefmaksurafinal" unicode="&#xfee8;&#xfef0;" horiz-adv-x="1200" arabic-form="final" 
d="M964 691q-12 -49 -102 -168q-33 23 -133 86q11 49 96 163q82 -44 139 -81zM1286 76q-7 -21 -17 -37q-23 -37 -55 -39q-33 -2 -68 5q-91 17 -157 99q-44 51 -79 185q-22 34 -47 30q-43 -6 -81 -23q-89 -43 -134 -140q-4 -8 -4 -16q0 -35 70 -34q42 2 74 2q134 0 129 -103
q-2 -8 -10 -39q-2 -10 -9 -34q-40 -120 -83 -186q-49 -76 -143 -150q-133 -104 -262 -104q-41 0 -114 15q-173 34 -243 186q-43 93 -39 196q8 236 129 417q15 12 32 -3q1 -20 -21 -90q-43 -93 -47 -104q-19 -53 -19 -112q0 -185 121 -269q84 -59 184 -59q99 0 234 59
q128 71 210 205l-1 2q-10 58 -170 44q-82 11 -96 58q-20 49 -2 123q40 128 153 216q102 79 194 79q11 0 21 -2q24 -3 43 -82v-2q14 -59 70 -117q53 -55 102 -69h1q46 -13 62 -13q51 1 72 -94z" />
    <glyph glyph-name="noonwithyehfinal" unicode="&#xfee8;&#xfef2;" horiz-adv-x="1209" arabic-form="final" 
d="M946 686q-12 -49 -102 -168q-33 23 -133 86q11 49 96 163q82 -44 139 -81zM1281 76q-7 -21 -17 -37q-24 -37 -55 -39q-33 -2 -68 5q-91 17 -157 99q-44 51 -80 185q-21 34 -46 30q-44 -6 -81 -23q-90 -43 -134 -140q-4 -8 -4 -16q0 -35 70 -34q42 2 73 2q134 0 129 -103
q-2 -8 -9 -39q-3 -10 -9 -34q-41 -120 -83 -186q-49 -76 -143 -150q-133 -104 -263 -104q-40 0 -113 15q-173 34 -243 186q-43 93 -39 196q8 236 129 417q14 12 32 -3q0 -20 -22 -90q-43 -93 -46 -104q-20 -53 -20 -112q0 -185 122 -269q83 -59 184 -59q98 0 233 59
q129 71 211 205l-1 2q-10 58 -170 44q-83 11 -97 58q-20 49 -2 123q40 128 154 216q101 79 194 79q11 0 21 -2q24 -3 43 -82v-2q14 -59 70 -117q53 -55 102 -69h1q46 -13 62 -13q50 1 72 -94zM730 -592q-11 -44 -91 -152q-31 22 -120 78q10 44 86 146q73 -39 125 -72z
M499 -628q-12 -45 -92 -152q-30 21 -119 77q10 44 86 147q73 -39 125 -72z" />
    <glyph glyph-name="yehwithrehfinal" unicode="&#xfef4;&#xfeae;" horiz-adv-x="1133" arabic-form="final" 
d="M595 -89q82 -44 139 -81q-12 -49 -102 -168q-33 24 -133 86q11 49 96 163zM852 -48q82 -44 139 -81q-12 -49 -102 -168q-33 23 -133 86q11 49 96 163zM620 206q-8 -53 -22 -96q-58 -182 -262 -235q-36 -7 -158 -20q-65 -4 -116 4.5t-51 21.5q0 10 34 20q373 109 491 216
q4 2 13 11q8 35 4 72q-4 34 -14 59q-33 87 -50 119q-8 15 -6 34q8 44 32 118q5 16 11 15q3 0 5 -3q18 -25 34 -58q62 -79 136 -86q19 0 36 6q60 32 65 98q-6 39 -14 82q-3 15 25 105q12 38 25 27q19 -33 89 -347q34 -153 165 -190q8 -1 22 -6q11 -3 19 -3q50 1 72 -94
q-7 -22 -17 -38q-24 -38 -55 -38q-42 0 -59 4q-81 21 -141 94q-57 66 -106 284l-9 -39q3 -6 -13 -39q-22 -47 -71 -68q-23 -11 -49 -11q-28 0 -62 16q0 -8 -1 -23l-1 -12h-1z" />
    <glyph glyph-name="yehwithnoonfinal" unicode="&#xfef4;&#xfee6;" horiz-adv-x="1428" arabic-form="final" 
d="M914 -95q82 -43 139 -80q-12 -50 -102 -169q-33 24 -133 86q11 49 96 163zM1099 -54q82 -44 139 -81q-12 -49 -102 -168q-33 23 -133 86q11 49 96 163zM491 470q81 -44 139 -81q-13 -49 -102 -168q-34 23 -133 85q11 50 96 164zM853 200q-5 35 -14 59q-33 87 -51 119
q-8 15 -5 34q8 44 32 118q4 15 10 15q3 0 5 -3q18 -25 34 -58q62 -79 136 -86q19 0 36 6q60 32 65 98q-6 39 -14 82q-3 15 25 105q12 38 25 27q19 -33 89 -347q34 -153 165 -190q6 -1 20 -5t21 -4q50 1 72 -94q-7 -22 -17 -38q-24 -37 -55 -38q-39 -1 -59 4q-81 21 -141 94
q-57 66 -106 284l-9 -39q3 -6 -13 -39q-22 -47 -71 -68q-23 -11 -49 -11q-28 0 -62 16q0 -12 -1 -23q-5 -71 -16 -111q-68 -238 -236 -350q-126 -83 -282 -83q-45 0 -84 8q-173 34 -243 186q-42 93 -39 196q9 236 129 417q9 11 32 -3q0 -24 -4.5 -43.5t-16.5 -46.5
q-43 -93 -47 -104q-19 -53 -19 -112q0 -185 121 -269q87 -61 189 -61t229 61q113 54 203 193q22 42 16 104v0z" />
    <glyph glyph-name="yehwithalefmaksurafinal" unicode="&#xfef4;&#xfef0;" horiz-adv-x="1204" arabic-form="final" 
d="M1281 76q-7 -21 -17 -37q-24 -37 -55 -39q-33 -2 -68 5q-91 17 -157 99q-44 51 -80 185q-21 34 -46 30q-44 -6 -81 -23q-90 -43 -134 -140q-4 -8 -4 -16q0 -35 70 -34q42 2 73 2q134 0 129 -103q-2 -8 -9 -39q-3 -10 -9 -34q-41 -120 -83 -186q-49 -76 -143 -150
q-133 -104 -263 -104q-40 0 -113 15q-173 34 -243 186q-43 93 -39 196q8 236 129 417q14 12 32 -3q0 -20 -22 -90q-43 -93 -46 -104q-20 -53 -20 -112q0 -185 122 -269q83 -59 184 -59q98 0 233 59q129 71 211 205l-1 2q-10 58 -170 44q-83 11 -97 58q-20 49 -2 123
q40 128 154 216q101 79 194 79q11 0 21 -2q24 -3 43 -82v-2q14 -59 70 -117q53 -55 102 -69h1q46 -13 62 -13q50 1 72 -94zM1176 -341q-13 -49 -102 -168q-28 20 -106 69q-29 -49 -75 -110q-33 24 -133 86q11 49 96 163q61 -32 111 -63q27 47 70 104q81 -44 139 -81z" />
    <glyph glyph-name="seenwithmeeminitial" unicode="&#xfeb3;&#xfee4;" horiz-adv-x="1324" arabic-form="initial" 
d="M1295 907q16 -38 16 -127q0 -96 -29 -191q-30 -101 -60 -135q-9 -11 -33 -29q-34 1 -64 11q-73 23 -113 86q-14 24 -38 60q-27 -52 -77 -122q-13 -9 -49 -4q-29 5 -69 41q-37 33 -51 62l-36 49q-10 4 -24 1q-127 -27 -197 -85q59 -2 95 -41q7 -8 13 -19q3 -5 9 -25
q12 -49 12 -103q0 -155 -100 -288q-10 -7 -20 -7q-52 22 -96 47q-107 59 -162 120q-40 -130 -119 -181q-52 -26 -103 -27q-47 -1 -62 36q-6 15 -5 37q46 98 67 97q12 -1 21 1q133 3 159 103l-1 1q29 53 137 180h-3q123 248 387 313q47 3 67 -39q17 -25 33 -44q40 -46 75 -53
q12 -2 34 -2q45 16 92 167q3 2 7 2q10 0 22 -17q22 -91 96 -153q29 -22 55 -22q34 0 56 36q-8 43 -20 114q-2 16 3 34q18 41 58 108q6 13 12 13q3 -1 5 -5zM504 209q6 27 6 52q0 65 -39 104q-24 14 -50 14q-50 0 -97 -46q28 -43 180 -124z" />
    <glyph glyph-name="sheenwithmeeminitial" unicode="&#xfeb7;&#xfee4;" horiz-adv-x="1324" arabic-form="initial" 
d="M1295 907q16 -38 16 -127q0 -96 -29 -191q-30 -101 -60 -135q-9 -11 -33 -29q-34 1 -64 11q-73 23 -113 86q-14 24 -38 60q-27 -52 -77 -122q-13 -9 -49 -4q-29 5 -69 41q-37 33 -51 62l-36 49q-10 4 -24 1q-127 -27 -197 -85q59 -2 95 -41q7 -8 13 -19q3 -5 9 -25
q12 -49 12 -103q0 -155 -100 -288q-10 -7 -20 -7q-52 22 -96 47q-107 59 -162 120q-40 -130 -119 -181q-52 -26 -103 -27q-47 -1 -62 36q-6 15 -5 37q46 98 67 97q12 -1 21 1q133 3 159 103l-1 1q29 53 137 180h-3q123 248 387 313q47 3 67 -39q17 -25 33 -44q40 -46 75 -53
q12 -2 34 -2q45 16 92 167q3 2 7 2q10 0 22 -17q22 -91 96 -153q29 -22 55 -22q34 0 56 36q-8 43 -20 114q-2 16 3 34q18 41 58 108q6 13 12 13q3 -1 5 -5zM504 209q6 27 6 52q0 65 -39 104q-24 14 -50 14q-50 0 -97 -46q28 -43 180 -124zM1050 1284q-12 -50 -102 -169
q-33 24 -132 86q10 49 96 163q81 -43 138 -80zM1222 1046q-12 -49 -102 -168q-33 23 -133 85q11 50 96 164q82 -44 139 -81zM965 1005q-12 -49 -102 -168q-33 23 -133 86q11 49 96 163q82 -44 139 -81z" />
    <glyph glyph-name="allahisolated" unicode="&#xfedf;&#xfee0;&#xfeea;" horiz-adv-x="1277" arabic-form="isolated" 
d="M1222 491q39 -109 39 -233q0 -235 -128 -290q-53 -22 -109 -22q-51 0 -83 19q-59 35 -91 113q-34 -153 -174 -167q-123 21 -172 222q-32 -71 -93 -110q-79 -61 -255 -46q-81 7 -127 52q-11 11 -18 32q-1 15 -1 31q0 97 61 202q70 122 398 205l1 9q-1 -2 21 77q5 18 9 21
q9 30 17 30q11 0 18 -52q5 -25 45 -324q8 -63 34 -120q29 -53 89 -53t104 41q14 21 14 68q0 11 -18 161.5t-19 170.5q-2 37 -4 54q-2 28 31 122q13 26 22 26q1 0 1 -1q13 -1 18 -45q6 -27 23 -193q19 -170 20 -203q2 -100 103 -160q30 -6 57 -6q53 0 112 34q27 16 21 40
q-1 31 -16 76q-31 113 -77 280q-13 48 -9 107q2 33 32 127q10 27 18 27q7 0 11 -21q8 -51 16 -101q17 -85 59 -200zM483 228l-9 161q-93 -18 -165 -42q-175 -58 -221 -137q25 -23 68 -49q43 -5 90 -5q176 0 237 72zM837 1571q33 -93 33 -226q0 -120 -41 -200q-9 -13 -14 -13
q-6 0 -5 15q12 159 -28 308q-4 16 -3 19q2 17 27 100q8 14 16 14t15 -17zM934 1066q1 2 4 14q7 20 17 37q6 16 11 16t8 -17q9 -44 19 -99q19 -130 -30 -195q-13 -11 -28 -18q-36 -20 -73 -21q-17 20 -37 52q-5 -21 -31 -55q-5 -5 -35 -12q-37 -8 -60 -4q-42 8 -46 106
q-4 129 7 165q7 15 19 34q18 7 20 -12q-8 -97 -2 -160q1 -23 18 -28q13 -7 31 -6q13 3 44 20q5 4 7 27q-7 109 -5 114q4 30 23 73q3 5 9 5q15 0 20 -62q1 -42 4 -99q9 -53 42 -60q47 -3 68 20l-21 142q-3 19 -3 23z" />
    <glyph glyph-name="alefwithmaddaabovefinal" unicode="&#xfe8e;&#x653;" horiz-adv-x="560" arabic-form="final" 
d="M675 1615q-18 -48 -57 -97q-88 -149 -345 -149q-74 0 -140 12q-7 -96 -34 -96q-16 0 -24 37q-24 108 -69 158q-6 8 -6 19q0 12 22 60q12 25 25 27q133 -95 268 -95q182 0 324 152q28 29 39 29q7 0 7 -13q0 -15 -10 -44zM651 78q-11 -22 -25 -37q-31 -38 -66 -41
q-76 -6 -95 0q-46 16 -84 46q-90 73 -118 203q-7 31 -27 208l-45 710q-5 65 50 145q30 44 56 49q77 -34 120 -109q-9 -38 -47 -38q-14 0 -27 5q-23 18 -39 18q-28 0 -28 -62q0 -29 6 -63l48 -643q8 -113 49 -182q55 -91 121 -112q18 -2 60 -5q56 -1 91 -92z" />
    <glyph glyph-name="alefwithhamzaabovefinal" unicode="&#xfe8e;&#x654;" horiz-adv-x="520" arabic-form="final" 
d="M163 1610q3 -116 140 -116q55 23 135 60q17 2 1 -34q-12 -26 -38 -73q-9 -7 -23 -16q-43 -14 -85 -29q-91 -40 -200 -128q-26 -22 -39 -22q-10 0 -10 13q0 11 8 33q6 12 37 49q44 48 90 70q-66 62 -66 142q0 33 13 66q30 74 95 74q22 0 44 -13q16 -13 42 -41q5 -9 5 -16
q0 -21 -36 -8q-35 11 -63 11q-39 0 -50 -22zM615 64q-12 -22 -25 -37q-31 -38 -66 -41q-76 -6 -95 0q-47 16 -85 46q-90 73 -118 203q-6 31 -27 208l-45 710q-4 65 51 145q30 44 56 49q76 -34 120 -109q-9 -38 -47 -38q-14 0 -27 5q-23 18 -39 18q-28 0 -28 -62q0 -29 6 -63
l48 -643q8 -113 49 -182q55 -91 121 -112q17 -2 60 -5q56 -1 91 -92z" />
    <glyph glyph-name="alefwithhamzabelowfinal" unicode="&#xfe8e;&#x655;" horiz-adv-x="474" arabic-form="final" 
d="M212 -87q3 -116 140 -116q55 23 134 61q17 1 2 -35q-12 -26 -38 -73q-9 -7 -23 -16q-43 -14 -86 -29q-91 -40 -200 -128q-26 -22 -39 -22q-9 0 -9 13q0 11 8 33q6 12 36 49q44 48 91 70q-66 62 -66 142q0 33 13 67q29 73 94 73q23 0 44 -13q16 -13 42 -41q6 -9 6 -16
q0 -21 -36 -8q-35 11 -64 11q-38 0 -49 -22zM569 78q-12 -22 -25 -37q-31 -38 -66 -41q-76 -6 -95 0q-47 16 -85 46q-90 73 -118 203q-6 31 -27 208l-45 710q-4 65 51 145q30 44 56 49q76 -34 120 -109q-9 -38 -47 -38q-14 0 -27 5q-23 18 -39 18q-28 0 -28 -62q0 -29 6 -63
l48 -643q8 -113 49 -182q55 -91 121 -112q17 -2 60 -5q56 -1 91 -92z" />
    <glyph glyph-name="lamwithalefmaddaaboveisolatedd" unicode="&#xfedf;&#xfe82;" horiz-adv-x="835" arabic-form="isolated" 
d="M843 1453q-23 -48 -72 -98q-110 -148 -431 -148q-92 0 -175 12q-9 -96 -42 -96q-20 0 -30 36q-31 109 -86 159q-9 8 -9 19q0 12 28 60q15 25 31 27q166 -95 335 -95q228 0 405 152q35 29 49 29q9 0 9 -13q0 -15 -12 -44zM65 1054l317 -176q264 -170 264 -477
q0 -40 -5 -81l-20 -96q-11 -30 -24 -30q-10 0 -20 20q-12 70 -12 141.5t-45 156.5q-79 154 -271 250q-21 -2 -43 -6q-10 -18 -31 -18q-15 0 -34 12q-83 50 -112 94q-17 16 -15 44q-4 103 9 160q11 16 17 16t13 -4zM745 246q0 5 1 18q6 133 -20 343q-17 120 -48 434l-3 32
q-1 20 -1 40q0 81 24 156q6 13 11 21q15 14 20 0q8 -25 25 -70q54 -132 51 -169q-10 -18 -33 -65q19 -145 52 -458q11 -141 8 -180q-1 -8 -3 -23q-24 -284 -208 -403q-166 -109 -445 -109q-49 -1 -68 0q-11 9 -11 19q0 19 42 32q460 149 598 320q5 10 8 62z" />
    <glyph glyph-name="lamwithalefmaddaabovefinal" unicode="&#xfee0;&#xfe82;" horiz-adv-x="1061" arabic-form="final" 
d="M979 1496q-23 -48 -71 -97q-110 -149 -431 -149q-93 0 -175 12q-9 -96 -42 -96q-20 0 -31 37q-30 109 -86 158q-8 8 -8 19q0 12 28 60q14 25 31 27q166 -95 335 -95q228 0 405 152q35 29 49 29q9 0 9 -12q0 -16 -13 -45zM1110 74q-17 -74 -52 -74q-23 0 -40 4
q-52 12 -96 41q-90 60 -111 169q-50 -180 -184 -267q-167 -109 -445 -109q-49 -1 -69 0q-10 9 -10 19q0 19 42 32q459 149 598 320q5 10 8 62q0 13 1 58q-4 108 -13 254q-20 389 -39 615q0 6 2 12q18 67 40 105q15 15 20 0q18 -98 43 -304l37 -555q3 -103 56 -174
q38 -51 100 -84l62 -28q44 -8 50 -96zM647 345l-20 -96q-11 -30 -24 -30q-10 0 -20 20q-13 70 -12.5 141.5t-44.5 156.5q-79 154 -271 250q-21 -2 -43 -6q-10 -18 -31 -18q-15 0 -34 12q-83 50 -112 94q-17 16 -15 44q-4 103 9 160q11 16 17 16t13 -4l11 -6l318 -176
q264 -170 264 -477q0 -40 -5 -81z" />
    <glyph glyph-name="lamwithalefhamzaaboveisolatedd" unicode="&#xfedf;&#xfe84;" horiz-adv-x="851" arabic-form="isolated" 
d="M65 1082l317 -176q264 -170 264 -477q0 -40 -5 -81l-20 -96q-11 -30 -24 -30q-10 0 -20 20q-12 70 -12 141.5t-45 156.5q-79 154 -271 250q-21 -2 -43 -6q-10 -18 -31 -18q-15 0 -34 12q-83 50 -112 94q-17 16 -15 44q-4 103 9 160q11 16 17 16t13 -4zM745 274q0 5 1 18
q6 133 -20 343q-17 120 -48 434l-3 32q-1 20 -1 40q0 81 24 156q6 13 11 21q15 14 20 0q8 -25 25 -70q54 -132 51 -169q-10 -18 -33 -65q19 -145 52 -458q11 -141 8 -180q-1 -8 -3 -23q-24 -284 -208 -403q-166 -109 -445 -109q-49 -1 -68 0q-11 9 -11 19q0 19 42 32
q460 149 598 320q5 10 8 62zM283 1382q3 -105 127 -105q49 21 121 54q15 2 1 -31q-11 -23 -34 -65q-9 -7 -21 -15q-39 -12 -77 -26q-82 -36 -180 -115q-23 -20 -35 -20q-8 0 -8 12q0 10 6 30q7 11 34 44q39 43 81 63q-60 56 -60 128q0 29 13 59q26 67 84 67q20 0 40 -12
q14 -12 38 -37q5 -8 5 -14q0 -19 -33 -8q-31 10 -57 10q-34 0 -45 -19z" />
    <glyph glyph-name="lamwithalefhamzaabovefinal" unicode="&#xfee0;&#xfe84;" horiz-adv-x="1061" arabic-form="final" 
d="M1110 74q-17 -74 -52 -74q-23 0 -40 4q-52 12 -96 41q-90 60 -111 169q-50 -180 -184 -267q-167 -109 -445 -109q-49 -1 -69 0q-10 9 -10 19q0 19 42 32q459 149 598 320q5 10 8 62q0 13 1 58q-4 108 -13 254q-20 389 -39 615q0 6 2 12q18 67 40 105q15 15 20 0
q18 -98 43 -304l37 -555q3 -103 56 -174q38 -51 100 -84l62 -28q44 -8 50 -96zM647 345l-20 -96q-11 -30 -24 -30q-10 0 -20 20q-13 70 -12.5 141.5t-44.5 156.5q-79 154 -271 250q-21 -2 -43 -6q-10 -18 -31 -18q-15 0 -34 12q-83 50 -112 94q-17 16 -15 44q-4 103 9 160
q11 16 17 16t13 -4l11 -6l318 -176q264 -170 264 -477q0 -40 -5 -81zM281 1384q3 -104 127 -104q49 21 121 54q15 2 1 -30q-11 -24 -34 -66q-9 -6 -21 -15q-39 -12 -77 -26q-82 -36 -180 -115q-23 -20 -35 -20q-8 0 -8 12q0 10 6 30q7 10 34 44q39 43 81 63q-60 56 -60 128
q0 29 13 59q26 67 84 67q20 0 40 -12q14 -12 38 -37q5 -8 5 -14q0 -19 -33 -8q-31 10 -57 10q-34 0 -45 -20z" />
    <glyph glyph-name="lamwithalefhamzabelowisolated" unicode="&#xfedf;&#xfe88;" horiz-adv-x="851" arabic-form="isolated" 
d="M65 1082l317 -176q264 -170 264 -477q0 -40 -5 -81l-20 -96q-11 -30 -24 -30q-10 0 -20 20q-12 70 -12 141.5t-45 156.5q-79 154 -271 250q-21 -2 -43 -6q-10 -18 -31 -18q-15 0 -34 12q-83 50 -112 94q-17 16 -15 44q-4 103 9 160q11 16 17 16t13 -4zM745 274q0 5 1 18
q6 133 -20 343q-17 120 -48 434l-3 32q-1 20 -1 40q0 81 24 156q6 13 11 21q15 14 20 0q8 -25 25 -70q54 -132 51 -169q-10 -18 -33 -65q19 -145 52 -458q11 -141 8 -180q-1 -8 -3 -23q-24 -284 -208 -403q-166 -109 -445 -109q-49 -1 -68 0q-11 9 -11 19q0 19 42 32
q460 149 598 320q5 10 8 62zM291 -250q3 -105 126 -105q50 20 122 54q15 2 1 -30q-11 -25 -35 -66l-20 -15q-39 -13 -77 -26q-82 -36 -180 -115q-23 -20 -35 -20q-9 0 -9 12q0 10 7 29q6 11 33 45q40 43 82 63q-60 56 -60 128q0 29 12 59q27 67 85 67q20 0 40 -13
q14 -11 38 -36q4 -8 4 -14q0 -19 -32 -7q-32 9 -57 9q-35 0 -45 -19z" />
    <glyph glyph-name="lamwithalefhamzabelowfinal" unicode="&#xfee0;&#xfe88;" horiz-adv-x="1061" arabic-form="final" 
d="M1110 74q-17 -74 -52 -74q-23 0 -40 4q-52 12 -96 41q-90 60 -111 169q-50 -180 -184 -267q-167 -109 -445 -109q-49 -1 -69 0q-10 9 -10 19q0 19 42 32q459 149 598 320q5 10 8 62q0 13 1 58q-4 108 -13 254q-20 389 -39 615q0 6 2 12q18 67 40 105q15 15 20 0
q18 -98 43 -304l37 -555q3 -103 56 -174q38 -51 100 -84l62 -28q44 -8 50 -96zM647 345l-20 -96q-11 -30 -24 -30q-10 0 -20 20q-13 70 -12.5 141.5t-44.5 156.5q-79 154 -271 250q-21 -2 -43 -6q-10 -18 -31 -18q-15 0 -34 12q-83 50 -112 94q-17 16 -15 44q-4 103 9 160
q11 16 17 16t13 -4l11 -6l318 -176q264 -170 264 -477q0 -40 -5 -81zM317 -270q3 -105 126 -105q50 21 121 55q15 1 1 -31q-11 -24 -34 -66q-8 -6 -21 -15q-38 -12 -77 -26q-82 -36 -180 -115q-23 -20 -35 -20q-8 0 -8 12q0 10 6 30q7 11 34 44q39 43 82 63q-60 56 -60 128
q0 29 12 60q26 66 84 66q20 0 40 -12q14 -12 38 -37q5 -8 5 -14q0 -19 -32 -7q-32 9 -58 9q-34 0 -44 -19z" />
    <glyph glyph-name="lamwithalefisolated" unicode="&#xfedf;&#xfe8e;" horiz-adv-x="851" arabic-form="isolated" 
d="M65 1097l317 -176q264 -170 264 -477q0 -40 -5 -81l-20 -96q-11 -30 -24 -30q-10 0 -20 20q-12 70 -12 141.5t-45 156.5q-79 154 -271 250q-21 -2 -43 -6q-10 -18 -31 -18q-15 0 -34 12q-83 50 -112 94q-17 16 -15 44q-4 103 9 160q11 16 17 16t13 -4zM745 289q0 5 1 18
q6 133 -20 343q-17 120 -48 434l-3 32q-1 20 -1 40q0 81 24 156q6 13 11 21q15 14 20 0q8 -25 25 -70q54 -132 51 -169q-10 -18 -33 -65q19 -145 52 -458q11 -141 8 -180q-1 -8 -3 -23q-24 -284 -208 -403q-166 -109 -445 -109q-49 -1 -68 0q-11 9 -11 19q0 19 42 32
q460 149 598 320q5 10 8 62z" />
    <glyph glyph-name="lamwithaleffinal" unicode="&#xfee0;&#xfe8e;" horiz-adv-x="1061" arabic-form="final" 
d="M1110 74q-17 -74 -52 -74q-23 0 -40 4q-52 12 -96 41q-90 60 -111 169q-50 -180 -184 -267q-167 -109 -445 -109q-49 -1 -69 0q-10 9 -10 19q0 19 42 32q459 149 598 320q5 10 8 62q0 13 1 58q-4 108 -13 254q-20 389 -39 615q0 6 2 12q18 67 40 105q15 15 20 0
q18 -98 43 -304l37 -555q3 -103 56 -174q38 -51 100 -84l62 -28q44 -8 50 -96zM647 345l-20 -96q-11 -30 -24 -30q-10 0 -20 20q-13 70 -12.5 141.5t-44.5 156.5q-79 154 -271 250q-21 -2 -43 -6q-10 -18 -31 -18q-15 0 -34 12q-83 50 -112 94q-17 16 -15 44q-4 103 9 160
q11 16 17 16t13 -4l11 -6l318 -176q264 -170 264 -477q0 -40 -5 -81z" />
    <glyph glyph-name="laminitial_lammedial_hehfinal.liga" unicode="&#xfedf;&#xfee0;&#xfeea;" horiz-adv-x="1277" 
d="M1222 487q39 -109 39 -233q0 -235 -128 -290q-53 -22 -109 -22q-51 0 -83 19q-59 35 -91 113q-34 -153 -174 -167q-123 21 -172 222q-32 -71 -93 -110q-79 -61 -255 -46q-81 7 -127 52q-11 11 -18 32q-1 15 -1 31q0 97 61 202q70 122 398 205l1 9q-1 -2 21 77q5 18 9 21
q9 30 17 30q11 0 18 -52q5 -25 45 -324q8 -63 34 -120q29 -53 89 -53t104 41q14 21 14 68q0 11 -18 161.5t-19 170.5q-2 37 -4 54q-2 28 31 122q13 26 22 26q1 0 1 -1q13 -1 18 -45q6 -27 23 -193q19 -170 20 -203q2 -100 103 -160q30 -6 57 -6q53 0 112 34q27 16 21 40
q-1 31 -16 76q-31 113 -77 280q-13 48 -9 107q2 33 32 127q10 27 18 27q7 0 11 -21q8 -51 16 -101q17 -85 59 -200zM483 224l-9 161q-93 -18 -165 -42q-175 -58 -221 -137q25 -23 68 -49q43 -5 90 -5q176 0 237 72z" />
    <glyph glyph-name="laminitial_alefwaslafinal.liga" unicode="&#xfedf;&#xfb51;" horiz-adv-x="851" 
d="M65 897l317 -176q264 -170 264 -477q0 -40 -5 -81l-20 -96q-11 -30 -24 -30q-10 0 -20 20q-12 70 -12 141.5t-45 156.5q-79 154 -271 250q-21 -2 -43 -6q-10 -18 -31 -18q-15 0 -34 12q-83 50 -112 94q-17 16 -15 44q-4 103 9 160q11 16 17 16t13 -4zM745 89q0 5 1 18
q6 133 -20 343q-17 120 -48 434l-3 32q-1 20 -1 40q0 81 24 156q6 13 11 21q15 14 20 0q8 -25 25 -70q54 -132 51 -169q-10 -18 -33 -65q19 -145 52 -458q11 -141 8 -180q-1 -8 -3 -23q-24 -284 -208 -403q-166 -109 -445 -109q-49 -1 -68 0q-11 9 -11 19q0 19 42 32
q460 149 598 320q5 10 8 62zM439 1135q0 -60 -54 -102q-50 -38 -112 -38h-161q-30 0 -30 -43q0 -26 1 -34l1 -1q-1 -4 -1 1q-46 47 -46 96q0 64 74 64h23q114 154 226 154q79 0 79 -97zM352 1136q0 37 -31 37q-54 0 -135 -95h79q87 0 87 58z" />
    <glyph glyph-name="lammedial_alefwaslafinal.liga" unicode="&#xfee0;&#xfb51;" horiz-adv-x="1061" 
d="M1110 74q-17 -74 -52 -74q-23 0 -40 4q-52 12 -96 41q-90 60 -111 169q-50 -180 -184 -267q-167 -109 -445 -109q-49 -1 -69 0q-10 9 -10 19q0 19 42 32q459 149 598 320q5 10 8 62q0 13 1 58q-4 108 -13 254q-20 389 -39 615q0 6 2 12q18 67 40 105q15 15 20 0
q18 -98 43 -304l37 -555q3 -103 56 -174q38 -51 100 -84l62 -28q44 -8 50 -96zM647 345l-20 -96q-11 -30 -24 -30q-10 0 -20 20q-13 70 -12.5 141.5t-44.5 156.5q-79 154 -271 250q-21 -2 -43 -6q-10 -18 -31 -18q-15 0 -34 12q-83 50 -112 94q-17 16 -15 44q-4 103 9 160
q11 16 17 16t13 -4l11 -6l318 -176q264 -170 264 -477q0 -40 -5 -81zM474 1309q0 -60 -54 -102q-50 -38 -112 -38h-161q-30 0 -30 -43q0 -26 1 -34l1 -1q-1 -4 -1 1q-46 47 -46 96q0 64 74 64h23q114 154 226 154q79 0 79 -97zM387 1310q0 37 -31 37q-54 0 -135 -95h79
q87 0 87 58z" />
    <glyph glyph-name="lammedial_alefmaksurafinal.liga" unicode="&#xfee0;&#xfef0;" horiz-adv-x="959" 
d="M1027 328q-7 -22 -17 -37q-24 -37 -55 -39q-90 38 -146 122q-5 -37 -12 -66q-1 -9 -24 -76q-8 -15 15 -18q15 1 72 -11q66 -19 61 -92q1 -16 -10 -66l-4 -11q-37 -116 -81 -181q-47 -70 -143 -145q-142 -111 -278 -111q-41 0 -100 12q-172 34 -242 186q-43 93 -40 196
q9 236 129 417q15 12 32 -3q1 -20 -21 -90q-43 -93 -47 -104q-19 -53 -19 -112q0 -185 121 -269q84 -59 184 -59q99 0 234 59q121 67 202 192q2 7 2 13q0 49 -93 46l-121 2q3 0 -58 1q-24 1 -30 9t-3 29q23 90 48 102l24 2h8q92 15 104 22t27 49q9 22 7 100q-1 72 -7 96
l15 -23q-20 60 -28 133l-63 649q-6 55 7 115q1 15 32 96q19 40 30 40q10 0 13 -28q3 -22 34 -375q32 -357 33 -382q7 -132 55 -216q37 -65 81 -80q50 2 72 -94z" />
    <glyph glyph-name="tehinitial_alefmaksurafinal.liga" unicode="&#xfe97;&#xfef0;" horiz-adv-x="934" 
d="M806 1056q-12 -49 -102 -168q-33 23 -133 86q11 49 96 163q82 -44 139 -81zM549 1015q-12 -49 -102 -168q-33 24 -133 86q11 49 96 163q82 -44 139 -81zM915 168q0 -15 -11 -66l-3 -10q-37 -117 -81 -182q-47 -69 -143 -145q-142 -111 -278 -111q-41 0 -100 12
q-173 35 -243 186q-43 93 -39 197q8 236 129 417q15 11 32 -4q1 -19 -21 -89q-43 -94 -47 -104q-19 -53 -19 -113q0 -185 121 -269q84 -58 184 -58q99 0 234 58q121 67 202 192q1 7 1 14q0 48 -92 45l-121 3q2 0 -58 1q-24 0 -31 10q-5 7 -2 28q8 32 19 55q10 38 36 49
l17 -1q4 1 8 1q116 18 131 70q0 111 -100 228q-57 67 -110 103q-12 8 -8 26l20 119q12 27 25 27q9 0 20 -6q60 -34 118 -107q94 -122 94 -274q0 -87 -32 -180q-7 -17 2 -18h11q34 0 74 -11q66 -20 61 -93z" />
    <glyph glyph-name="aininitial_alefmaksurafinal.liga" unicode="&#xfecb;&#xfef0;" horiz-adv-x="1220" 
d="M1215 696q-15 -61 -35 -119q-12 -11 -38 -24q-65 -29 -265 -114q-100 -55 -204 -141q-37 -31 -33 -50q4 -21 34 -23q-6 0 48 2q42 2 74 2q133 0 128 -103q-3 -16 -17 -65l-2 -6q-38 -115 -83 -182q-48 -69 -144 -145q-142 -111 -278 -111q-41 0 -100 12q-173 35 -245 196
q-45 101 -41 207q8 236 131 500q15 11 33 -4q0 -20 -22 -89q-65 -142 -77 -286q-6 -73 23 -153q35 -97 111 -150q84 -58 184 -58q99 0 234 58q130 72 212 209q-15 54 -169 41q-82 10 -97 57q-18 44 -5 109q2 7 8 23q29 81 142 174q-199 93 -199 295q0 13 2 23q13 52 35 91
q54 94 141 108q91 5 210 -70q7 -8 7 -16q0 -16 -31 -21q-45 11 -94 11q-138 0 -195 -94q101 -179 270 -179q13 0 27 1q79 27 284 119q14 7 24 7q16 0 16 -20q0 -9 -4 -22z" />
    <glyph glyph-name="ghaininitial_alefmaksurafinal.liga" unicode="&#xfecf;&#xfef0;" horiz-adv-x="1225" 
d="M1211 696q-15 -61 -35 -119q-12 -11 -38 -24q-65 -29 -265 -114q-100 -55 -204 -141q-37 -31 -33 -50q4 -21 34 -23q-6 0 48 2q42 2 73 2q134 0 129 -103q-3 -16 -17 -65l-2 -6q-38 -115 -83 -182q-48 -69 -144 -145q-142 -111 -278 -111q-41 0 -100 12q-173 35 -245 196
q-45 101 -41 207q8 236 131 500q15 11 33 -4q0 -20 -22 -89q-65 -142 -77 -286q-6 -73 23 -153q35 -97 111 -150q84 -58 184 -58q99 0 234 58q130 72 212 209q-15 54 -169 41q-82 10 -97 57q-18 44 -5 109q2 7 8 23q29 81 142 174q-199 93 -199 295q0 13 2 23q13 52 35 91
q54 94 141 108q91 5 210 -70q7 -8 7 -16q0 -16 -31 -21q-45 11 -94 11q-138 0 -195 -94q101 -179 270 -179q13 0 27 1q79 27 284 119q14 7 24 7q16 0 16 -20q0 -9 -4 -22zM776 1202q-12 -49 -102 -168q-33 23 -133 86q11 49 96 163q82 -44 139 -81z" />
    <glyph glyph-name="hehinitial_alefmaksurafinal.liga" unicode="&#xfeeb;&#xfef0;" horiz-adv-x="1226" 
d="M1220 531q-16 -101 -56 -163q-33 -39 -101 -36q-154 7 -269 44q-42 -23 -123 -78q-37 -31 -34 -50q5 -21 35 -23q-6 0 48 2q42 2 73 2q134 0 129 -103q-3 -16 -17 -65l-2 -6q-38 -115 -83 -182q-48 -69 -144 -145q-142 -111 -278 -111q-41 0 -100 12q-173 35 -245 196
q-45 101 -42 207q9 235 132 500q15 11 32 -4q1 -20 -21 -89q-65 -142 -77 -286q-7 -73 22 -153q36 -97 112 -150q84 -58 184 -58q98 0 233 58q131 72 213 209q-15 54 -169 41q-83 10 -97 57q-18 44 -5 109q2 7 7 23q26 70 114 149q-17 8 -36 19q-42 33 -42 108q0 33 9 72
q19 58 44 107q60 116 141 166l27 110q10 22 19 22t15 -18q28 -79 130 -166q30 -25 114 -100q111 -106 111 -195q0 -16 -3 -32zM1127 506q10 0 -4 13q-32 51 -109 118q-26 23 -49 38q-7 -22 -27 -85q-12 -33 -28 -68q87 -18 217 -16zM892 634q5 43 -17 82t-46 41
q-85 9 -125 -101q-3 -9 -6 -35q-2 -11 9 -20q43 -29 111 -50q58 32 74 83z" />
    <glyph glyph-name="meeminitial_alefmaksurafinal.liga" unicode="&#xfee3;&#xfef0;" horiz-adv-x="944" 
d="M941 583q-8 -48 -38 -122q-27 -19 -193 -134q-6 -4 -36 -29q-37 -31 -33 -50q4 -21 34 -23q-6 0 48 2q42 2 73 2q134 0 129 -103q-3 -16 -17 -65l-2 -6q-38 -115 -83 -182q-48 -69 -144 -145q-142 -111 -278 -111q-41 0 -100 12q-173 35 -245 196q-45 101 -41 207
q8 236 131 500q15 11 33 -4q0 -20 -22 -89q-65 -142 -77 -286q-6 -73 23 -153q35 -97 111 -150q84 -58 184 -58q99 0 234 58q130 72 212 209q-15 54 -169 41q-82 10 -97 57q-18 44 -5 109l1 3q5 47 39 101l4 7q30 48 116 107q-12 99 -12 204q0 110 12 199q4 20 22 20
q19 0 51 -27q140 -117 135 -297zM873 563q6 5 -1 18q-27 53 -74 98q-14 19 -16 0q-4 -116 4 -156q49 14 87 40z" />
    <glyph glyph-name="kehehinitial_alefmaksurafinal.liga" unicode="&#xfb90;&#xfef0;" horiz-adv-x="1207" 
d="M1293 1048q-17 -35 -35 -62q-45 -66 -90 -81q-53 -19 -489 -172q116 -130 116 -300q0 -87 -32 -180q-7 -17 3 -18l10 -1q34 1 74 -10q66 -20 61 -93q-4 -44 -14 -76q-39 -118 -82 -182q-47 -70 -142 -145q-142 -111 -278 -111q-41 0 -100 12q-173 35 -243 186
q-43 93 -39 197q8 236 129 417q15 11 32 -4q1 -20 -21 -89q-43 -94 -47 -105q-19 -53 -19 -112q0 -185 121 -269q84 -58 184 -58q99 0 234 58q121 67 202 192q1 7 1 14q0 48 -92 45l-121 3q3 0 -58 1q-24 0 -30 8.5t-3 29.5q8 32 19 55q10 38 36 49l17 -1q4 1 8 0
q116 19 131 71q0 111 -108 238q-66 79 -118 114q-7 5 -8 10q-16 22 -3 52q14 32 51 83q5 7 10 8q16 12 35 20q69 29 235 92q131 40 319 100l70 25q42 18 63 18q17 0 17 -11q0 -7 -6 -18z" />
    <glyph glyph-name="gafinitial_alefmaksurafinal.liga" unicode="&#xfb94;&#xfef0;" horiz-adv-x="1120" 
d="M1118 1227q-17 -21 -59 -65q-41 -38 -43 -40q-21 -15 -67 -36q-222 -100 -375 -157q-17 -6 -22 -2q-6 4 5 28q35 63 78 107l449 183q6 2 26 12q7 8 14 8q9 0 9 -10q0 -11 -15 -28zM1292 1048q-17 -35 -35 -62q-45 -66 -90 -81q-53 -19 -489 -172q116 -130 116 -300
q0 -87 -32 -180q-7 -17 3 -18l10 -1q34 1 74 -10q66 -20 61 -93q-4 -44 -14 -76q-39 -118 -82 -182q-47 -70 -142 -145q-142 -111 -278 -111q-41 0 -100 12q-173 35 -243 186q-43 93 -39 197q8 236 129 417q15 11 32 -4q1 -20 -21 -89q-43 -94 -47 -105q-19 -53 -19 -112
q0 -185 121 -269q84 -58 184 -58q99 0 234 58q121 67 202 192q1 7 1 14q0 48 -92 45l-121 3q3 0 -58 1q-24 0 -30 8.5t-3 29.5q8 32 19 55q10 38 36 49l17 -1q4 1 8 0q116 19 131 71q0 111 -108 238q-66 79 -118 114q-7 5 -8 10q-16 22 -3 52q14 32 51 83q5 7 10 8
q16 12 35 20q69 29 235 92q131 40 319 100l70 25q42 18 63 18q17 0 17 -11q0 -7 -6 -18z" />
    <glyph glyph-name="tahinitial_alefmaksurafinal.liga" unicode="&#xfec3;&#xfef0;" horiz-adv-x="1273" 
d="M1258 524q-7 -20 -16 -38q-23 -44 -56 -69q-43 -42 -131 -68q-37 -10 -159 -26q-195 -25 -254 -49q-12 -17 -10 -26q4 -21 34 -23q-6 0 48 2q42 2 73 2q134 0 129 -103q-3 -16 -17 -65l-2 -6q-38 -115 -83 -182q-48 -69 -144 -145q-142 -111 -278 -111q-41 0 -100 12
q-173 35 -245 196q-45 101 -41 207q8 235 131 500q15 11 33 -4q0 -20 -22 -89q-65 -142 -77 -286q-6 -73 23 -153q35 -97 111 -150q84 -58 184 -58q99 0 234 58q130 72 212 209q-15 54 -169 41q-82 10 -97 57q-18 44 -5 109q2 10 10 30q53 94 87 174q17 62 15 147
q-3 113 -15 299l-24 309q-2 20 -2 41q0 81 25 155q6 14 11 22q14 14 19 0q9 -25 26 -70q54 -132 51 -170q-11 -18 -34 -65q1 -4 14 -160q13 -148 10 -210q-2 -43 -8 -119q81 88 213 89q38 6 81 6q225 0 225 -151q0 -32 -10 -69zM1168 514q-59 73 -227 74q-213 9 -273 -203
q69 43 313 55q103 -1 169 34q38 15 18 40z" />
    <glyph glyph-name="zahinitial_alefmaksurafinal.liga" unicode="&#xfec7;&#xfef0;" horiz-adv-x="1268" 
d="M1256 524q-6 -20 -16 -38q-23 -44 -55 -69q-44 -42 -132 -68q-37 -10 -159 -26q-194 -25 -253 -49q-12 -17 -11 -26q4 -21 35 -23q-6 0 48 2q42 2 73 2q134 0 129 -103q-4 -16 -18 -65l-1 -6q-38 -115 -83 -182q-48 -69 -145 -145q-142 -111 -277 -111q-42 0 -100 12
q-173 35 -245 196q-46 101 -42 207q8 235 132 500q15 11 32 -4q1 -20 -21 -89q-65 -142 -77 -286q-7 -73 22 -153q36 -97 112 -150q83 -58 184 -58q98 0 233 58q130 72 213 209q-15 54 -170 41q-82 10 -96 57q-18 44 -5 109q3 16 10 30q52 94 87 174q16 62 14 147
q-3 113 -15 299l-24 309q-1 20 -1 41q0 81 24 155q6 14 11 22q15 14 20 0q8 -25 25 -70q54 -132 52 -170q-11 -18 -34 -65q0 -4 13 -160q13 -148 10 -210q-1 -43 -7 -119q80 88 213 89q38 6 81 6q225 0 225 -151q0 -32 -11 -69zM1166 514q-58 73 -226 74q-214 9 -273 -203
q69 43 312 55q104 -1 169 34q39 15 18 40zM1112 1010q-12 -49 -102 -168q-33 23 -132 86q10 49 96 163q81 -44 138 -81z" />
    <glyph glyph-name="sadinitial_alefmaksurafinal.liga" unicode="&#xfebb;&#xfef0;" horiz-adv-x="1767" 
d="M1769 683q-4 -45 -31 -125q-38 -118 -93 -164q-58 -49 -113 -69q-116 -43 -356 -60q-4 -12 -16 -81q-19 -34 -37 -34q-13 0 -24 19q1 12 4 37q1 13 9 63q-114 12 -145 42q-49 45 -66 108q-4 17 -13 19q-8 1 -29 -8q-150 -60 -207 -160q-8 -26 20 -37q19 -7 49 -6
q42 2 73 2q134 0 129 -103q-3 -16 -17 -65l-2 -6q-38 -115 -83 -182q-48 -69 -144 -145q-142 -111 -278 -111q-41 0 -100 12q-173 35 -245 196q-45 101 -42 207q9 236 132 500q15 11 32 -4q1 -20 -21 -89q-65 -142 -77 -286q-7 -73 22 -153q36 -97 112 -150q84 -58 184 -58
q98 0 233 58q131 72 213 209q-15 54 -169 41q-83 10 -97 57q-18 44 -5 109q20 73 58 132q93 143 263 199q30 10 41 -29q61 -115 215 -120q58 227 149 307.5t232 80.5q59 0 121 -16q25 -9 46 -21q50 -29 70 -69q4 -29 3 -47zM1672 591q-86 73 -236 68q-194 0 -232 -213
q372 0 468 145z" />
    <glyph glyph-name="dadinitial_alefmaksurafinal.liga" unicode="&#xfebf;&#xfef0;" horiz-adv-x="1767" 
d="M1764 683q-4 -45 -30 -125q-39 -118 -93 -164q-59 -49 -113 -69q-117 -43 -356 -60q-4 -12 -16 -81q-19 -34 -37 -34q-13 0 -24 19q1 12 4 37q1 13 8 63q-113 12 -145 42q-48 45 -65 108q-4 17 -13 19q-8 1 -29 -8q-150 -60 -207 -160q-8 -26 20 -37q18 -7 49 -6
q42 2 73 2q134 0 129 -103q-4 -16 -17 -65l-2 -6q-38 -115 -83 -182q-48 -69 -144 -145q-142 -111 -278 -111q-41 0 -100 12q-173 35 -245 196q-46 101 -42 207q8 235 132 500q15 11 32 -4q1 -20 -21 -89q-65 -142 -77 -286q-7 -73 22 -153q36 -97 112 -150q84 -58 184 -58
q98 0 233 58q130 72 213 209q-15 54 -170 41q-82 10 -96 57q-18 44 -5 109q20 73 58 132q93 143 263 199q30 10 41 -29q61 -115 214 -120q59 227 150 307.5t232 80.5q58 0 120 -16q26 -9 47 -21q50 -29 70 -69q4 -29 2 -47zM1668 591q-86 73 -237 68q-193 0 -231 -213
q372 0 468 145zM1530 1057q-12 -49 -102 -168q-33 23 -132 86q10 49 96 163q81 -44 138 -81z" />
    <glyph glyph-name="jeeminitial_alefmaksurafinal.liga" unicode="&#xfe9f;&#xfef0;" horiz-adv-x="1242" 
d="M1236 647q-15 -38 -64 -117l-138 -26q-172 -50 -360 -206q-37 -31 -34 -50q5 -21 35 -23q-6 0 48 2q42 2 73 2q134 0 129 -103q-3 -16 -17 -65l-2 -6q-38 -115 -83 -182q-48 -69 -144 -145q-142 -111 -278 -111q-41 0 -100 12q-173 35 -245 196q-45 101 -42 207
q9 235 132 500q15 11 32 -4q1 -20 -21 -89q-65 -142 -77 -286q-7 -73 22 -153q36 -97 112 -150q84 -58 184 -58q98 0 233 58q131 72 213 209q-15 54 -169 41q-83 10 -97 57q-18 44 -5 109q2 7 7 23q45 121 256 255q-56 19 -157 39q-24 6 -50 6q-52 0 -97 -21
q-23 -36 -51 -92q-8 -14 -21 -14q-10 0 -21 10q-4 19 -1 30q11 43 22 77q28 82 56 107q64 54 138 54q31 0 67 -8q181 -38 403 -38q47 0 91 2q25 -4 25 -28q0 -10 -4 -21zM1187 -44q-13 -49 -102 -168q-34 24 -133 86q11 49 96 163q81 -44 139 -81z" />
    <glyph glyph-name="hahinitial_alefmaksurafinal.liga" unicode="&#xfea3;&#xfef0;" horiz-adv-x="1233" 
d="M1233 647q-15 -38 -64 -117l-138 -26q-172 -50 -360 -206q-37 -31 -34 -50q5 -21 35 -23q-6 0 48 2q42 2 73 2q134 0 129 -103q-3 -16 -17 -65l-2 -6q-38 -115 -83 -182q-48 -69 -144 -145q-142 -111 -278 -111q-41 0 -100 12q-173 35 -245 196q-46 101 -42 207
q9 235 132 500q15 11 32 -4q1 -20 -21 -89q-65 -142 -77 -286q-7 -73 22 -153q36 -97 112 -150q84 -58 184 -58q98 0 233 58q130 72 213 209q-15 54 -170 41q-82 10 -96 57q-18 44 -5 109q2 7 7 23q44 121 256 255q-56 19 -157 39q-24 6 -50 6q-52 0 -97 -21
q-23 -36 -51 -92q-8 -14 -21 -14q-10 0 -22 10q-3 19 0 30q11 43 22 77q28 82 56 107q64 54 138 54q31 0 67 -8q181 -38 403 -38q47 0 91 2q25 -4 25 -28q0 -10 -4 -21z" />
    <glyph glyph-name="khahinitial_alefmaksurafinal.liga" unicode="&#xfea7;&#xfef0;" horiz-adv-x="1229" 
d="M1229 647q-15 -38 -64 -117l-138 -26q-171 -50 -360 -206q-37 -31 -33 -50q4 -21 34 -23q-6 0 48 2q42 2 74 2q133 0 128 -103q-3 -16 -17 -65l-2 -6q-38 -115 -83 -182q-48 -69 -144 -145q-142 -111 -278 -111q-41 0 -100 12q-172 35 -245 196q-45 101 -41 207
q8 235 131 500q15 11 33 -4q0 -20 -22 -89q-65 -142 -77 -286q-6 -73 23 -153q35 -97 111 -150q84 -58 184 -58q99 0 234 58q130 72 212 209q-15 54 -169 41q-82 10 -97 57q-17 44 -5 109q2 7 8 23q44 121 255 255q-55 19 -156 39q-25 6 -51 6q-51 0 -96 -21
q-23 -36 -52 -92q-8 -14 -20 -14q-11 0 -22 10q-4 19 0 30q10 43 22 77q27 82 56 107q63 54 138 54q31 0 66 -8q182 -38 403 -38q48 0 92 2q24 -4 24 -28q0 -10 -4 -21zM929 972q-12 -49 -102 -168q-33 23 -133 86q11 49 96 163q82 -44 139 -81z" />
    <glyph glyph-name="tchehinitial_alefmaksurafinal.liga" unicode="&#xfb7c;&#xfef0;" horiz-adv-x="1242" 
d="M1233 647q-15 -38 -64 -117l-138 -26q-172 -50 -360 -206q-37 -31 -34 -50q5 -21 35 -23q-6 0 48 2q42 2 73 2q134 0 129 -103q-3 -16 -17 -65l-2 -6q-38 -115 -83 -182q-48 -69 -144 -145q-142 -111 -278 -111q-41 0 -100 12q-173 35 -245 196q-46 101 -42 207
q9 235 132 500q15 11 32 -4q1 -20 -21 -89q-65 -142 -77 -286q-7 -73 22 -153q36 -97 112 -150q84 -58 184 -58q98 0 233 58q130 72 213 209q-15 54 -170 41q-82 10 -96 57q-18 44 -5 109q2 7 7 23q44 121 256 255q-56 19 -157 39q-24 6 -50 6q-52 0 -97 -21
q-23 -36 -51 -92q-8 -14 -21 -14q-10 0 -22 10q-3 19 0 30q11 43 22 77q28 82 56 107q64 54 138 54q31 0 67 -8q181 -38 403 -38q47 0 91 2q25 -4 25 -28q0 -10 -4 -21zM1226 -162q-12 -49 -102 -168q-33 23 -133 86q11 49 96 163q82 -44 139 -81zM1039 -203
q-12 -49 -102 -168q-33 24 -132 86q10 49 96 163q81 -44 138 -81zM1159 -431q-12 -49 -102 -168q-33 23 -133 85q11 50 96 164q82 -82 139 -81z" />
    <glyph glyph-name="seeninitial_alefmaksurafinal.liga" unicode="&#xfeb3;&#xfef0;" horiz-adv-x="1496" 
d="M1470 453q-23 -102 -50 -139q-8 -12 -31 -31q-118 -5 -184 85q-15 23 -42 57q-23 -55 -68 -127q-12 -11 -49 -7q-29 2 -71 36q-39 30 -56 58l-38 46q-10 3 -24 0q-151 -61 -208 -161q-7 -26 20 -37q19 -7 49 -6q42 2 73 2q134 0 129 -103q-3 -16 -17 -65l-2 -6
q-38 -115 -83 -182q-48 -69 -144 -145q-142 -111 -278 -111q-41 0 -100 12q-173 35 -245 196q-45 101 -41 207q8 235 131 500q15 11 33 -4q0 -20 -22 -89q-65 -142 -77 -286q-6 -73 23 -153q35 -97 111 -150q84 -58 184 -58q99 0 234 58q130 72 212 209q-15 54 -169 41
q-82 10 -97 57q-18 44 -5 109q17 63 49 117q77 129 217 192v3q14 6 40 14q8 3 16 5q19 6 36 -19q14 -9 21 -21q18 -24 36 -42q43 -42 78 -47q12 -2 34 0q44 19 81 173q2 2 7 3q9 0 22 -16q28 -89 107 -145q28 -19 52 -19q37 0 57 39q-10 43 -27 113q-4 16 0 35q15 41 50 111
q6 14 12 14q3 -1 5 -5q26 -52 26 -170q0 -74 -17 -148z" />
    <glyph glyph-name="sheeninitial_alefmaksurafinal.liga" unicode="&#xfeb7;&#xfef0;" horiz-adv-x="1483" 
d="M1464 453q-23 -102 -50 -139q-8 -12 -31 -31q-118 -5 -184 85q-15 23 -42 57q-23 -55 -68 -127q-12 -11 -49 -7q-30 2 -72 36q-38 30 -55 58l-39 46q-10 3 -23 0q-151 -61 -208 -161q-8 -26 20 -37q18 -7 49 -6q42 2 73 2q134 0 129 -103q-3 -16 -17 -65l-2 -6
q-38 -115 -83 -182q-48 -69 -144 -145q-142 -111 -278 -111q-41 0 -100 12q-173 35 -245 196q-46 101 -42 207q9 235 132 500q15 11 32 -4q1 -20 -21 -89q-65 -142 -77 -286q-7 -73 22 -153q36 -97 112 -150q84 -58 184 -58q98 0 233 58q130 72 213 209q-15 54 -170 41
q-82 10 -96 57q-18 44 -5 109q17 63 49 117q77 129 217 192l-1 3q15 6 41 14q8 3 15 5q20 6 36 -19q15 -9 22 -21q18 -24 36 -42q43 -42 78 -47q12 -2 34 0q43 19 80 173q3 2 7 3q10 0 23 -16q28 -89 106 -145q29 -19 53 -19q37 0 57 39q-11 43 -27 113q-4 16 -1 35
q16 41 51 111q6 14 11 14q4 -1 6 -5q26 -52 26 -170q0 -74 -17 -148zM1238 1129q-12 -49 -102 -168q-33 23 -133 86q11 49 96 163q82 -44 139 -81zM1398 905q-13 -49 -102 -168q-34 23 -133 85q11 49 96 163q81 -43 139 -80zM1141 864q-13 -49 -102 -168q-34 23 -133 85
q10 50 96 164q81 -44 139 -81z" />
    <glyph glyph-name="qafinitial_alefmaksurafinal.liga" unicode="&#xfed7;&#xfef0;" horiz-adv-x="929" 
d="M917 168q1 -15 -10 -66l-4 -10q-37 -117 -81 -182q-47 -69 -143 -145q-142 -111 -278 -111q-41 0 -100 12q-172 35 -242 186q-43 93 -40 197q9 236 129 417q15 11 32 -4q1 -19 -21 -89q-43 -94 -47 -104q-19 -53 -19 -113q0 -185 121 -269q84 -58 184 -58q99 0 234 58
q121 67 202 192q2 7 2 14q0 48 -93 45l-121 3q3 0 -58 1q-24 0 -31 10q-5 7 -2 28q23 90 48 101l24 2q5 1 8 1q92 14 104 21t28 49q7 22 7 47q0 54 -31 110q-58 -22 -107 -22q-81 0 -97 65q-7 25 -7 57q0 58 21 124q18 57 37 78q32 22 71 22q69 0 123 -80q52 -76 52 -216
q0 -87 -19 -174q-2 -12 -24 -75q-8 -15 15 -19q15 1 72 -10q66 -20 61 -93zM855 1056q-13 -49 -102 -168q-34 24 -133 86q11 49 96 163q81 -44 139 -81zM598 1016q-13 -50 -102 -169q-34 24 -133 86q11 49 96 163q81 -43 139 -80z" />
    <glyph glyph-name="qafinitial_yehfinal.liga" unicode="&#xfed7;&#xfef2;" horiz-adv-x="929" 
d="M917 168q1 -15 -10 -66l-4 -10q-37 -117 -81 -182q-47 -69 -143 -145q-142 -111 -278 -111q-41 0 -100 12q-172 35 -242 186q-43 93 -40 197q9 236 129 417q15 11 32 -4q1 -19 -21 -89q-43 -94 -47 -104q-19 -53 -19 -113q0 -185 121 -269q84 -58 184 -58q99 0 234 58
q121 67 202 192q2 7 2 14q0 48 -93 45l-121 3q3 0 -58 1q-24 0 -31 10q-5 7 -2 28q23 90 48 101l24 2q5 1 8 1q92 14 104 21t28 49q7 22 7 47q0 54 -31 110q-58 -22 -107 -22q-81 0 -97 65q-7 25 -7 57q0 58 21 124q18 57 37 78q32 22 71 22q69 0 123 -80q52 -76 52 -216
q0 -87 -19 -174q-2 -12 -24 -75q-8 -15 15 -19q15 1 72 -10q66 -20 61 -93zM840 1050q-13 -49 -102 -168q-34 24 -133 86q11 49 96 163q81 -44 139 -81zM583 1010q-13 -50 -102 -169q-34 24 -133 86q11 49 96 163q81 -43 139 -80zM684 -424q-11 -44 -91 -152q-31 22 -120 78
q10 44 86 146q73 -39 125 -72zM453 -460q-12 -45 -92 -152q-30 21 -119 77q10 44 86 147q73 -39 125 -72z" />
    <glyph glyph-name="jeemmedial_farsiyehfinal.liga" unicode="&#xfea0;&#xfbfd;" horiz-adv-x="1242" 
d="M1162 -128q-13 -49 -102 -168q-34 24 -133 86q11 49 96 163q81 -44 139 -81zM1314 344q-26 -76 -72 -76h-66q-49 37 -106 98q-10 33 -15 58q-20 62 -32 62q-4 0 -11 -3q-162 -53 -338 -199q-37 -31 -34 -50q5 -21 35 -23q-6 0 48 2q42 2 73 2q134 0 129 -103
q-3 -16 -17 -65l-2 -6q-38 -115 -83 -182q-48 -69 -144 -145q-142 -111 -278 -111q-41 0 -100 12q-173 35 -245 196q-45 101 -42 207q9 235 132 500q15 11 32 -4q1 -20 -21 -89q-65 -142 -77 -286q-7 -73 22 -153q36 -97 112 -150q84 -58 184 -58q98 0 233 58
q131 72 213 209q-15 54 -169 41q-83 10 -97 57q-18 44 -5 109q2 7 7 23q45 121 256 255q-56 19 -157 39q-24 6 -50 6q-52 0 -97 -21q-23 -36 -51 -92q-8 -14 -21 -14q-10 0 -21 10q-4 19 -1 30q11 43 22 77q28 82 56 107q64 54 138 54q31 0 67 -8q181 -38 403 -38q47 0 91 2
q25 -4 25 -28q0 -10 -4 -21q-15 -38 -64 -117q-27 0 -66 -20q18 -20 60 -40q38 -17 57 -19q11 -1 19 1q50 3 72 -94z" />
    <glyph glyph-name="hahmedial_alefmaksurafinal.liga" unicode="&#xfea4;&#xfef0;" horiz-adv-x="1242" 
d="M1314 355q-26 -76 -72 -76h-66q-49 37 -106 98q-10 33 -15 58q-20 62 -32 62q-4 0 -11 -3q-162 -53 -338 -199q-37 -31 -34 -50q5 -21 35 -23q-6 0 48 2q42 2 73 2q134 0 129 -103q-3 -16 -17 -65l-2 -6q-38 -115 -83 -182q-48 -69 -144 -145q-142 -111 -278 -111
q-41 0 -100 12q-173 35 -245 196q-45 101 -42 207q9 235 132 500q15 11 32 -4q1 -20 -21 -89q-65 -142 -77 -286q-7 -73 22 -153q36 -97 112 -150q84 -58 184 -58q98 0 233 58q131 72 213 209q-15 54 -169 41q-83 10 -97 57q-18 44 -5 109q2 7 7 23q45 121 256 255
q-56 19 -157 39q-24 6 -50 6q-52 0 -97 -21q-23 -36 -51 -92q-8 -14 -21 -14q-10 0 -21 10q-4 19 -1 30q11 43 22 77q28 82 56 107q64 54 138 54q31 0 67 -8q181 -38 403 -38q47 0 91 2q25 -4 25 -28q0 -10 -4 -21q-15 -38 -64 -117q-27 0 -66 -20q18 -20 60 -40
q38 -17 57 -19q11 -1 19 1q50 3 72 -94z" />
    <glyph glyph-name="khahmedial_alefmaksurafinal.liga" unicode="&#xfea8;&#xfef0;" horiz-adv-x="1229" 
d="M904 951q-12 -49 -102 -168q-33 23 -133 86q11 49 96 163q82 -44 139 -81zM1314 349q-26 -76 -72 -76h-66q-49 37 -106 98q-10 33 -15 58q-20 62 -32 62q-4 0 -11 -3q-162 -53 -338 -199q-37 -31 -34 -50q5 -21 35 -23q-6 0 48 2q42 2 73 2q134 0 129 -103
q-3 -16 -17 -65l-2 -6q-38 -115 -83 -182q-48 -69 -144 -145q-142 -111 -278 -111q-41 0 -100 12q-173 35 -245 196q-45 101 -42 207q9 235 132 500q15 11 32 -4q1 -20 -21 -89q-65 -142 -77 -286q-7 -73 22 -153q36 -97 112 -150q84 -58 184 -58q98 0 233 58
q131 72 213 209q-15 54 -169 41q-83 10 -97 57q-18 44 -5 109q2 7 7 23q45 121 256 255q-56 19 -157 39q-24 6 -50 6q-52 0 -97 -21q-23 -36 -51 -92q-8 -14 -21 -14q-10 0 -21 10q-4 19 -1 30q11 43 22 77q28 82 56 107q64 54 138 54q31 0 67 -8q181 -38 403 -38q47 0 91 2
q25 -4 25 -28q0 -10 -4 -21q-15 -38 -64 -117q-27 0 -66 -20q18 -20 60 -40q38 -17 57 -19q11 -1 19 1q50 3 72 -94z" />
    <glyph glyph-name="tchehmedial_alefmaksurafinal.liga" unicode="&#xfb7d;&#xfef0;" horiz-adv-x="1242" 
d="M1226 -171q-12 -49 -102 -168q-33 23 -133 86q11 49 96 163q82 -44 139 -81zM1314 349q-26 -76 -72 -76h-66q-49 37 -106 98q-10 33 -15 58q-20 62 -32 62q-4 0 -11 -3q-162 -53 -338 -199q-37 -31 -34 -50q5 -21 35 -23q-6 0 48 2q42 2 73 2q134 0 129 -103
q-3 -16 -17 -65l-2 -6q-38 -115 -83 -182q-48 -69 -144 -145q-142 -111 -278 -111q-41 0 -100 12q-173 35 -245 196q-45 101 -42 207q9 235 132 500q15 11 32 -4q1 -20 -21 -89q-65 -142 -77 -286q-7 -73 22 -153q36 -97 112 -150q84 -58 184 -58q98 0 233 58
q131 72 213 209q-15 54 -169 41q-83 10 -97 57q-18 44 -5 109q2 7 7 23q45 121 256 255q-56 19 -157 39q-24 6 -50 6q-52 0 -97 -21q-23 -36 -51 -92q-8 -14 -21 -14q-10 0 -21 10q-4 19 -1 30q11 43 22 77q28 82 56 107q64 54 138 54q31 0 67 -8q181 -38 403 -38q47 0 91 2
q25 -4 25 -28q0 -10 -4 -21q-15 -38 -64 -117q-27 0 -66 -20q18 -20 60 -40q38 -17 57 -19q11 -1 19 1q50 3 72 -94zM1039 -212q-12 -49 -102 -168q-33 24 -132 86q10 49 96 163q81 -44 138 -81zM1159 -440q-12 -49 -102 -168q-33 23 -133 85q11 50 96 164q82 -82 139 -81z
" />
    <glyph glyph-name="qafmedial_alefmaksurafinal.liga" unicode="&#xfed8;&#xfef0;" horiz-adv-x="1182" 
d="M1108 1141q-12 -49 -102 -168q-33 23 -133 85q11 49 96 163q82 -43 139 -80zM880 1100q-12 -49 -102 -168q-33 23 -133 85q11 50 96 164q82 -44 139 -81zM1254 330q-26 -76 -72 -76q-9 -1 -79 5q-73 6 -79 7q-98 2 -181 52q-77 -10 -170 -34q-37 -31 -34 -50
q5 -21 35 -23q-6 0 48 2q42 2 73 2q134 0 129 -103q-3 -16 -17 -65l-2 -6q-38 -115 -83 -182q-48 -69 -144 -145q-142 -111 -278 -111q-41 0 -100 12q-173 35 -245 196q-45 101 -42 207q9 235 132 500q15 11 32 -4q1 -20 -21 -89q-65 -142 -77 -286q-7 -73 22 -153
q36 -97 112 -150q84 -58 184 -58q98 0 233 58q131 72 213 209q-15 54 -169 41q-83 10 -97 57q-31 77 2 132q71 116 170 163q-28 70 -28 152q0 170 76 254q46 50 117 50q57 0 114 -29q77 -67 77 -174q0 -119 -90 -256q23 -14 78 -14q45 1 89 3q50 1 72 -94zM1006 623
q-51 82 -113 82q-57 0 -95 -50q-14 -19 -11 -35q20 -88 86 -126l11 5q124 64 124 115q0 5 -2 9z" />
    <glyph glyph-name="fehmedial_alefmaksurafinal.liga" unicode="&#xfed4;&#xfef0;" horiz-adv-x="1182" 
d="M1005 1154q-12 -49 -102 -168q-33 23 -133 85q11 49 96 163q82 -43 139 -80zM1254 341q-26 -76 -72 -76q-9 -1 -79 5q-73 6 -79 7q-98 2 -181 52q-77 -10 -170 -34q-37 -31 -34 -50q5 -21 35 -23q-6 0 48 2q42 2 73 2q134 0 129 -103q-3 -16 -17 -65l-2 -6
q-38 -115 -83 -182q-48 -69 -144 -145q-142 -111 -278 -111q-41 0 -100 12q-173 35 -245 196q-45 101 -42 207q9 235 132 500q15 11 32 -4q1 -20 -21 -89q-65 -142 -77 -286q-7 -73 22 -153q36 -97 112 -150q84 -58 184 -58q98 0 233 58q131 72 213 209q-15 54 -169 41
q-83 10 -97 57q-31 77 2 132q71 116 170 163q-28 70 -28 152q0 170 76 254q46 50 117 50q57 0 114 -29q77 -67 77 -174q0 -119 -90 -256q23 -14 78 -14q45 1 89 3q50 1 72 -94zM1006 634q-51 82 -113 82q-57 0 -95 -50q-14 -19 -11 -35q20 -88 86 -126l11 5q124 64 124 115
q0 5 -2 9z" />
    <glyph glyph-name="meemmedial_alefmaksurafinal.liga" unicode="&#xfee4;&#xfef0;" horiz-adv-x="1415" 
d="M1498 338q-26 -76 -72 -76q-53 3 -138 25q-24 17 -45 35q-51 43 -73 83l-49 -99q-12 -16 -29 -7q-67 18 -135 36q-126 36 -151 62q-36 -19 -133 -108q-37 -31 -33 -50q4 -21 35 -23q-7 0 47 2q42 2 74 2q134 0 129 -103q-4 -16 -18 -65l-2 -6q-38 -115 -83 -182
q-48 -69 -144 -145q-142 -111 -278 -111q-41 0 -100 12q-172 35 -245 196q-45 101 -41 207q8 235 132 500q15 11 32 -4q1 -20 -22 -89q-64 -142 -77 -286q-6 -73 23 -153q35 -97 111 -150q84 -58 184 -58q99 0 234 58q130 72 212 209q-15 54 -169 41q-82 10 -97 57
q-17 44 -5 109q2 7 8 23q56 101 111 149q47 35 95 71q69 112 132 173q59 62 118 62q47 0 87 -38q26 -24 91 -140q23 -61 120 -114q43 -10 92.5 -9.5t71.5 -95.5zM1106 461q1 0 1 2q0 18 -26 57q-32 48 -71 54q-63 5 -103 -40z" />
    <glyph glyph-name="seenmedial_alefmaksurafinal.liga" unicode="&#xfeb4;&#xfef0;" horiz-adv-x="1753" 
d="M1852 343q-26 -76 -72 -76q-52 -5 -150 36q-121 52 -165 135l-13 -48q-44 -95 -63 -110q-118 -5 -184 85q-15 23 -42 57q-23 -55 -68 -127q-12 -11 -49 -7q-29 2 -71 36q-39 30 -56 58l-38 46q-10 3 -24 0q-151 -61 -208 -161q-7 -26 20 -37q19 -7 49 -6q42 2 73 2
q134 0 129 -103q-3 -16 -17 -65l-2 -6q-38 -115 -83 -182q-48 -69 -144 -145q-142 -111 -278 -111q-41 0 -100 12q-173 35 -245 196q-45 101 -41 207q8 235 131 500q15 11 33 -4q0 -20 -22 -89q-65 -142 -77 -286q-6 -73 23 -153q35 -97 111 -150q84 -58 184 -58
q99 0 234 58q130 72 212 209q-15 54 -169 41q-82 10 -97 57q-18 44 -5 109q17 63 49 117q77 129 217 192v3q14 6 40 14q8 3 16 5q19 6 36 -19q14 -9 21 -21q18 -24 36 -42q43 -43 78 -47q12 -2 34 0q44 19 81 173q2 2 7 3q9 0 22 -16q28 -89 59 -98q19 -32 94 -76
q22 -7 31 -3q2 1 3 2q44 18 83 172q9 8 23 -6q1 0 2.5 -2.5t4.5 -5.5l3 -11l-2 -7q22 -51 121 -102q90 -46 153 -51q50 2 72 -94z" />
    <glyph glyph-name="sheenmedial_alefmaksurafinal.liga" unicode="&#xfeb8;&#xfef0;" horiz-adv-x="1753" 
d="M1279 1071q-12 -49 -102 -168q-33 23 -132 85q10 49 96 163q81 -43 138 -80zM1433 859q-12 -49 -102 -168q-33 23 -133 86q11 49 96 163q82 -44 139 -81zM1176 818q-12 -49 -102 -168q-33 24 -133 86q11 49 96 163q82 -43 139 -81zM1852 337q-26 -76 -72 -76
q-52 -5 -150 36q-121 52 -165 135l-13 -48q-44 -95 -63 -110q-118 -5 -184 85q-15 23 -42 57q-23 -55 -68 -127q-12 -11 -49 -7q-29 2 -71 36q-39 30 -56 58l-38 46q-10 3 -24 0q-151 -61 -208 -161q-7 -26 20 -37q19 -7 49 -6q42 2 73 2q134 0 129 -103q-3 -16 -17 -65
l-2 -6q-38 -115 -83 -182q-48 -69 -144 -145q-142 -111 -278 -111q-41 0 -100 12q-173 35 -245 196q-45 101 -41 207q8 235 131 500q15 11 33 -4q0 -20 -22 -89q-65 -142 -77 -286q-6 -73 23 -153q35 -97 111 -150q84 -58 184 -58q99 0 234 58q130 72 212 209
q-15 54 -169 41q-82 10 -97 57q-18 44 -5 109q17 63 49 117q77 129 217 192v3q14 6 40 14q8 3 16 5q19 6 36 -19q14 -9 21 -21q18 -24 36 -42q43 -43 78 -47q12 -2 34 0q44 19 81 173q2 2 7 3q9 0 22 -16q28 -89 59 -98q19 -32 94 -76q22 -7 31 -3q2 1 3 2q44 18 83 172
q9 8 23 -6q1 0 2.5 -2.5t4.5 -5.5l3 -11l-2 -7q22 -51 121 -102q90 -46 153 -51q50 2 72 -94z" />
    <glyph glyph-name="ainmedial_alefmaksurafinal.liga" unicode="&#xfecc;&#xfef0;" horiz-adv-x="1164" 
d="M1236 349q-7 -21 -17 -37q-24 -37 -55 -39q-134 13 -239 99q-28 28 -44 28q-15 0 -63 -29q-90 -54 -151 -87q-37 -31 -33 -50q4 -21 35 -23q-7 0 47 2q42 2 74 2q134 0 129 -103q-4 -16 -18 -65l-2 -6q-38 -115 -83 -182q-48 -69 -144 -145q-142 -111 -278 -111
q-41 0 -100 12q-172 35 -245 196q-45 101 -41 207q8 235 132 500q15 11 32 -4q1 -20 -22 -89q-64 -142 -77 -286q-6 -73 23 -153q35 -97 111 -150q84 -58 184 -58q99 0 234 58q130 72 212 209q-15 54 -169 41q-82 10 -97 57q-17 44 -5 109q2 8 8 23q75 114 276 214
q-40 53 -104 69q-3 1 -66 6q-12 1 -29 2q-24 7 -7 61q25 106 57 120q101 29 225 23q125 -6 162 -26q28 -15 28 -56q0 -26 -12 -62q-19 -59 -67 -141q60 -36 127 -42q50 2 72 -94z" />
    <glyph glyph-name="ghainmedial_alefmaksurafinal.liga" unicode="&#xfed0;&#xfef0;" horiz-adv-x="1164" 
d="M1025 1036q-12 -49 -102 -168q-33 23 -133 86q11 49 96 163q82 -44 139 -81zM1236 360q-7 -21 -17 -37q-24 -37 -55 -39q-134 13 -239 99q-28 28 -44 28q-15 0 -63 -29q-90 -54 -151 -87q-37 -31 -33 -50q4 -21 35 -23q-7 0 47 2q42 2 74 2q134 0 129 -103
q-4 -16 -18 -65l-2 -6q-38 -115 -83 -182q-48 -69 -144 -145q-142 -111 -278 -111q-41 0 -100 12q-172 35 -245 196q-45 101 -41 207q8 235 132 500q15 11 32 -4q1 -20 -22 -89q-64 -142 -77 -286q-6 -73 23 -153q35 -97 111 -150q84 -58 184 -58q99 0 234 58
q130 72 212 209q-15 54 -169 41q-82 10 -97 57q-17 44 -5 109q2 8 8 23q75 114 276 214q-40 53 -104 69q-3 1 -66 6q-12 1 -29 2q-24 7 -7 61q25 106 57 120q101 29 225 23q125 -6 162 -26q28 -15 28 -56q0 -26 -12 -62q-19 -59 -67 -141q60 -36 127 -42q50 2 72 -94z" />
    <glyph glyph-name="hehmedial_alefmaksurafinal.liga" unicode="&#xfeec;&#xfef0;" horiz-adv-x="1250" 
d="M1231 282q12 -1 20 1q50 3 72 -94q-26 -76 -72 -76h-66q-49 37 -106 98q-5 21 -15 58q-14 56 -18 62q-142 9 -246 42q-42 -23 -123 -78q-37 -31 -33 -50q4 -21 34 -23q-6 0 48 2q42 2 73 2q134 0 129 -103q-3 -16 -17 -65l-2 -6q-38 -115 -83 -182q-48 -69 -144 -145
q-142 -111 -278 -111q-41 0 -100 12q-173 35 -245 196q-45 101 -42 207q9 235 132 500q15 11 32 -4q1 -20 -21 -89q-65 -142 -77 -286q-6 -73 22 -153q36 -97 112 -150q84 -58 184 -58q98 0 234 58q130 72 212 209q-15 54 -169 41q-83 10 -97 57q-18 44 -5 109q2 7 8 23
q25 70 113 149q-17 8 -36 19q-42 33 -42 108q0 33 10 72q18 58 43 107q60 116 141 166l27 110q10 22 20 22q8 0 14 -18q28 -79 130 -166q31 -25 115 -100q110 -106 110 -195q0 -16 -3 -32q-16 -101 -56 -163q-7 -10 -49 -30q54 -47 110 -53zM1133 503q11 0 -3 13
q-32 51 -110 118q-26 23 -49 38q-7 -22 -27 -85q-11 -33 -28 -68q87 -18 217 -16zM898 631q5 43 -17 82t-45 41q-86 9 -126 -101q-2 -9 -6 -35q-2 -11 9 -20q43 -29 111 -50q58 32 74 83z" />
    <glyph glyph-name="tahmedial_alefmaksurafinal.liga" unicode="&#xfec4;&#xfef0;" horiz-adv-x="1340" 
d="M1429 354q-26 -76 -72 -76q-74 0 -182 22t-205 22q-35 0 -74 -2q-195 -25 -254 -49q-12 -17 -10 -26q4 -21 34 -23q-6 0 48 2q42 2 73 2q134 0 129 -103q-3 -16 -17 -65l-2 -6q-38 -115 -83 -182q-48 -69 -144 -145q-142 -111 -278 -111q-41 0 -100 12q-173 35 -245 196
q-45 101 -41 207q8 235 131 500q15 11 33 -4q0 -20 -22 -89q-65 -142 -77 -286q-6 -73 23 -153q35 -97 111 -150q84 -58 184 -58q99 0 234 58q130 72 212 209q-15 54 -169 41q-82 10 -97 57q-18 44 -5 109q4 15 10 30q53 94 87 174q17 62 15 147q-3 113 -15 299l-24 309
q-2 20 -2 41q0 81 25 155q6 14 11 22q14 14 19 0q9 -25 26 -70q54 -132 51 -170q-11 -18 -34 -65q1 -4 14 -160q13 -148 10 -210q-2 -43 -8 -119q81 88 213 89q38 6 81 6q225 0 225 -151q0 -32 -10 -69q-8 -25 -46 -81q115 8 126 7t19 1q50 3 72 -94zM1168 511
q-59 73 -227 74q-213 9 -273 -203q69 43 313 55q103 -1 169 34q38 15 18 40z" />
    <glyph glyph-name="zahmedial_alefmaksurafinal.liga" unicode="&#xfec8;&#xfef0;" horiz-adv-x="1340" 
d="M1132 1028q-12 -49 -102 -168q-33 23 -133 86q11 49 96 163q82 -44 139 -81zM1168 511q-59 73 -227 74q-213 9 -273 -203q69 43 313 55q103 -1 169 34q38 15 18 40zM1429 354q-26 -76 -72 -76q-74 0 -182 22t-205 22q-35 0 -74 -2q-195 -25 -254 -49q-12 -17 -10 -26
q4 -21 34 -23q-6 0 48 2q42 2 73 2q134 0 129 -103q-3 -16 -17 -65l-2 -6q-38 -115 -83 -182q-48 -69 -144 -145q-142 -111 -278 -111q-41 0 -100 12q-173 35 -245 196q-45 101 -41 207q8 235 131 500q15 11 33 -4q0 -20 -22 -89q-65 -142 -77 -286q-6 -73 23 -153
q35 -97 111 -150q84 -58 184 -58q99 0 234 58q130 72 212 209q-15 54 -169 41q-82 10 -97 57q-18 44 -5 109q4 15 10 30q53 94 87 174q17 62 15 147q-3 113 -15 299l-24 309q-2 20 -2 41q0 81 25 155q6 14 11 22q14 14 19 0q9 -25 26 -70q54 -132 51 -170q-11 -18 -34 -65
q1 -4 14 -160q13 -148 10 -210q-2 -43 -8 -119q81 88 213 89q38 6 81 6q225 0 225 -151q0 -32 -10 -69q-8 -25 -46 -81q115 8 126 7t19 1q50 3 72 -94z" />
    <glyph glyph-name="sadmedial_alefmaksurafinal.liga" unicode="&#xfebc;&#xfef0;" horiz-adv-x="1810" 
d="M1883 344q-25 -76 -72 -76h-66q-80 5 -294 37q-7 -4 -279 -37q-4 -12 -16 -81q-19 -34 -37 -34q-13 0 -24 19q1 12 4 37q1 13 8 63q-113 12 -145 42q-48 45 -65 108q-4 17 -13 19q-8 1 -29 -8q-150 -60 -207 -160q-8 -26 20 -37q18 -7 49 -6q42 2 73 2q134 0 129 -103
q-4 -16 -17 -65l-2 -6q-38 -115 -83 -182q-48 -69 -144 -145q-142 -111 -278 -111q-41 0 -100 12q-173 35 -245 196q-46 101 -42 207q8 235 132 500q15 11 32 -4q1 -20 -21 -89q-65 -142 -77 -286q-7 -73 22 -153q36 -97 112 -150q84 -58 184 -58q98 0 233 58
q130 72 213 209q-15 54 -170 41q-82 10 -96 57q-18 44 -5 109q68 331 321 331q32 0 41 -29q61 -115 214 -120q59 227 150 307.5t232 80.5q58 0 120 -16q26 -9 47 -21q50 -29 70 -69q4 -29 2 -47q-15 -165 -89 -253q101 -7 136 5q50 2 72 -94zM1668 594q-86 73 -237 68
q-193 0 -231 -213q372 0 468 145z" />
    <glyph glyph-name="dadmedial_alefmaksurafinal.liga" unicode="&#xfec0;&#xfef0;" horiz-adv-x="1810" 
d="M1560 1062q-12 -49 -102 -168q-33 23 -132 86q10 49 96 163q81 -44 138 -81zM1883 327q-25 -76 -72 -76h-66q-80 5 -294 37q-7 -4 -279 -37q-4 -12 -16 -81q-19 -34 -37 -34q-13 0 -24 19q1 12 4 37q1 13 8 63q-113 12 -145 42q-48 45 -65 108q-4 17 -13 19q-8 1 -29 -8
q-150 -60 -207 -160q-8 -26 20 -37q18 -7 49 -6q42 2 73 2q134 0 129 -103q-4 -16 -17 -65l-2 -6q-38 -115 -83 -182q-48 -69 -144 -145q-142 -111 -278 -111q-41 0 -100 12q-173 35 -245 196q-46 101 -42 207q8 235 132 500q15 11 32 -4q1 -20 -21 -89q-65 -142 -77 -286
q-7 -73 22 -153q36 -97 112 -150q84 -58 184 -58q98 0 233 58q130 72 213 209q-15 54 -170 41q-82 10 -96 57q-18 44 -5 109q68 331 321 331q32 0 41 -29q61 -115 214 -120q59 227 150 307.5t232 80.5q58 0 120 -16q26 -9 47 -21q50 -29 70 -69q4 -29 2 -47
q-15 -165 -89 -253q101 -7 136 5q50 2 72 -94zM1668 577q-86 73 -237 68q-193 0 -231 -213q372 0 468 145z" />
    <glyph glyph-name="kehehmedial_alefmaksurafinal.liga" unicode="&#xfb91;&#xfef0;" horiz-adv-x="1389" 
d="M1482 331q-14 -58 -72 -76q-7 0 -71 5q-106 8 -159 36q-76 40 -121 90q-28 34 -90 129q-68 -80 -134 -128q-43 -31 -168 -103q-7 -4 -20 -20q-15 -20 -13 -30q4 -21 35 -23q-7 0 47 2q42 2 74 2q134 0 129 -103q-4 -16 -18 -65l-2 -6q-38 -115 -83 -182
q-48 -69 -144 -145q-142 -111 -278 -111q-41 0 -100 12q-172 35 -245 196q-45 101 -41 207q8 235 132 500q15 11 32 -4q1 -20 -22 -89q-64 -142 -77 -286q-6 -73 23 -153q35 -97 111 -150q84 -58 184 -58q99 0 234 58q130 72 212 209q-15 54 -169 41q-82 10 -97 57
q-17 44 -5 109q2 8 8 23q51 87 120 141q43 34 47 34q-3 0 -9 -1q47 18 159 90q9 11 19 39q1 15 -16 42q-44 68 -145 195q-76 92 -88 101q-13 46 -6 79q9 58 23 121q14 70 68 100l584 334q7 4 29 20q8 11 18 11q11 0 11 -12q0 -14 -14 -34q-17 -29 -61 -91q-47 -55 -132 -109
q-397 -250 -462 -273q12 -23 79 -107q16 -9 60 -74q93 -123 216 -294q52 -73 144 -118q76 -38 128 -37q14 -4 64 -7q18 -13 32 -28q33 -34 40 -66z" />
    <glyph glyph-name="gafmedial_alefmaksurafinal.liga" unicode="&#xfb95;&#xfef0;" horiz-adv-x="1389" 
d="M1301 1774q-17 -29 -61 -90q-43 -54 -45 -56q-23 -23 -76 -56q-254 -160 -432 -256q-20 -11 -27 -7t2 36q32 82 77 144l518 300q7 5 29 20q9 12 18 12q11 0 11 -13q0 -14 -14 -34zM1482 331q-14 -58 -72 -76q-7 0 -71 5q-106 8 -159 36q-76 40 -121 90q-28 34 -90 129
q-68 -80 -134 -128q-43 -31 -168 -103q-7 -4 -20 -20q-15 -20 -13 -30q4 -21 35 -23q-7 0 47 2q42 2 74 2q134 0 129 -103q-4 -16 -18 -65l-2 -6q-38 -115 -83 -182q-48 -69 -144 -145q-142 -111 -278 -111q-41 0 -100 12q-172 35 -245 196q-45 101 -41 207q8 235 132 500
q15 11 32 -4q1 -20 -22 -89q-64 -142 -77 -286q-6 -73 23 -153q35 -97 111 -150q84 -58 184 -58q99 0 234 58q130 72 212 209q-15 54 -169 41q-82 10 -97 57q-17 44 -5 109q2 8 8 23q51 87 120 141q43 34 47 34q-3 0 -9 -1q47 18 159 90q9 11 19 39q1 15 -16 42
q-44 68 -145 195q-76 92 -88 101q-13 46 -6 79q9 58 23 121q14 70 68 100l584 334q7 4 29 20q8 11 18 11q11 0 11 -12q0 -14 -14 -34q-17 -29 -61 -91q-47 -55 -132 -109q-397 -250 -462 -273q12 -23 79 -107q16 -9 60 -74q93 -123 216 -294q52 -73 144 -118q76 -38 128 -37
q14 -4 64 -7q18 -13 32 -28q33 -34 40 -66z" />
    <glyph glyph-name="noonmedial_zainfinal.liga" unicode="&#xfee8;&#xfeb0;" horiz-adv-x="1133" 
d="M366 804q82 -44 139 -81q-12 -49 -102 -168q-33 24 -133 86q11 49 96 163zM800 1109q82 -44 139 -81q-12 -49 -102 -168q-33 23 -133 86q11 49 96 163zM620 206q-8 -53 -22 -96q-58 -182 -262 -235q-36 -7 -158 -20q-65 -4 -116 4.5t-51 21.5q0 10 34 20q373 109 491 216
q4 2 13 11q8 35 4 72q-4 34 -14 59q-33 87 -50 119q-8 15 -6 34q8 44 32 118q5 16 11 15q3 0 5 -3q18 -25 34 -58q62 -79 136 -86q19 0 36 6q60 32 65 98q-6 39 -14 82q-3 15 25 105q12 38 25 27q19 -33 89 -347q34 -153 165 -190q8 -1 22 -6q11 -3 19 -3q50 1 72 -94
q-7 -22 -17 -38q-24 -38 -55 -38q-42 0 -59 4q-81 21 -141 94q-57 66 -106 284l-9 -39q3 -6 -13 -39q-22 -47 -71 -68q-23 -11 -49 -11q-28 0 -62 16q0 -8 -1 -23l-1 -12h-1z" />
    <glyph glyph-name="tatweel_tatweel.liga" unicode="&#x640;&#x640;" horiz-adv-x="930" 
d="M437 135q231 0 496 40q78 -30 78 -60q0 -29 -74 -110q-269 -47 -522 -47q-231 0 -415 42q-68 34 -68 83q0 24 24.5 59t46.5 37q193 -44 434 -44z" />
    <glyph glyph-name="alefwaslaisolated" unicode="&#x671;" arabic-form="isolated" 
 />
    <glyph glyph-name="alefwaslafinal" unicode="&#x671;" horiz-adv-x="446" arabic-form="final" 
d="M415 1521q0 -61 -54 -102q-49 -38 -112 -38h-161q-30 0 -30 -43q0 -26 1 -34l1 -1q-1 -4 -1 1q-46 47 -46 96q0 64 74 64h23q114 154 226 154q79 0 79 -97zM328 1522q0 37 -31 37q-53 0 -135 -95h79q87 0 87 58zM525 78q-11 -22 -25 -37q-31 -38 -66 -41q-76 -6 -95 0
q-47 16 -85 46q-89 73 -117 203q-7 31 -28 208l-45 710q-4 65 51 145q30 44 56 49q76 -34 120 -109q-9 -38 -47 -38q-14 0 -27 5q-23 18 -39 18q-28 0 -28 -62q0 -29 6 -63l48 -643q8 -113 49 -182q55 -91 121 -112q17 -2 60 -5q56 -1 91 -92z" />
    <glyph glyph-name="pehisolated" unicode="&#x67e;" arabic-form="isolated" 
 />
    <glyph glyph-name="pehfinal" unicode="&#x67e;" horiz-adv-x="1420" arabic-form="final" 
d="M963 -200q-12 -49 -102 -168q-33 23 -133 86q11 49 96 163q82 -44 139 -81zM706 -241q-12 -49 -102 -168q-33 24 -133 86q11 49 96 163q82 -44 139 -81zM850 -427q-12 -50 -102 -169q-33 24 -132 86q10 49 96 163q81 -43 138 -80zM1450 170v-170h-27q-83 10 -117 25
q-56 24 -77 84q-6 22 -9 45q-16 -32 -75 -61q-173 -87 -399 -130q-50 -10 -173 -20q-60 -5 -115 -5q-262 0 -382 102q-20 18 -35 41q-8 14 -14 29q-22 57 -22 126q0 55 34 174q40 141 79 141q17 0 6 -64q-37 -97 -37 -158q0 -56 30 -104q72 -114 402 -121q402 5 668 152
q11 6 22 23q5 8 10 30q8 30 27 25t11 -35q-1 -7 -4 -18v-6q1 -52 53 -77q31 -14 117 -28h27z" />
    <glyph glyph-name="pehinitial" unicode="&#x67e;" horiz-adv-x="415" arabic-form="initial" 
d="M210 -172q-29 -50 -77 -114q-34 24 -133 86q10 49 96 163q65 -35 117 -67q27 48 72 108q82 -44 139 -81q-12 -49 -102 -168q-29 21 -112 73zM357 -358q-12 -49 -102 -168q-33 23 -133 85q11 50 96 164q82 -44 139 -81zM129 10q-29 -4 -129 -10q-38 -2 -48 90q6 23 13 39
q16 40 35 43q74 -5 129 7q88 19 177 77q-1 38 -9 66q-19 65 -75 193q-6 16 -2 35q12 42 42 115q5 14 11 14q3 -1 5 -4q101 -172 101 -345q0 -29 -4 -56q-6 -39 -28 -100q-25 -71 -46 -89q-25 -16 -51 -30q-63 -33 -121 -45z" />
    <glyph glyph-name="pehmedial" unicode="&#x67e;" horiz-adv-x="415" arabic-form="medial" 
d="M457 74q-33 -74 -42 -74q-54 2 -76 8q-57 15 -91 63q-15 24 -42 58q-16 -55 -84 -92q-59 -33 -122 -37q-20 37 -41 88q-6 82 41 82q9 0 25 -1.5t23 -0.5q112 9 148 92q17 40 26 85q3 2 7 3q10 0 23 -16q27 -90 104 -148q21 -14 58 -14q21 0 43 -96zM204 -216
q-28 -49 -74 -110q-34 24 -133 86q10 49 96 163q60 -32 111 -63q26 47 69 104q82 -44 139 -81q-12 -49 -102 -168q-28 20 -106 69zM365 -386q-12 -49 -102 -168q-33 23 -133 85q11 50 96 164q82 -44 139 -81z" />
    <glyph glyph-name="vehisolated" unicode="&#x6a4;" arabic-form="isolated" 
 />
    <glyph glyph-name="vehfinal" unicode="&#x6a4;" horiz-adv-x="1422" arabic-form="final" 
d="M848 929q-12 -49 -102 -168q-33 23 -132 85q10 49 96 163q81 -43 138 -80zM1005 713q-12 -49 -102 -168q-33 23 -133 86q11 49 96 163q82 -44 139 -81zM748 672q-12 -49 -102 -168q-33 24 -133 86q11 49 96 163q82 -44 139 -81zM1485 78q-52 -78 -63 -78q-108 0 -96 -1
q-159 10 -253 80q-140 -59 -320 -93q-50 -10 -173 -20q-60 -5 -115 -5q-262 0 -382 102q-21 17 -35 40q-9 15 -15 30q-21 57 -21 126q0 55 34 174q40 140 79 140q17 0 6 -63q-38 -97 -38 -158q0 -57 30 -104q73 -114 403 -121q247 3 461 68l-3 4q-21 54 -21 124q0 80 26 161
q23 73 52 105q46 50 117 50q57 0 114 -28q76 -67 76 -174q0 -124 -109 -257q28 -16 60 -18q60 -3 123 8q44 7 63 -92zM1250 368q-51 82 -114 82q-57 0 -94 -50q-14 -19 -12 -34q21 -89 86 -127l11 6q125 63 125 114q0 5 -2 9z" />
    <glyph glyph-name="vehinitial" unicode="&#x6a4;" horiz-adv-x="473" arabic-form="initial" 
d="M342 1129q-12 -50 -102 -169q-33 24 -132 86q10 49 96 163q81 -43 138 -80zM492 913q-12 -49 -102 -168q-33 23 -133 85q11 50 96 164q82 -44 139 -81zM235 872q-12 -49 -102 -168q-33 23 -133 86q11 49 96 163q82 -44 139 -81zM426 208q-7 -33 -15 -50q-3 -9 -19 -29
q-15 -15 -34 -28q-47 -31 -110 -52q-35 -13 -73 -22q-90 -24 -175 -27q-10 0 -28 27.5t-24 56.5q6 87 52 86q33 -1 62 1q256 18 329 92q-10 74 -40 101q-65 -29 -117 -29q-70 0 -90 58q-11 34 -11 80q0 126 44 182q27 25 64 25q59 0 117 -74q86 -110 86 -251q0 -64 -18 -147
z" />
    <glyph glyph-name="vehmedial" unicode="&#x6a4;" horiz-adv-x="576" arabic-form="medial" 
d="M362 1148q-12 -50 -102 -169q-33 24 -132 86q10 49 96 163q81 -43 138 -80zM526 917q-12 -49 -102 -168q-33 23 -133 85q11 50 96 164q82 -44 139 -81zM269 876q-12 -49 -102 -168q-33 23 -133 86q11 49 96 163q82 -44 139 -81zM629 81q-24 -84 -53 -81q-12 1 -38 3
q-59 2 -108 8q-116 15 -164 43q-63 -22 -266 -54q-28 -2 -42 72q6 28 13 49q15 49 29 49q91 2 159 32q-28 70 -28 152q0 169 76 253q46 50 117 50q57 0 114 -28q77 -67 77 -174q0 -120 -90 -257q50 -29 151 -28q32 -2 53 -89zM416 386q-51 82 -113 82q-57 0 -95 -50
q-14 -19 -11 -34q20 -89 86 -127l11 6q124 63 124 114q0 5 -2 9z" />
    <glyph glyph-name="tchehisolated" unicode="&#x686;" arabic-form="isolated" 
 />
    <glyph glyph-name="tchehfinal" unicode="&#x686;" horiz-adv-x="886" arabic-form="final" 
d="M718 117q-12 -49 -102 -168q-33 24 -133 86q11 49 96 163q82 -44 139 -81zM958 276q-26 -76 -72 -76q-157 0 -190 106q-28 89 -15 153q-490 -118 -582 -456q-7 -165 82 -279q127 -165 425 -157h15q83 3 334 27q12 -7 12 -18q0 -19 -39 -41q-71 -36 -135 -63
q-153 -64 -246 -73l1 1q-4 -1 -8 -1q-149 0 -264 56q-239 116 -239 431q0 56 8 117q37 295 339 469q-57 14 -142 15q-13 1 -26 1q-64 0 -120 -29q-14 -11 -43 -96q-7 -16 -21 -16q-10 0 -21 9q-5 18 -2 29q6 44 15 79q20 84 46 111q66 67 157 67q21 0 43 -3q102 -12 231 -12
q140 0 260 17q28 -3 28 -30q0 -8 -3 -18q-11 -38 -53 -122q-2 -2 -22 -7q0 -4 1 -6q36 -96 174 -91q50 2 72 -94zM461 77q-12 -50 -102 -169q-33 24 -133 86q11 49 96 163q82 -43 139 -80zM583 -169q-12 -50 -102 -169q-33 24 -132 86q10 49 96 163q81 -43 138 -80zM836 482
z" />
    <glyph glyph-name="tchehinitial" unicode="&#x686;" horiz-adv-x="816" arabic-form="initial" 
d="M810 298q-12 -23 -75 -142q-38 14 -98 14q-163 0 -369 -99q-83 -40 -199 -64q-33 -7 -69 -7q-47 0 -62 36q-6 16 -5 37q46 97 67 97q17 0 40 1q99 8 169 33q33 11 180 80q-102 60 -248 149q-9 6 -19 6q-30 0 -62 -42q-13 -7 -22 -7q-14 0 -14 20q0 16 8 39q17 31 35 55
q43 57 83 64q55 9 116 -30q96 -56 183 -97q208 -98 337 -103q30 -4 30 -23q0 -8 -6 -17zM682 -34q-13 -49 -102 -169q-34 24 -133 86q10 49 96 163q81 -43 139 -80zM425 -75q-13 -49 -102 -168q-34 23 -133 85q10 50 96 164q81 -44 139 -81zM576 -277q-12 -49 -102 -168
q-33 23 -133 85q11 50 96 164q82 -44 139 -81z" />
    <glyph glyph-name="tchehmedial" unicode="&#x686;" horiz-adv-x="951" arabic-form="medial" 
d="M1035 82q-26 -76 -72 -76q-36 -5 -66 -1q-49 37 -106 99q-10 33 -15 58q-37 11 -93 11q-163 0 -369 -99q-98 -47 -214 -71q-50 -10 -100 -3q-47 0 -62 36q-6 16 -5 37q46 97 67 97q49 -16 99 -16q57 0 156 35q33 11 223 89q-146 96 -291 140q-6 1 -12 1q-35 0 -70 -53
q-14 -9 -22 -9q-13 0 -13 21q0 16 7 39q11 30 27 55q39 60 98 84q45 12 110 -33q106 -67 237 -123q172 -74 283 -77q30 -4 30 -23q0 -8 -6 -18.5t-29 -48.5q18 -19 60 -39q38 -17 57 -19q11 -1 19 1q50 2 72 -94zM731 -35q-13 -49 -102 -169q-34 24 -133 86q10 49 96 163
q81 -43 139 -80zM474 -76q-13 -49 -102 -168q-34 23 -133 85q10 50 96 164q81 -44 139 -81zM611 -285q-12 -49 -102 -168q-33 23 -133 85q11 50 96 164q82 -44 139 -81z" />
    <glyph glyph-name="jehisolated" unicode="&#x698;" arabic-form="isolated" 
 />
    <glyph glyph-name="jehfinal" unicode="&#x698;" horiz-adv-x="803" arabic-form="final" 
d="M584 973q-12 -49 -102 -168q-33 23 -132 85q10 49 96 163q81 -43 138 -80zM741 742q-12 -49 -102 -168q-33 23 -133 86q11 49 96 163q82 -44 139 -81zM484 701q-12 -49 -102 -168q-33 24 -133 86q11 49 96 163q82 -44 139 -81zM854 258q-17 -74 -52 -74q-72 0 -84 6
q-55 8 -93 34l-3 8v-1q-14 -76 -25 -110q-1 -5 -14 -48q-57 -181 -262 -235q-35 -7 -158 -19q-65 -5 -116 4t-51 22q0 9 34 19q344 101 492 216q8 6 19 25q2 29 3 63q1 4 2 7q-34 163 -72 248q9 25 59 110q10 15 18 15q9 0 14 -21q2 -7 14 -36q27 -65 100 -104
q51 -28 87 -31q13 0 38 -2q44 -8 50 -96z" />
    <glyph glyph-name="kehehisolated" unicode="&#x6a9;" arabic-form="isolated" 
 />
    <glyph glyph-name="kehehfinal" unicode="&#x6a9;" horiz-adv-x="1581" arabic-form="final" 
d="M1212 330q-139 270 -170 382q-12 46 -5 78q9 59 23 121q27 87 69 110l583 324q6 5 28 20q9 12 19 12t10 -13q0 -14 -14 -34q-16 -29 -60 -90q-47 -56 -133 -110q-415 -261 -454 -275q71 -144 237 -530q31 -71 107 -116q66 -39 125 -39q50 0 72 -94q-26 -76 -72 -76
q-141 0 -236 118q-42 54 -93 146q-4 -13 -8 -22q-24 -54 -87 -85q-172 -87 -398 -130q-50 -9 -173 -19q-60 -5 -115 -5q-262 0 -382 102q-21 17 -35 40q-9 15 -14 30q-22 57 -22 126q0 54 34 174q40 140 79 140q17 0 6 -63q-37 -97 -37 -158q0 -57 30 -104q72 -114 402 -121
q426 5 684 161z" />
    <glyph glyph-name="kehehinitial" unicode="&#x6a9;" horiz-adv-x="742" arabic-form="initial" 
d="M268 216q5 3 9 7q0 4 -1 7q-60 219 -285 482q-7 6 -17 22q-4 10 -2 25q2 10 11 36q6 17 20 37q19 35 60 61l2 1q50 32 584 231l63 24q12 4 20 4q15 0 15 -13q0 -14 -18 -42q-10 -15 -78 -84q-8 -7 -27 -23q-16 -12 -44.5 -25.5t-200.5 -77.5q-151 -57 -278 -124l-4 -2
q111 -135 182 -275.5t71 -234.5q0 -39 -9 -76q-1 -6 -4 -13q-27 -63 -77 -103q-82 -50 -260 -60q-62 0 -67 73q1 23 8 42q17 44 59 55q149 1 268 46z" />
    <glyph glyph-name="kehehmedial" unicode="&#x6a9;" horiz-adv-x="932" arabic-form="medial" 
d="M1024 83q-13 -54 -92 -83q-35 -6 -81 -6q-139 0 -260 54q-36 20 -68 48q-79 67 -129 166q-4 -79 -13 -171q-12 -33 -36 -48q-73 -45 -261 -45q-40 0 -84 2q-70 0 -67 73q13 28 25 48q28 49 42 49q220 -3 302 23q40 12 40 24q0 6 -4 12q-12 25 -71 118q-67 100 -262 343
l-18 39v4q-6 22 -5 47l-1 13q3 11 11 39l7 23q3 18 50 64l3 2q50 31 704 298l63 24q11 4 20 4q15 0 15 -12q0 -14 -18 -42q-10 -16 -78 -84q-14 -13 -29 -24q-21 -15 -42 -25q-131 -55 -262 -111q-207 -87 -338 -159q-1 0 -8 -4q239 -293 309 -365q46 -55 183 -190
q53 -33 168 -55q122 -8 193 2q24 -15 42 -29q44 -36 50 -66z" />
    <glyph glyph-name="gafisolated" unicode="&#x6af;" arabic-form="isolated" 
 />
    <glyph glyph-name="gaffinal" unicode="&#x6af;" horiz-adv-x="1581" arabic-form="final" 
d="M1212 330q-139 270 -170 382q-12 46 -5 78q9 59 23 121q27 87 69 110l583 324q6 5 28 20q9 12 19 12t10 -13q0 -14 -14 -34q-16 -29 -60 -90q-47 -56 -133 -110q-415 -261 -454 -275q71 -144 237 -530q31 -71 107 -116q66 -39 125 -39q50 0 72 -94q-26 -76 -72 -76
q-141 0 -236 118q-42 54 -93 146q-4 -13 -8 -22q-24 -54 -87 -85q-172 -87 -398 -130q-50 -9 -173 -19q-60 -5 -115 -5q-262 0 -382 102q-21 17 -35 40q-9 15 -14 30q-22 57 -22 126q0 54 34 174q40 140 79 140q17 0 6 -63q-37 -97 -37 -158q0 -57 30 -104q72 -114 402 -121
q426 5 684 161zM1626 1565q7 5 29 20q8 12 18 12q11 0 11 -13q0 -14 -14 -34q-17 -29 -61 -90q-44 -54 -46 -56q-22 -23 -75 -56q-254 -160 -432 -256q-20 -11 -27 -7t2 36q32 82 77 144z" />
    <glyph glyph-name="gafinitial" unicode="&#x6af;" horiz-adv-x="719" arabic-form="initial" 
d="M732 1365q-21 -27 -73 -81q-50 -47 -53 -49q-25 -19 -82 -45q-333 -150 -527 -221q-21 -8 -27 -3q-7 5 6 34q44 77 97 132l618 254q7 3 31 15q9 9 18 9q10 0 10 -11q0 -14 -18 -34zM268 216q5 3 9 7q0 4 -1 7q-60 219 -285 482q-7 6 -17 22q-4 10 -2 25q2 10 11 36
q6 17 20 37q19 35 60 61l2 1q50 32 584 231l63 24q12 4 20 4q15 0 15 -13q0 -14 -18 -42q-10 -15 -78 -84q-8 -7 -27 -23q-16 -12 -44.5 -25.5t-200.5 -77.5q-151 -57 -278 -124l-4 -2q111 -135 182 -275.5t71 -234.5q0 -39 -9 -76q-1 -6 -4 -13q-27 -63 -77 -103
q-82 -50 -260 -60q-62 0 -67 73q1 23 8 42q17 44 59 55q149 1 268 46z" />
    <glyph glyph-name="gafmedial" unicode="&#x6af;" horiz-adv-x="919" arabic-form="medial" 
d="M774 1434q-21 -27 -73 -81q-50 -47 -53 -49q-25 -19 -82 -45q-333 -150 -527 -221q-21 -8 -27 -3q-7 5 6 34q44 77 97 132l618 254q7 3 31 15q9 9 18 9q10 0 10 -11q0 -14 -18 -34zM1024 83q-13 -54 -92 -83q-35 -6 -81 -6q-139 0 -260 54q-36 20 -68 48q-79 67 -129 166
q-4 -79 -13 -171q-12 -33 -36 -48q-73 -45 -261 -45q-40 0 -84 2q-70 0 -67 73q13 28 25 48q28 49 42 49q220 -3 302 23q40 12 40 24q0 6 -4 12q-12 25 -71 118q-67 100 -262 343l-18 39v4q-6 22 -5 47l-1 13q3 11 11 39l7 23q3 18 50 64l3 2q50 31 704 298l63 24q11 4 20 4
q15 0 15 -12q0 -14 -18 -42q-10 -16 -78 -84q-14 -13 -29 -24q-21 -15 -42 -25q-131 -55 -262 -111q-207 -87 -338 -159q-1 0 -8 -4q239 -293 309 -365q46 -55 183 -190q53 -33 168 -55q122 -8 193 2q24 -15 42 -29q44 -36 50 -66z" />
    <glyph glyph-name="farsiyehisolated" unicode="&#x6cc;" arabic-form="isolated" 
 />
    <glyph glyph-name="farsiyehfinal" unicode="&#x6cc;" horiz-adv-x="927" arabic-form="final" 
d="M904 0q-226 18 -242 5q-37 -31 -33 -50q4 -21 35 -23q-7 0 47 2q42 1 74 1q134 0 129 -102q-4 -16 -18 -65l-2 -6q-38 -115 -83 -182q-48 -69 -144 -145q-142 -111 -278 -111q-41 0 -100 12q-172 35 -245 196q-45 101 -41 207q8 235 132 500q15 11 32 -4q1 -20 -22 -90
q-64 -141 -77 -285q-6 -73 23 -153q35 -98 111 -150q84 -58 184 -58q99 0 234 58q130 72 212 209q-15 54 -169 41q-82 10 -97 57q-17 44 -5 109q3 7 8 23q37 101 149 146q74 31 159 31q37 0 27 -3l55 -87z" />
    <glyph glyph-name="behwithmeemisolated" unicode="&#xfc08;" horiz-adv-x="640" arabic-form="isolated" 
d="M593 753q-28 -49 -57 -49q-25 0 -45 35q-3 28 -26 28q-6 0 -14 -2q-39 -5 -75 -16q-88 -27 -154 -83q31 1 56 -10q125 -54 229 -192q-2 -125 -87 -193q-82 -8 -165 -16q-91 -14 -142 -59q28 -123 56 -247q36 -168 46 -337q7 -134 -39 -260q-11 -32 -23 -32q-4 0 -6 4
q-1 0 -2 19q-3 190 -18 299q-8 56 -41 200q-18 66 -35 131q-23 95 -28 180q-1 26 -1 40q0 167 143 235q35 11 75 18q23 5 23 9t-8 15q-24 32 -60 32q-29 0 -67 -20q-54 -37 -58 -37q-15 0 -25 24q-11 40 13 93l2 3q7 25 18 47q152 290 467 324q68 -6 68 -91q0 -52 -20 -92z
M583 35q-12 -49 -102 -168q-33 23 -133 86q11 49 96 163q82 -44 139 -81z" />
    <glyph glyph-name="tehwithmeemisolated" unicode="&#xfc0e;" horiz-adv-x="640" arabic-form="isolated" 
d="M593 753q-28 -49 -57 -49q-25 0 -45 35q-3 28 -26 28q-6 0 -14 -2q-39 -5 -75 -16q-88 -27 -154 -83q31 1 56 -10q125 -54 229 -192q-2 -125 -87 -193q-82 -8 -165 -16q-91 -14 -142 -59q28 -123 56 -247q36 -168 46 -337q7 -134 -39 -260q-11 -32 -23 -32q-4 0 -6 4
q-1 0 -2 19q-3 190 -18 299q-8 56 -41 200q-18 66 -35 131q-23 95 -28 180q-1 26 -1 40q0 167 143 235q35 11 75 18q23 5 23 9t-8 15q-24 32 -60 32q-29 0 -67 -20q-54 -37 -58 -37q-15 0 -25 24q-11 40 13 93l2 3q7 25 18 47q152 290 467 324q68 -6 68 -91q0 -52 -20 -92z
M605 1136q-12 -49 -102 -168q-33 23 -133 86q11 49 96 163q82 -44 139 -81zM407 1102q-12 -49 -102 -168q-33 24 -133 86q11 49 96 163q82 -44 139 -81z" />
    <glyph glyph-name="thehwithmeemisolated" unicode="&#xfc12;" horiz-adv-x="614" arabic-form="isolated" 
d="M593 753q-28 -49 -57 -49q-25 0 -45 35q-3 28 -26 28q-6 0 -14 -2q-39 -5 -75 -16q-88 -27 -154 -83q31 1 56 -10q125 -54 229 -192q-2 -125 -87 -193q-82 -8 -165 -16q-91 -14 -142 -59q28 -123 56 -247q36 -168 46 -337q7 -134 -39 -260q-11 -32 -23 -32q-4 0 -6 4
q-1 0 -2 19q-3 190 -18 299q-8 56 -41 200q-18 66 -35 131q-23 95 -28 180q-1 26 -1 40q0 167 143 235q35 11 75 18q23 5 23 9t-8 15q-24 32 -60 32q-29 0 -67 -20q-54 -37 -58 -37q-15 0 -25 24q-11 40 13 93l2 3q7 25 18 47q152 290 467 324q68 -6 68 -91q0 -52 -20 -92z
M451 1361q-12 -49 -102 -168q-33 23 -132 85q10 49 96 163q81 -43 138 -80zM601 1145q-12 -49 -102 -168q-33 23 -133 86q11 49 96 163q82 -44 139 -81zM344 1104q-12 -49 -102 -168q-33 24 -133 86q11 49 96 163q82 -44 139 -81z" />
    <glyph glyph-name="lamwithjeemisolated" unicode="&#xfc3f;" horiz-adv-x="951" arabic-form="isolated" 
d="M929 -439q12 -7 12 -18q0 -19 -39 -42q-71 -35 -134 -62q-153 -64 -246 -73v1q-4 -1 -8 -1q-149 0 -264 55q-239 117 -239 432q0 55 8 117q37 295 339 468q-57 14 -142 16q-41 4 -71 -1l-35 -1q-58 -6 -110 -14q9 34 37 94q18 34 35 49q37 36 295 100q-5 112 -15 284
l-3 36l-17 216q-2 19 -2 40q0 81 25 156q6 13 11 21q14 14 20 0q8 -25 25 -70q54 -132 51 -170q-11 -18 -34 -65l5 -54l17 -184q5 -61 5 -74q-4 -93 -15 -141q-6 -29 -33 -81q177 -6 329 16q27 -3 27 -31q0 -7 -3 -17q-11 -39 -53 -122q-73 -20 -145 -40q-165 -51 -278 -134
q-162 -119 -211 -297q-7 -166 81 -280q128 -164 426 -156h15q83 2 334 27zM649 -5q-12 -49 -102 -168q-33 23 -133 86q11 49 96 163q82 -44 139 -81z" />
    <glyph glyph-name="lamwithhahisolated" unicode="&#xfc40;" horiz-adv-x="934" arabic-form="isolated" 
d="M929 -439q12 -7 12 -18q0 -19 -39 -42q-71 -35 -134 -62q-153 -64 -246 -73v1q-4 -1 -8 -1q-149 0 -264 55q-239 117 -239 432q0 55 8 117q37 295 339 468q-57 14 -142 16q-41 4 -71 -1l-35 -1q-58 -6 -110 -14q9 34 37 94q18 34 35 49q37 36 295 100q-5 112 -15 284
l-3 36l-17 216q-2 19 -2 40q0 81 25 156q6 13 11 21q14 14 20 0q8 -25 25 -70q54 -132 51 -170q-11 -18 -34 -65l5 -54l17 -184q5 -61 5 -74q-4 -93 -15 -141q-6 -29 -33 -81q177 -6 329 16q27 -3 27 -31q0 -7 -3 -17q-11 -39 -53 -122q-73 -20 -145 -40q-165 -51 -278 -134
q-162 -119 -211 -297q-7 -166 81 -280q128 -164 426 -156h15q83 2 334 27z" />
    <glyph glyph-name="lamwithkhahisolated" unicode="&#xfc41;" horiz-adv-x="951" arabic-form="isolated" 
d="M938 -439q12 -7 12 -18q0 -19 -39 -42q-71 -35 -134 -62q-153 -64 -246 -73v1q-4 -1 -8 -1q-149 0 -264 55q-239 117 -239 432q0 55 8 117q37 295 339 468q-57 14 -142 16q-41 4 -71 -1l-35 -1q-58 -6 -110 -14q9 34 37 94q18 34 35 49q37 36 295 100q-5 112 -15 284
l-3 36l-17 216q-2 19 -2 40q0 81 25 156q6 13 11 21q14 14 20 0q8 -25 25 -70q54 -132 51 -170q-11 -18 -34 -65l5 -54l17 -184q5 -61 5 -74q-4 -93 -15 -141q-6 -29 -33 -81q177 -6 329 16q27 -3 27 -31q0 -7 -3 -17q-11 -39 -53 -122q-73 -20 -145 -40q-165 -51 -278 -134
q-162 -119 -211 -297q-7 -166 81 -280q128 -164 426 -156h15q83 2 334 27zM234 879q-12 -49 -102 -168q-33 23 -133 86q11 49 96 163q82 -44 139 -81z" />
    <glyph glyph-name="lamwithmeemisolated" unicode="&#xfc42;" horiz-adv-x="531" arabic-form="isolated" 
d="M508 437q-2 -125 -87 -194q-82 -8 -165 -15q-91 -15 -142 -59q28 -124 56 -247q36 -169 46 -337q7 -135 -39 -261q-11 -32 -23 -32q-4 1 -5.5 3t-2.5 20q-3 191 -18 300q-8 55 -41 200q-18 65 -35 131q-23 94 -28 180q-1 25 -1 39q0 167 143 235q35 12 75 19q23 4 23 9
q0 4 -8 15q-24 32 -60 32q-29 0 -67 -21q-54 -36 -58 -36q-15 0 -25 24q-11 38 13 92q15 33 65 75q24 2 54 23h2q16 4 32 6q104 24 159 44q-4 112 -15 289l-19 257q-2 20 -2 40q0 81 25 156q6 13 11 21q14 14 20 0q8 -25 25 -70q54 -132 51 -170q-11 -17 -34 -65l4 -48
q3 -22 7 -72l10 -122q6 -61 5 -74q-4 -94 -15 -142q-9 -40 -54 -120q59 -47 118 -125z" />
    <glyph glyph-name="noonwithmeemisolated" unicode="&#xfc4e;" horiz-adv-x="640" arabic-form="isolated" 
d="M593 753q-28 -49 -57 -49q-25 0 -45 35q-3 28 -26 28q-6 0 -14 -2q-39 -5 -75 -16q-88 -27 -154 -83q31 1 56 -10q125 -54 229 -192q-2 -125 -87 -193q-82 -8 -165 -16q-91 -14 -142 -59q28 -123 56 -247q36 -168 46 -337q7 -134 -39 -260q-11 -32 -23 -32q-4 0 -6 4
q-1 0 -2 19q-3 190 -18 299q-8 56 -41 200q-18 66 -35 131q-23 95 -28 180q-1 26 -1 40q0 167 143 235q35 11 75 18q23 5 23 9t-8 15q-24 32 -60 32q-29 0 -67 -20q-54 -37 -58 -37q-15 0 -25 24q-11 40 13 93l2 3q7 25 18 47q152 290 467 324q68 -6 68 -91q0 -52 -20 -92z
M493 1142q-12 -49 -102 -168q-33 23 -133 86q11 49 96 163q82 -44 139 -81z" />
    <glyph glyph-name="yehwithmeemisolated" unicode="&#xfc58;" horiz-adv-x="658" arabic-form="isolated" 
d="M593 753q-28 -49 -57 -49q-25 0 -45 35q-3 28 -26 28q-6 0 -14 -2q-39 -5 -75 -16q-88 -27 -154 -83q31 1 56 -10q125 -54 229 -192q-2 -125 -87 -193q-82 -8 -165 -16q-91 -14 -142 -59q28 -123 56 -247q36 -168 46 -337q7 -134 -39 -260q-11 -32 -23 -32q-4 0 -6 4
q-1 0 -2 19q-3 190 -18 299q-8 56 -41 200l-38 154q-21 89 -25 157q-1 26 -1 40q0 167 143 235q35 11 75 18q23 5 23 9t-8 15q-24 32 -60 32q-29 0 -67 -20q-54 -37 -58 -37q-15 0 -25 24q-11 40 13 93l2 3q7 25 18 47q152 290 467 324q68 -6 68 -91q0 -52 -20 -92zM441 -27
q-29 -51 -79 -117q-33 24 -133 86q11 49 96 163q68 -36 122 -70q26 49 73 111q82 -44 139 -81q-12 -49 -102 -168q-30 21 -116 76z" />
    <glyph glyph-name="shaddawithdammatanisolated" unicode="&#xfc5e;" arabic-form="isolated" 
 />
    <glyph glyph-name="shaddawithkasratanisolated" unicode="&#xfc5f;" arabic-form="isolated" 
 />
    <glyph glyph-name="shaddawithfathaisolated" unicode="&#xfc60;" arabic-form="isolated" 
 />
    <glyph glyph-name="shaddawithdammaisolated" unicode="&#xfc61;" arabic-form="isolated" 
 />
    <glyph glyph-name="shaddawithkasraisolated" unicode="&#xfc62;" arabic-form="isolated" 
 />
    <glyph glyph-name="behwithjeeminitial" unicode="&#xfc9c;" horiz-adv-x="805" arabic-form="initial" 
d="M793 279q-21 -50 -53 -104q-74 -6 -139 -14q-155 -20 -236 -45q-56 -36 -191 -94q-105 -29 -174 -22q-47 0 -62 36q-6 16 -5 37q46 98 67 97q33 -5 65 -5q67 0 116 20q82 17 178 64q-125 38 -274 114q-28 15 -54 31q-16 10 -8 21q12 23 74 72q6 5 19 15q84 61 334 102
q54 9 67.5 36.5t102.5 209.5q20 39 42 39q20 0 37 -39q45 -107 45 -203q0 -54 -15 -102q-12 -20 -23 -20q-10 0 -16 20q6 94 -46 159q-5 7 -16 20q-9 -4 -25 -28q-32 -54 -65 -107q-47 -66 -109 -83q-9 -2 -192 -44q173 -104 535 -135q28 2 28 -22q0 -11 -7 -26zM741 6
q-12 -49 -102 -168q-33 23 -133 86q11 49 96 163q82 -44 139 -81zM418 -116q-12 -49 -102 -168q-33 23 -133 86q11 49 96 163q82 -44 139 -81z" />
    <glyph glyph-name="behwithhahinitial" unicode="&#xfc9d;" horiz-adv-x="805" arabic-form="initial" 
d="M793 279q-21 -50 -53 -104q-74 -6 -139 -14q-155 -20 -236 -45q-56 -36 -191 -94q-105 -29 -174 -22q-47 0 -62 36q-6 16 -5 37q46 98 67 97q33 -5 65 -5q67 0 116 20q82 17 178 64q-125 38 -274 114q-28 15 -54 31q-16 10 -8 21q12 23 74 72q6 5 19 15q84 61 334 102
q54 9 67.5 36.5t102.5 209.5q20 39 42 39q20 0 37 -39q45 -107 45 -203q0 -54 -15 -102q-12 -20 -23 -20q-10 0 -16 20q6 94 -46 159q-5 7 -16 20q-9 -4 -25 -28q-32 -54 -65 -107q-47 -66 -109 -83q-9 -2 -192 -44q173 -104 535 -135q28 2 28 -22q0 -11 -7 -26zM728 -26
q-12 -49 -102 -168q-33 23 -133 86q11 49 96 163q82 -44 139 -81z" />
    <glyph glyph-name="behwithkhahinitial" unicode="&#xfc9e;" horiz-adv-x="801" arabic-form="initial" 
d="M303 791q-12 -49 -102 -168q-33 23 -133 86q11 49 96 163q82 -44 139 -81zM793 279q-21 -50 -53 -104q-74 -6 -139 -14q-155 -20 -236 -45q-56 -36 -191 -94q-105 -29 -174 -22q-47 0 -62 36q-6 16 -5 37q46 98 67 97q33 -5 65 -5q67 0 116 20q82 17 178 64
q-125 38 -274 114q-28 15 -54 31q-16 10 -8 21q12 23 74 72q6 5 19 15q84 61 334 102q54 9 67.5 36.5t102.5 209.5q20 39 42 39q20 0 37 -39q45 -107 45 -203q0 -54 -15 -102q-12 -20 -23 -20q-10 0 -16 20q6 94 -46 159q-5 7 -16 20q-9 -4 -25 -28q-32 -54 -65 -107
q-47 -66 -109 -83q-9 -2 -192 -44q173 -104 535 -135q28 2 28 -22q0 -11 -7 -26zM750 -4q-12 -49 -102 -168q-33 23 -133 86q11 49 96 163q82 -44 139 -81z" />
    <glyph glyph-name="behwithmeeminitial" unicode="&#xfc9f;" horiz-adv-x="984" arabic-form="initial" 
d="M956 598q-12 -30 -31 -55q-33 -35 -58 -35q-31 0 -44 44q4 38 -34 35q-19 2 -46 2q-133 0 -236 -70q36 -9 61 -36q8 -8 13 -19q3 -5 9 -25q13 -49 13 -103q0 -155 -101 -288q-9 -7 -20 -7q-51 22 -96 47q-107 59 -162 120q-40 -130 -118 -181q-53 -26 -106 -27
q-47 -1 -62 36q-6 15 -5 37q46 98 67 97q12 -1 23 1q133 4 159 103l-1 2q29 48 58 88q71 96 136 136q9 12 17 21q161 220 435 220q52 0 93 -8q49 -16 49 -71q0 -29 -13 -64zM911 299q-12 -49 -102 -168q-33 23 -133 86q11 49 96 163q82 -44 139 -81zM506 209q7 27 7 52
q0 65 -40 105q-24 13 -49 13q-51 0 -98 -45q28 -43 180 -125z" />
    <glyph glyph-name="tehwithjeeminitial" unicode="&#xfca1;" horiz-adv-x="805" arabic-form="initial" 
d="M824 1096q-12 -49 -102 -168q-33 23 -133 86q11 49 96 163q82 -44 139 -81zM611 1055q-12 -49 -102 -168q-33 24 -133 86q11 49 96 163q82 -44 139 -81zM793 279q-21 -50 -53 -104q-74 -6 -139 -14q-155 -20 -236 -45q-56 -36 -191 -94q-105 -29 -174 -22q-47 0 -62 36
q-6 16 -5 37q46 98 67 97q33 -5 65 -5q67 0 116 20q82 17 178 64q-125 38 -274 114q-28 15 -54 31q-16 10 -8 21q12 23 74 72q6 5 19 15q84 61 334 102q54 9 67.5 36.5t102.5 209.5q20 39 42 39q20 0 37 -39q45 -107 45 -203q0 -54 -15 -102q-12 -20 -23 -20q-10 0 -16 20
q6 94 -46 159q-5 7 -16 20q-9 -4 -25 -28q-32 -54 -65 -107q-47 -66 -109 -83q-9 -2 -192 -44q173 -104 535 -135q28 2 28 -22q0 -11 -7 -26zM523 -45q-12 -49 -102 -168q-33 23 -133 86q11 49 96 163q82 -44 139 -81z" />
    <glyph glyph-name="tehwithhahinitial" unicode="&#xfca2;" horiz-adv-x="801" arabic-form="initial" 
d="M844 1088q-12 -49 -102 -168q-33 23 -133 86q11 49 96 163q82 -44 139 -81zM631 1047q-12 -49 -102 -168q-33 24 -133 86q11 49 96 163q82 -44 139 -81zM793 279q-21 -50 -53 -104q-74 -6 -139 -14q-155 -20 -236 -45q-56 -36 -191 -94q-105 -29 -174 -22q-47 0 -62 36
q-6 16 -5 37q46 98 67 97q33 -5 65 -5q67 0 116 20q82 17 178 64q-125 38 -274 114q-28 15 -54 31q-16 10 -8 21q12 23 74 72q6 5 19 15q84 61 334 102q54 9 67.5 36.5t102.5 209.5q20 39 42 39q20 0 37 -39q45 -107 45 -203q0 -54 -15 -102q-12 -20 -23 -20q-10 0 -16 20
q6 94 -46 159q-5 7 -16 20q-9 -4 -25 -28q-32 -54 -65 -107q-47 -66 -109 -83q-9 -2 -192 -44q173 -104 535 -135q28 2 28 -22q0 -11 -7 -26z" />
    <glyph glyph-name="tehwithkhahinitial" unicode="&#xfca3;" horiz-adv-x="801" arabic-form="initial" 
d="M849 1088q-12 -49 -102 -168q-33 23 -133 86q11 49 96 163q82 -44 139 -81zM651 1054q-12 -49 -102 -168q-33 24 -133 86q11 49 96 163q82 -44 139 -81zM384 818q-12 -49 -102 -168q-33 23 -133 86q11 49 96 163q82 -44 139 -81zM793 279q-21 -50 -53 -104
q-74 -6 -139 -14q-155 -20 -236 -45q-56 -36 -191 -94q-105 -29 -174 -22q-47 0 -62 36q-6 16 -5 37q46 98 67 97q33 -5 65 -5q67 0 116 20q82 17 178 64q-125 38 -274 114q-28 15 -54 31q-16 10 -8 21q12 23 74 72q6 5 19 15q84 61 334 102q54 9 67.5 36.5t102.5 209.5
q20 39 42 39q20 0 37 -39q45 -107 45 -203q0 -54 -15 -102q-12 -20 -23 -20q-10 0 -16 20q6 94 -46 159q-5 7 -16 20q-9 -4 -25 -28q-32 -54 -65 -107q-47 -66 -109 -83q-9 -2 -192 -44q173 -104 535 -135q28 2 28 -22q0 -11 -7 -26z" />
    <glyph glyph-name="tehwithmeeminitial" unicode="&#xfca4;" horiz-adv-x="966" arabic-form="initial" 
d="M956 598q-12 -30 -31 -55q-33 -35 -58 -35q-31 0 -44 44q4 38 -34 35q-19 2 -46 2q-133 0 -236 -70q36 -9 61 -36q8 -8 13 -19q3 -5 9 -25q13 -49 13 -103q0 -155 -101 -288q-9 -7 -20 -7q-51 22 -96 47q-107 59 -162 120q-40 -130 -118 -181q-53 -26 -106 -27
q-47 -1 -62 36q-6 15 -5 37q46 98 67 97q12 -1 23 1q133 4 159 103l-1 2q29 48 58 88q71 96 136 136q9 12 17 21q161 220 435 220q52 0 93 -8q49 -16 49 -71q0 -29 -13 -64zM506 209q7 27 7 52q0 65 -40 105q-24 13 -49 13q-51 0 -98 -45q28 -43 180 -125zM961 967
q-12 -49 -102 -168q-33 23 -133 86q11 49 96 163q82 -44 139 -81zM704 926q-12 -49 -102 -168q-33 24 -133 86q11 49 96 163q82 -44 139 -81z" />
    <glyph glyph-name="thehwithmeeminitial" unicode="&#xfca6;" horiz-adv-x="966" arabic-form="initial" 
d="M956 598q-12 -30 -31 -55q-33 -35 -58 -35q-31 0 -44 44q4 38 -34 35q-19 2 -46 2q-133 0 -236 -70q36 -9 61 -36q8 -8 13 -19q3 -5 9 -25q13 -49 13 -103q0 -155 -101 -288q-9 -7 -20 -7q-51 22 -96 47q-107 59 -162 120q-40 -130 -118 -181q-53 -26 -106 -27
q-47 -1 -62 36q-6 15 -5 37q46 98 67 97q12 -1 23 1q133 4 159 103l-1 2q29 48 58 88q71 96 136 136q9 12 17 21q161 220 435 220q52 0 93 -8q49 -16 49 -71q0 -29 -13 -64zM506 209q7 27 7 52q0 65 -40 105q-24 13 -49 13q-51 0 -98 -45q28 -43 180 -125zM804 1172
q-12 -49 -102 -168q-33 23 -132 85q10 49 96 163q81 -43 138 -80zM954 963q-12 -49 -102 -168q-33 23 -133 86q11 49 96 163q82 -44 139 -81zM697 922q-12 -49 -102 -168q-33 24 -133 86q11 49 96 163q82 -44 139 -81z" />
    <glyph glyph-name="jeemwithmeeminitial" unicode="&#xfca8;" horiz-adv-x="1246" arabic-form="initial" 
d="M1245 676q-23 -34 -88 -100q-82 -64 -273 -56q-216 8 -292 -22l2 -2q7 -7 13 -18q2 -5 9 -26q12 -48 12 -102q0 -155 -100 -288q-10 -7 -20 -7q-57 24 -105 51q-115 65 -166 132l1 -6q-48 -106 -100.5 -158t-137.5 -74q-38 -2 -48 90q6 23 13 39q16 40 35 43
q48 15 171 82q20 15 40 43l1 2q58 81 67 93q59 75 111 114q144 108 378 176q-50 31 -163 82q-73 36 -147 18q-24 -19 -71 -79q-9 -9 -19 -9q-12 0 -23 16q0 9 7 29q19 39 38 70q46 74 79 91q53 28 97 28q52 0 113 -28q67 -32 221 -82q196 -65 336 -89q19 -8 19 -26
q0 -12 -10 -27zM532 223q6 27 6 52q0 65 -40 104q-23 14 -49 14q-50 0 -97 -46q28 -43 180 -124zM900 385q82 -44 139 -81q-12 -49 -102 -168q-33 23 -133 85q11 50 96 164z" />
    <glyph glyph-name="hahwithmeeminitial" unicode="&#xfcaa;" horiz-adv-x="1246" arabic-form="initial" 
d="M1245 676q-23 -34 -88 -100q-82 -64 -273 -56q-216 8 -292 -22l2 -2q7 -7 13 -18q2 -5 9 -26q12 -48 12 -102q0 -155 -100 -288q-10 -7 -20 -7q-57 24 -105 51q-115 65 -166 132l1 -6q-48 -106 -100.5 -158t-137.5 -74q-38 -2 -48 90q6 23 13 39q16 40 35 43
q48 15 171 82q20 15 40 43l1 2q58 81 67 93q59 75 111 114q144 108 378 176q-50 31 -163 82q-73 36 -147 18q-24 -19 -71 -79q-9 -9 -19 -9q-12 0 -23 16q0 9 7 29q19 39 38 70q46 74 79 91q53 28 97 28q52 0 113 -28q67 -32 221 -82q196 -65 336 -89q19 -8 19 -26
q0 -12 -10 -27zM532 223q6 27 6 52q0 65 -40 104q-23 14 -49 14q-50 0 -97 -46q28 -43 180 -124z" />
    <glyph glyph-name="khahwithmeeminitial" unicode="&#xfcac;" horiz-adv-x="1246" arabic-form="initial" 
d="M1245 676q-23 -34 -88 -100q-82 -64 -273 -56q-216 8 -292 -22l2 -2q7 -7 13 -18q2 -5 9 -26q12 -48 12 -102q0 -155 -100 -288q-10 -7 -20 -7q-57 24 -105 51q-115 65 -166 132l1 -6q-48 -106 -100.5 -158t-137.5 -74q-38 -2 -48 90q6 23 13 39q16 40 35 43
q48 15 171 82q20 15 40 43l1 2q58 81 67 92q59 76 111 115q144 108 378 176q-50 31 -163 82q-73 36 -147 18q-24 -19 -71 -79q-9 -9 -19 -9q-12 0 -23 16q0 9 7 29q19 39 38 70q46 74 79 91q53 28 97 28q52 0 113 -28q67 -32 221 -82q196 -65 336 -89q19 -8 19 -26
q0 -12 -10 -27zM532 223q6 27 6 52q0 65 -40 104q-23 14 -49 14q-50 0 -97 -46q28 -43 180 -124zM815 1185q82 -44 139 -81q-12 -49 -102 -168q-33 23 -133 86q11 49 96 163z" />
    <glyph glyph-name="lamwithjeeminitial" unicode="&#xfcc9;" horiz-adv-x="778" arabic-form="initial" 
d="M778 278q-22 -50 -54 -104q-74 -6 -138 -14q-154 -19 -235 -44q-43 -30 -86 -59q-56 -36 -107 -36q-33 0 -80.5 -10t-77.5 -11q-38 -1 -48 90q6 23 13 39q16 40 35 43q29 -4 57 -4q62 0 108 15q82 18 178 65q-92 26 -184 72l-132 67q-7 3 -12 6q-16 10 -7 21
q5 11 39.5 43.5t40.5 34.5q11 2 28 6q64 13 142 40q-4 113 -14 290q-1 15 -10 129l-1 10l-9 122q-1 20 -1 40q0 81 24 156q6 13 11 21q15 14 20 0q8 -25 25 -70q54 -132 52 -170q-11 -17 -34 -65l7 -77q4 -54 11 -135l3 -35q5 -61 5 -74q-5 -93 -15 -141q-8 -37 -48 -109
q219 -98 472 -104q28 2 28 -22q0 -11 -6 -26zM549 -37q-13 -49 -102 -168q-34 24 -133 86q11 49 96 163q81 -44 139 -81z" />
    <glyph glyph-name="lamwithhahinitial" unicode="&#xfcca;" horiz-adv-x="782" arabic-form="initial" 
d="M778 278q-22 -50 -54 -104q-74 -6 -138 -14q-154 -19 -235 -44q-43 -30 -86 -59q-56 -36 -107 -36q-33 0 -80.5 -10t-77.5 -11q-38 -1 -48 90q6 23 13 39q16 40 35 43q29 -4 57 -4q62 0 108 15q82 18 178 65q-92 26 -184 72l-132 67q-7 3 -12 6q-16 10 -7 21
q5 11 39.5 43.5t40.5 34.5q11 2 28 6q64 13 142 40q-4 113 -14 290q-1 15 -10 129l-1 10l-9 122q-1 20 -1 40q0 81 24 156q6 13 11 21q15 14 20 0q8 -25 25 -70q54 -132 52 -170q-11 -17 -34 -65l7 -77q4 -54 11 -135l3 -35q5 -61 5 -74q-5 -93 -15 -141q-8 -37 -48 -109
q219 -98 472 -104q28 2 28 -22q0 -11 -6 -26z" />
    <glyph glyph-name="lamwithkhahinitial" unicode="&#xfccb;" horiz-adv-x="799" arabic-form="initial" 
d="M778 278q-22 -50 -54 -104q-74 -6 -138 -14q-154 -19 -235 -44q-43 -30 -86 -59q-56 -36 -107 -36q-33 0 -80.5 -10t-77.5 -11q-38 -1 -48 90q6 23 13 39q16 40 35 43q29 -4 57 -4q62 0 108 15q82 18 178 65q-92 26 -184 72l-132 67q-7 3 -12 6q-16 10 -7 21
q5 11 39.5 43.5t40.5 34.5q11 2 28 6q64 13 142 40q-4 113 -14 290q-1 15 -10 129l-1 10l-9 122q-1 20 -1 40q0 81 24 156q6 13 11 21q15 14 20 0q9 -25 25 -70q54 -132 52 -170q-11 -17 -34 -65l7 -77q4 -54 11 -135l3 -35q5 -61 5 -74q-5 -93 -15 -141q-8 -37 -48 -109
q219 -98 472 -104q28 2 28 -22q0 -11 -6 -26zM186 736q-12 -49 -102 -168q-33 23 -133 85q11 50 96 164q82 -44 139 -81z" />
    <glyph glyph-name="lamwithmeeminitial" unicode="&#xfccc;" horiz-adv-x="619" arabic-form="initial" 
d="M588 439q12 -49 12 -103q0 -155 -100 -288q-10 -7 -20 -7q-52 22 -97 47q-107 59 -162 120q-40 -130 -118 -181q-49 -24 -103 -27q-38 -2 -48 90q6 23 13 39q16 40 35 43q11 -1 21 -1q130 -7 158 103v1q29 51 60 92q74 99 142 137q31 22 72 48q-4 113 -15 299
q-3 35 -10 125l-10 135q-2 20 -2 40q0 81 24 156q6 13 11 21q15 15 20 0q9 -25 25 -70q54 -132 52 -169q-11 -18 -34 -65l4 -48q6 -63 15 -164l3 -35q5 -61 4 -74q-2 -66 -6 -95q-7 -52 -24 -91q34 -11 55 -34q8 -8 14 -19q2 -5 9 -25zM503 209q7 27 7 52q0 65 -40 104
q-23 14 -49 14q-51 0 -97 -46q27 -43 179 -124z" />
    <glyph glyph-name="lamwithhehinitial" unicode="&#xfccd;" horiz-adv-x="817" arabic-form="initial" 
d="M810 292q-17 -100 -56 -162q-33 -39 -101 -36q-152 7 -266 43q-148 -121 -387 -137q-47 -4 -61 34q-7 16 -6 39q23 109 72 109q19 -3 40 -3q80 0 194 45q-35 33 -35 103q0 33 9 72q18 57 42 104q59 115 138 165q-4 111 -14 275q-2 36 -9 125l-11 135q-1 20 -1 41
q0 81 24 155q6 14 11 22q15 14 20 0q8 -25 25 -70q54 -132 51 -170q-11 -18 -33 -65l4 -48q5 -62 15 -164l2 -35q6 -61 5 -74q-1 -32 -3 -54q35 -58 109 -122q31 -24 114 -100q111 -105 111 -194q0 -16 -3 -33zM717 267q10 1 -4 14q-32 50 -109 117q-26 23 -49 39
q-7 -23 -27 -85q-11 -34 -28 -68q88 -19 217 -17zM482 396q5 42 -18 83q-21 37 -44 40q-86 9 -125 -101q-3 -9 -7 -36q-2 -11 9 -19q43 -29 111 -51q58 33 74 84z" />
    <glyph glyph-name="meemwithjeeminitial" unicode="&#xfcce;" horiz-adv-x="815" arabic-form="initial" 
d="M810 281q-22 -50 -54 -104q-74 -6 -139 -14q-155 -19 -236 -45q-56 -36 -191 -94q-120 -32 -190 -24q-47 0 -62 36q-6 16 -5 37q46 98 67 97q31 -5 63 -5q73 0 134 22q82 18 178 64q-125 38 -273 114q-29 15 -55 32q-16 9 -7 20q11 23 60 63q52 61 349 154q-6 69 49 372
q4 17 11 38q11 20 24 13q4 -2 49 -59q38 -48 60 -84q38 -65 38 -148q0 -52 -15 -105q-16 -27 -32 -48q-39 -50 -72 -62q-79 -30 -278 -102q218 -104 505 -119q28 1 28 -23q0 -10 -6 -26zM597 -19q-12 -49 -102 -168q-33 23 -133 85q11 50 96 164q82 -44 139 -81zM607 689
q-8 25 -19 48q-26 56 -61 90q-2 -20 -12 -84q-9 -59 -7 -87q21 6 99 33z" />
    <glyph glyph-name="meemwithhahinitial" unicode="&#xfccf;" horiz-adv-x="824" arabic-form="initial" 
d="M810 281q-22 -50 -54 -104q-74 -6 -139 -14q-155 -19 -236 -45q-56 -36 -191 -94q-120 -32 -190 -24q-47 0 -62 36q-6 16 -5 37q46 98 67 97q31 -5 63 -5q73 0 134 22q82 18 178 64q-125 38 -273 114q-29 15 -55 32q-16 9 -7 20q11 23 60 63q52 61 349 154q-6 69 49 372
q4 17 11 38q11 20 24 13q4 -2 49 -59q38 -48 60 -84q38 -65 38 -148q0 -52 -15 -105q-16 -27 -32 -48q-39 -50 -72 -62q-79 -30 -278 -102q218 -104 505 -119q28 1 28 -23q0 -10 -6 -26zM607 689q-8 25 -19 48q-26 56 -61 90q-2 -20 -12 -84q-9 -59 -7 -87q21 6 99 33z" />
    <glyph glyph-name="meemwithkhahinitial" unicode="&#xfcd0;" horiz-adv-x="824" arabic-form="initial" 
d="M319 792q-12 -49 -102 -168q-33 23 -133 86q11 49 96 163q82 -44 139 -81zM810 281q-22 -50 -54 -104q-74 -6 -139 -14q-155 -19 -236 -45q-56 -36 -191 -94q-120 -32 -190 -24q-47 0 -62 36q-6 16 -5 37q46 98 67 97q31 -5 63 -5q73 0 134 22q82 18 178 64
q-125 38 -273 114q-29 15 -55 32q-16 9 -7 20q11 23 60 63q52 61 349 154q-6 69 49 372q4 17 11 38q11 20 24 13q4 -2 49 -59q38 -48 60 -84q38 -65 38 -148q0 -52 -15 -105q-16 -27 -32 -48q-39 -50 -72 -62q-79 -30 -278 -102q218 -104 505 -119q28 1 28 -23q0 -10 -6 -26
zM607 689q-8 25 -19 48q-26 56 -61 90q-2 -20 -12 -84q-9 -59 -7 -87q21 6 99 33z" />
    <glyph glyph-name="meemwithmeeminitial" unicode="&#xfcd1;" horiz-adv-x="792" arabic-form="initial" 
d="M774 674q-2 -30 -26 -91q-20 -27 -187 -99l2 -2q7 -7 13 -18q3 -5 9 -25q12 -49 12 -103q0 -155 -100 -288q-9 -7 -20 -7q-51 22 -96 47q-107 58 -162 120q-40 -130 -119 -181q-51 -26 -100 -27q-47 -1 -62 36q-6 15 -5 37q46 98 67 97q12 -1 18 0q133 3 159 104l-1 1
q35 59 71 105q85 111 160 137l4 2q41 17 156 72q-13 99 -13 201q0 105 12 186q4 20 22 20q19 0 51 -28q134 -116 135 -296zM706 654q6 4 -1 18q-26 53 -74 98q-14 19 -16 0q-4 -116 4 -156q49 14 87 40zM501 209q6 27 6 52q0 65 -39 104q-24 14 -50 14q-50 0 -97 -46
q28 -43 180 -124z" />
    <glyph glyph-name="noonwithjeeminitial" unicode="&#xfcd2;" horiz-adv-x="805" arabic-form="initial" 
d="M758 1098q-12 -49 -102 -168q-33 23 -133 86q11 49 96 163q82 -44 139 -81zM793 279q-21 -50 -53 -104q-74 -6 -139 -14q-155 -20 -236 -45q-56 -36 -191 -94q-105 -29 -174 -22q-47 0 -62 36q-6 16 -5 37q46 98 67 97q33 -5 65 -5q67 0 116 20q82 17 178 64
q-125 38 -274 114q-28 15 -54 31q-16 10 -8 21q12 23 74 72q6 5 19 15q84 61 334 102q54 9 67.5 36.5t102.5 209.5q20 39 42 39q20 0 37 -39q45 -107 45 -203q0 -54 -15 -102q-12 -20 -23 -20q-10 0 -16 20q6 94 -46 159q-5 7 -16 20q-9 -4 -25 -28q-32 -54 -65 -107
q-47 -66 -109 -83q-9 -2 -192 -44q173 -104 535 -135q28 2 28 -22q0 -11 -7 -26zM533 -39q-12 -49 -102 -168q-33 23 -133 85q11 50 96 164q82 -44 139 -81z" />
    <glyph glyph-name="noonwithhahinitial" unicode="&#xfcd3;" horiz-adv-x="805" arabic-form="initial" 
d="M754 1106q-12 -49 -102 -168q-33 23 -133 86q11 49 96 163q82 -44 139 -81zM793 279q-21 -50 -53 -104q-74 -6 -139 -14q-155 -20 -236 -45q-56 -36 -191 -94q-105 -29 -174 -22q-47 0 -62 36q-6 16 -5 37q46 98 67 97q33 -5 65 -5q67 0 116 20q82 17 178 64
q-125 38 -274 114q-28 15 -54 31q-16 10 -8 21q12 23 74 72q6 5 19 15q84 61 334 102q54 9 67.5 36.5t102.5 209.5q20 39 42 39q20 0 37 -39q45 -107 45 -203q0 -54 -15 -102q-12 -20 -23 -20q-10 0 -16 20q6 94 -46 159q-5 7 -16 20q-9 -4 -25 -28q-32 -54 -65 -107
q-47 -66 -109 -83q-9 -2 -192 -44q173 -104 535 -135q28 2 28 -22q0 -11 -7 -26z" />
    <glyph glyph-name="noonwithkhahinitial" unicode="&#xfcd4;" horiz-adv-x="805" arabic-form="initial" 
d="M756 1104q-12 -49 -102 -168q-33 23 -133 86q11 49 96 163q82 -44 139 -81zM385 798q-12 -49 -102 -168q-33 23 -133 86q11 49 96 163q82 -44 139 -81zM793 279q-21 -50 -53 -104q-74 -6 -139 -14q-155 -20 -236 -45q-56 -36 -191 -94q-105 -29 -174 -22q-47 0 -62 36
q-6 16 -5 37q46 98 67 97q33 -5 65 -5q67 0 116 20q82 17 178 64q-125 38 -274 114q-28 15 -54 31q-16 10 -8 21q12 23 74 72q6 5 19 15q84 61 334 102q54 9 67.5 36.5t102.5 209.5q20 39 42 39q20 0 37 -39q45 -107 45 -203q0 -54 -15 -102q-12 -20 -23 -20q-10 0 -16 20
q6 94 -46 159q-5 7 -16 20q-9 -4 -25 -28q-32 -54 -65 -107q-47 -66 -109 -83q-9 -2 -192 -44q173 -104 535 -135q28 2 28 -22q0 -11 -7 -26z" />
    <glyph glyph-name="noonwithmeeminitial" unicode="&#xfcd5;" horiz-adv-x="984" arabic-form="initial" 
d="M956 598q-12 -30 -31 -55q-33 -35 -58 -35q-31 0 -44 44q4 38 -34 35q-19 2 -46 2q-133 0 -236 -70q36 -9 61 -36q8 -8 13 -19q3 -5 9 -25q13 -49 13 -103q0 -155 -101 -288q-9 -7 -20 -7q-51 22 -96 47q-107 59 -162 120q-40 -130 -118 -181q-53 -26 -106 -27
q-47 -1 -62 36q-6 15 -5 37q46 98 67 97q12 -1 23 1q133 4 159 103l-1 2q29 48 58 88q71 96 136 136q9 12 17 21q161 220 435 220q52 0 93 -8q49 -16 49 -71q0 -29 -13 -64zM830 945q-12 -49 -102 -168q-33 23 -133 86q11 49 96 163q82 -44 139 -81zM506 209q7 27 7 52
q0 65 -40 105q-24 13 -49 13q-51 0 -98 -45q28 -43 180 -125z" />
    <glyph glyph-name="hehwithmeeminitial" unicode="&#xfcd8;" horiz-adv-x="1171" arabic-form="initial" 
d="M-67 73q-2 -75 67 -73q52 4 97 27q22 15 43 38q48 55 75 143q82 -92 258 -167q17 0 20 7q101 133 101 288q0 66 -16 115q44 17 82 37q121 -66 345 -77q69 -3 101 36q40 62 56 162q3 17 3 33q0 89 -110 194q-22 22 -114 100q-101 86 -130 166q-7 18 -15 18q-9 0 -19 -22
l-27 -110q-121 -73 -185 -272q-5 -22 -7 -42q-8 -66 16 -109q-68 -25 -146 -43q-13 -2 -24 -5q-111 -38 -232 -242l1 -2q-27 -105 -159 -103q-9 -1 -21 0q-53 4 -60 -97zM415 379q25 0 49 -14q40 -39 40 -105q0 -24 -7 -51q-152 81 -180 124q47 46 98 46zM772 836
q23 -3 45 -40q22 -40 17 -83q-16 -51 -73 -84q-68 22 -111 51q-11 8 -9 20q3 26 6 35q40 110 125 101zM957 716q77 -67 109 -118q14 -13 3 -13q-129 -3 -216 16q16 35 28 68q20 62 26 85q23 -16 50 -38z" />
    <glyph glyph-name="yehwithjeeminitial" unicode="&#xfcda;" horiz-adv-x="810" arabic-form="initial" 
d="M793 279q-21 -50 -53 -104q-74 -6 -139 -14q-155 -20 -236 -45q-56 -36 -191 -94q-105 -29 -174 -22q-47 0 -62 36q-6 16 -5 37q46 98 67 97q33 -5 65 -5q67 0 116 20q82 17 178 64q-125 38 -274 114q-28 15 -54 31q-16 10 -8 21q12 23 74 72q6 5 19 15q84 61 334 102
q54 9 67.5 36.5t102.5 209.5q20 39 42 39q20 0 37 -39q45 -107 45 -203q0 -54 -15 -102q-12 -20 -23 -20q-10 0 -16 20q6 94 -46 159q-5 7 -16 20q-9 -4 -25 -28q-32 -54 -65 -107q-47 -66 -109 -83q-9 -2 -192 -44q173 -104 535 -135q28 2 28 -22q0 -11 -7 -26zM821 18
q-10 -44 -91 -152q-25 18 -93 61q-26 -43 -67 -97q-29 21 -119 77q9 44 86 147q53 -28 97 -55q24 41 62 91q74 -39 125 -72zM398 -137q-13 -49 -102 -168q-34 24 -133 86q11 49 96 163q81 -44 139 -81z" />
    <glyph glyph-name="yehwithhahinitial" unicode="&#xfcdb;" horiz-adv-x="801" arabic-form="initial" 
d="M793 279q-21 -50 -53 -104q-74 -6 -139 -14q-155 -20 -236 -45q-56 -36 -191 -94q-105 -29 -174 -22q-47 0 -62 36q-6 16 -5 37q46 98 67 97q33 -5 65 -5q67 0 116 20q82 17 178 64q-125 38 -274 114q-28 15 -54 31q-16 10 -8 21q12 23 74 72q6 5 19 15q84 61 334 102
q54 9 67.5 36.5t102.5 209.5q20 39 42 39q20 0 37 -39q45 -107 45 -203q0 -54 -15 -102q-12 -20 -23 -20q-10 0 -16 20q6 94 -46 159q-5 7 -16 20q-9 -4 -25 -28q-32 -54 -65 -107q-47 -66 -109 -83q-9 -2 -192 -44q173 -104 535 -135q28 2 28 -22q0 -11 -7 -26zM809 -17
q-13 -49 -102 -168q-34 23 -133 85q10 50 96 164q81 -44 139 -81zM596 -58q-13 -49 -102 -168q-34 23 -133 86q10 49 96 163q81 -44 139 -81z" />
    <glyph glyph-name="yehwithkhahinitial" unicode="&#xfcdc;" horiz-adv-x="801" arabic-form="initial" 
d="M392 802q-12 -49 -102 -168q-33 23 -133 86q11 49 96 163q82 -44 139 -81zM793 279q-21 -50 -53 -104q-74 -6 -139 -14q-155 -20 -236 -45q-56 -36 -191 -94q-105 -29 -174 -22q-47 0 -62 36q-6 16 -5 37q46 98 67 97q33 -5 65 -5q67 0 116 20q82 17 178 64
q-125 38 -274 114q-28 15 -54 31q-16 10 -8 21q12 23 74 72q6 5 19 15q84 61 334 102q54 9 67.5 36.5t102.5 209.5q20 39 42 39q20 0 37 -39q45 -107 45 -203q0 -54 -15 -102q-12 -20 -23 -20q-10 0 -16 20q6 94 -46 159q-5 7 -16 20q-9 -4 -25 -28q-32 -54 -65 -107
q-47 -66 -109 -83q-9 -2 -192 -44q173 -104 535 -135q28 2 28 -22q0 -11 -7 -26zM802 -9q-12 -49 -102 -168q-33 23 -133 86q11 49 96 163q82 -44 139 -81zM596 -50q-12 -49 -102 -168q-33 24 -133 86q11 49 96 163q82 -44 139 -81z" />
    <glyph glyph-name="yehwithmeeminitial" unicode="&#xfcdd;" horiz-adv-x="984" arabic-form="initial" 
d="M730 -72q-28 -50 -80 -119q-33 24 -133 86q11 49 96 163q71 -38 126 -72q27 49 75 113q82 -44 139 -81q-12 -49 -102 -168q-31 22 -121 78zM956 598q-12 -30 -31 -55q-33 -35 -58 -35q-31 0 -44 44q4 38 -34 35q-19 2 -46 2q-133 0 -236 -70q36 -9 61 -36q8 -8 13 -19
q3 -5 9 -25q13 -49 13 -103q0 -155 -101 -288q-9 -7 -20 -7q-51 22 -96 47q-107 59 -162 120q-40 -130 -118 -181q-53 -26 -106 -27q-47 -1 -62 36q-6 15 -5 37q46 98 67 97q12 -1 23 1q133 4 159 103l-1 2q29 48 58 88q71 96 136 136q9 12 17 21q161 220 435 220
q52 0 93 -8q49 -16 49 -71q0 -29 -13 -64zM506 209q7 27 7 52q0 65 -40 105q-24 13 -49 13q-51 0 -98 -45q28 -43 180 -125z" />
    <glyph glyph-name="shaddawithfathamedial" unicode="&#xfcf2;" arabic-form="medial" 
 />
    <glyph glyph-name="shaddawithdammamedial" unicode="&#xfcf3;" arabic-form="medial" 
 />
    <glyph glyph-name="shaddawithkasramedial" unicode="&#xfcf4;" arabic-form="medial" 
 />
    <glyph glyph-name="alefwithfathatanfinal" unicode="&#xfd3c;" horiz-adv-x="395" arabic-form="final" 
d="M269 274q-6 -143 -55 -262q-4 -10 -20 -12q-10 5 -11 22q3 64 -17 399q0 13 -49 633l-3 32q-1 20 -1 41q0 81 24 155q6 14 11 22q14 14 20 0q8 -25 25 -70q54 -132 51 -170q-11 -18 -34 -65zM332 1537q44 27 47 26q14 -3 2 -25q-17 -40 -59 -111q-9 -6 -28 -19
q-10 -6 -292 -139q-16 -2 -16 9q0 4 2 9q28 63 39 90q2 5 14 13q247 114 291 147zM329 1711q43 28 46 27q14 -3 2 -26q-16 -40 -59 -111q-8 -6 -28 -19q-10 -5 -292 -138q-16 -2 -16 9q0 4 2 9q29 62 39 91q3 4 14 12q247 114 292 146z" />
    <glyph glyph-name="alefwithfathatanisolated" unicode="&#xfd3d;" horiz-adv-x="526" arabic-form="isolated" 
d="M611 78q-12 -22 -25 -37q-31 -38 -66 -41q-76 -6 -95 0q-47 16 -85 46q-90 73 -118 203q-6 31 -27 208l-45 710q-4 65 51 145q30 44 56 49q76 -34 120 -109q-9 -38 -47 -38q-14 0 -27 5q-23 18 -39 18q-28 0 -28 -62q0 -29 6 -63l48 -643q8 -113 49 -182q55 -91 121 -112
q17 -2 60 -5q56 -1 91 -92zM402 1591q44 27 47 26q14 -3 2 -25q-17 -40 -59 -111q-9 -6 -28 -19q-10 -6 -292 -139q-16 -2 -16 9q0 4 2 9q28 63 39 90q2 5 14 13q247 114 291 147zM399 1765q43 28 46 27q14 -3 2 -26q-16 -40 -59 -111q-8 -6 -28 -19q-10 -5 -292 -138
q-16 -2 -16 9q0 4 2 9q29 62 39 91q3 4 14 12q247 114 292 146z" />
    <glyph glyph-name="lamwithmeemwithhahinitial" unicode="&#xfd88;" horiz-adv-x="983" arabic-form="initial" 
d="M920 440l-35 -102q-47 4 -86 4q-173 0 -331 -55q-68 -24 -229 -103q-112 -55 -169 -55h-70v121h70q69 0 207 46q168 56 212 64l-428 76q17 72 54 96q200 162 467 240q-20 89 -65 253q-32 117 -32 140q0 40 50 99q40 -52 71 -103q-42 -44 -42 -80q0 -40 67 -301q24 4 31 4
q92 0 165 -108l-34 -111q-70 60 -108 79q-52 26 -126 26q-142 0 -356 -131q121 -38 233 -60q189 -37 484 -39zM1354 129h-1354v121h1354v-121z" />
    <glyph glyph-name="fathatanisolated" unicode="&#xfe70;" arabic-form="isolated" 
 />
    <glyph glyph-name="tatweelwithfathatanabove" unicode="&#xfe71;" arabic-form="medial" 
 />
    <glyph glyph-name="dammatanisolated" unicode="&#xfe72;" arabic-form="isolated" 
 />
    <glyph glyph-name="kasratanisolated" unicode="&#xfe74;" arabic-form="isolated" 
 />
    <glyph glyph-name="fathaisolated" unicode="&#xfe76;" arabic-form="isolated" 
 />
    <glyph glyph-name="fathamedial" unicode="&#xfe77;" arabic-form="medial" 
 />
    <glyph glyph-name="dammaisolated" unicode="&#xfe78;" arabic-form="isolated" 
 />
    <glyph glyph-name="dammamedial" unicode="&#xfe79;" arabic-form="medial" 
 />
    <glyph glyph-name="kasraisolated" unicode="&#xfe7a;" arabic-form="isolated" 
 />
    <glyph glyph-name="kasramedial" unicode="&#xfe7b;" arabic-form="medial" 
 />
    <glyph glyph-name="shaddaisolated" unicode="&#xfe7c;" arabic-form="isolated" 
 />
    <glyph glyph-name="shaddamedial" unicode="&#xfe7d;" arabic-form="medial" 
 />
    <glyph glyph-name="sukunisolated" unicode="&#xfe7e;" arabic-form="isolated" 
 />
    <glyph glyph-name="sukunmedial" unicode="&#xfe7f;" arabic-form="medial" 
 />
    <glyph glyph-name="hamzaisolated" unicode="&#x621;" arabic-form="isolated" 
 />
    <glyph glyph-name="alefwithmaddaaboveisolated" unicode="&#x622;" arabic-form="isolated" 
 />
    <glyph glyph-name="alefwithhamzaaboveisolated" unicode="&#x623;" arabic-form="isolated" 
 />
    <glyph glyph-name="wawwithhamzaaboveisolated" unicode="&#x624;" arabic-form="isolated" 
 />
    <glyph glyph-name="wawwithhamzaabovefinal" unicode="&#x624;" horiz-adv-x="644" arabic-form="final" 
d="M365 871q3 -116 140 -116q55 23 135 60q17 2 1 -34q-12 -26 -37 -73q-10 -7 -24 -16q-43 -14 -85 -29q-91 -40 -200 -128q-26 -22 -39 -22q-10 0 -10 13q0 11 8 33q6 12 37 49q44 48 90 70q-66 62 -66 142q0 33 13 66q30 74 95 74q22 0 44 -13q16 -13 42 -41q5 -9 5 -16
q0 -21 -36 -8q-35 11 -63 11q-39 0 -50 -22zM740 228q-11 -22 -25 -37q-31 -38 -66 -41q-6 -3 -32 -7q-8 -60 -29 -126q-63 -160 -253 -210q-35 -7 -158 -20q-65 -4 -114 4q-53 9 -53 22q0 10 34 20q344 100 492 216q10 9 24 32q5 20 0 40q-2 7 -8 18q-24 -1 -88 -4
q-61 -3 -82 3q-41 11 -55 55q-12 35 -12 80q0 126 44 182q27 25 64 25q59 0 117 -73q37 -48 55 -89q12 -2 54 2q56 -1 91 -92z" />
    <glyph glyph-name="alefwithhamzabelowisolated" unicode="&#x625;" arabic-form="isolated" 
 />
    <glyph glyph-name="yehwithhamzaaboveisolated" unicode="&#x626;" arabic-form="isolated" 
 />
    <glyph glyph-name="yehwithhamzaabovefinal" unicode="&#x626;" horiz-adv-x="906" arabic-form="final" 
d="M448 717q3 -116 141 -116q54 22 134 60q17 1 1 -34q-12 -27 -37 -74q-10 -7 -24 -15q-43 -15 -85 -29q-91 -40 -200 -128q-26 -22 -39 -22q-10 0 -10 13q0 11 8 32q6 12 37 50q44 47 90 70q-66 62 -66 142q0 33 14 66q29 74 94 74q22 0 44 -14q16 -12 42 -41q6 -8 6 -15
q0 -22 -37 -8q-34 11 -63 11q-39 0 -50 -22zM904 266q-226 18 -242 5q-37 -31 -33 -50q4 -21 35 -23q-7 0 47 2q42 2 74 2q134 0 129 -103q-4 -16 -18 -65l-2 -6q-38 -115 -83 -182q-48 -69 -144 -145q-142 -111 -278 -111q-41 0 -100 12q-172 35 -245 196q-45 101 -41 207
q8 235 132 500q15 11 32 -4q1 -20 -22 -89q-64 -142 -77 -286q-6 -73 23 -153q35 -97 111 -150q84 -58 184 -58q99 0 234 58q130 72 212 209q-15 54 -169 41q-82 10 -97 57q-17 44 -5 109q3 7 8 23q37 101 149 146q74 31 159 31q37 0 27 -3l55 -87z" />
    <glyph glyph-name="yehwithhamzaaboveinitial" unicode="&#x626;" horiz-adv-x="415" arabic-form="initial" 
d="M129 10q-29 -4 -129 -10q-38 -2 -48 90q6 23 13 39q16 40 35 43q74 -5 129 7q88 19 177 77q-1 38 -9 66q-19 65 -75 193q-6 16 -2 35q12 42 42 115q5 14 11 14q3 -1 5 -4q101 -172 101 -345q0 -29 -4 -56q-6 -39 -28 -100q-25 -71 -46 -89q-25 -16 -51 -30
q-63 -33 -121 -45zM125 973q3 -116 140 -116q55 23 134 61q17 1 2 -35q-12 -26 -38 -73q-9 -7 -23 -16q-43 -14 -86 -29q-91 -40 -200 -128q-26 -22 -39 -22q-9 0 -9 13q0 11 8 33q6 12 36 49q44 48 91 70q-66 62 -66 142q0 33 13 67q29 73 94 73q23 0 44 -13q16 -13 42 -41
q6 -9 6 -16q0 -21 -36 -8q-35 11 -64 11q-38 0 -49 -22z" />
    <glyph glyph-name="yehwithhamzaabovemedial" unicode="&#x626;" horiz-adv-x="415" arabic-form="medial" 
d="M457 74q-33 -74 -42 -74q-54 2 -76 8q-57 15 -91 63q-15 24 -42 58q-16 -55 -84 -92q-59 -33 -122 -37q-20 37 -41 88q-6 82 41 82q9 0 25 -1.5t23 -0.5q112 9 148 92q17 40 26 85q3 2 7 3q10 0 23 -16q27 -90 104 -148q21 -14 58 -14q21 0 43 -96zM119 725
q3 -116 140 -116q55 23 135 60q17 2 1 -34q-12 -26 -37 -73q-10 -7 -24 -16q-43 -14 -85 -29q-91 -40 -200 -128q-26 -22 -39 -22q-10 0 -10 13q0 11 8 33q6 12 37 49q44 48 90 70q-66 62 -66 142q0 33 13 66q30 74 95 74q22 0 44 -13q16 -13 42 -41q5 -9 5 -16
q0 -21 -36 -8q-35 11 -63 11q-39 0 -50 -22z" />
    <glyph glyph-name="aleffinal" unicode="&#x627;" horiz-adv-x="459" arabic-form="final" 
d="M564 78q-12 -22 -25 -37q-31 -38 -66 -41q-76 -6 -95 0q-47 16 -85 46q-90 73 -118 203q-6 31 -27 208l-45 710q-4 65 51 145q30 44 56 49q76 -34 120 -109q-9 -38 -47 -38q-14 0 -27 5q-23 18 -39 18q-28 0 -28 -62q0 -29 6 -63l48 -643q8 -113 49 -182q55 -91 121 -112
q17 -2 60 -5q56 -1 91 -92z" />
    <glyph glyph-name="behisolated" unicode="&#x628;" arabic-form="isolated" 
 />
    <glyph glyph-name="behfinal" unicode="&#x628;" horiz-adv-x="1420" arabic-form="final" 
d="M801 -199q-13 -49 -102 -168q-34 24 -133 86q11 49 96 163q81 -44 139 -81zM1450 170v-170h-27q-83 10 -117 25q-56 24 -77 84q-6 22 -9 45q-16 -32 -75 -61q-173 -87 -399 -130q-50 -10 -173 -20q-60 -5 -115 -5q-262 0 -382 102q-20 18 -35 41q-8 14 -14 29
q-22 57 -22 126q0 55 34 174q40 141 79 141q17 0 6 -64q-37 -97 -37 -158q0 -56 30 -104q72 -114 402 -121q402 5 668 152q11 6 22 23q5 8 10 30q8 30 27 25t11 -35q-1 -7 -4 -18v-6q1 -52 53 -77q31 -14 117 -28h27z" />
    <glyph glyph-name="behinitial" unicode="&#x628;" horiz-adv-x="389" arabic-form="initial" 
d="M263 -130q-12 -49 -102 -168q-33 23 -133 85q11 50 96 164q82 -44 139 -81zM129 10q-29 -4 -129 -10q-38 -2 -48 90q6 23 13 39q16 40 35 43q74 -5 129 7q88 19 177 77q-1 38 -9 66q-19 65 -75 193q-6 16 -2 35q12 42 42 115q5 14 11 14q3 -1 5 -4q101 -172 101 -345
q0 -29 -4 -56q-18 -118 -68 -184q-2 -2 -6 -5q-25 -16 -51 -30q-63 -33 -121 -45z" />
    <glyph glyph-name="behmedial" unicode="&#x628;" horiz-adv-x="415" arabic-form="medial" 
d="M457 74q-33 -74 -42 -74q-54 2 -76 8q-57 15 -91 63q-15 24 -42 58q-16 -55 -84 -92q-59 -33 -122 -37q-20 37 -41 88q-6 82 41 82q9 0 25 -1.5t23 -0.5q112 9 148 92q17 40 26 85q3 2 7 3q10 0 23 -16q27 -90 104 -148q21 -14 58 -14q21 0 43 -96zM292 -140
q-12 -49 -102 -168q-33 23 -133 86q11 49 96 163q82 -44 139 -81z" />
    <glyph glyph-name="tehmarbutaisolated" unicode="&#x629;" arabic-form="isolated" 
 />
    <glyph glyph-name="tehmarbutafinal" unicode="&#x629;" horiz-adv-x="764" arabic-form="final" 
d="M502 974q-12 -49 -102 -168q-33 23 -133 86q11 49 96 163q82 -44 139 -81zM282 933q-13 -49 -102 -168q-33 24 -133 86q11 49 96 163q82 -44 139 -81zM805 74q-16 -36 -42 -74q-34 -8 -59 -9q-179 22 -219 272q-26 -44 -85 -100q-78 -61 -254 -47q-82 7 -127 52
q-12 12 -18 33q-1 15 -1 30q0 98 60 202q71 122 399 205v10q-1 -3 22 77q18 66 37 66t32 -61q-3 -52 -3 -103q0 -269 75 -375q38 -53 140 -82q21 0 43 -96zM473 367l-9 162q-93 -18 -166 -42q-174 -59 -220 -138q24 -23 68 -48q42 -6 90 -6q175 0 237 72z" />
    <glyph glyph-name="tehisolated" unicode="&#x62a;" arabic-form="isolated" 
 />
    <glyph glyph-name="tehfinal" unicode="&#x62a;" horiz-adv-x="1420" arabic-form="final" 
d="M930 536q-12 -49 -102 -168q-33 23 -133 86q11 49 96 163q82 -44 139 -81zM673 495q-12 -49 -102 -168q-33 24 -133 86q11 49 96 163q82 -44 139 -81zM1450 170v-170h-27q-83 10 -117 25q-56 24 -77 84q-6 22 -9 45q-16 -32 -75 -61q-173 -87 -399 -130q-50 -10 -173 -20
q-60 -5 -115 -5q-262 0 -382 102q-20 18 -35 41q-8 14 -14 29q-22 57 -22 126q0 55 34 174q40 141 79 141q17 0 6 -64q-37 -97 -37 -158q0 -56 30 -104q72 -114 402 -121q402 5 668 152q11 6 22 23q5 8 10 30q8 30 27 25t11 -35q-1 -7 -4 -18v-6q1 -52 53 -77
q31 -14 117 -28h27z" />
    <glyph glyph-name="tehinitial" unicode="&#x62a;" horiz-adv-x="393" arabic-form="initial" 
d="M192 820q-28 -50 -78 -116q-33 24 -133 86q11 49 96 163q67 -36 120 -69q27 49 73 110q82 -44 139 -81q-12 -49 -102 -168q-30 21 -115 75zM129 10q-29 -4 -129 -10q-38 -2 -48 90q6 23 13 39q16 40 35 43q74 -5 129 7q88 19 177 77q-1 38 -9 66q-19 65 -75 193
q-6 16 -2 35q12 42 42 115q5 14 11 14q3 -1 5 -4q101 -172 101 -345q0 -29 -4 -56q-6 -39 -28 -100q-25 -71 -46 -89q-25 -16 -51 -30q-63 -33 -121 -45z" />
    <glyph glyph-name="tehmedial" unicode="&#x62a;" horiz-adv-x="415" arabic-form="medial" 
d="M207 501q-28 -49 -74 -110q-34 24 -133 86q10 49 96 163q60 -32 111 -63q26 47 69 104q82 -44 139 -81q-12 -49 -102 -168q-28 20 -106 69zM457 74q-33 -74 -42 -74q-54 2 -76 8q-57 15 -91 63q-15 24 -42 58q-16 -55 -84 -92q-59 -33 -122 -37q-20 37 -41 88
q-6 82 41 82q9 0 25 -1.5t23 -0.5q112 9 148 92q17 40 26 85q3 2 7 3q10 0 23 -16q27 -90 104 -148q21 -14 58 -14q21 0 43 -96z" />
    <glyph glyph-name="thehisolated" unicode="&#x62b;" arabic-form="isolated" 
 />
    <glyph glyph-name="thehfinal" unicode="&#x62b;" horiz-adv-x="1420" arabic-form="final" 
d="M776 707q-12 -49 -102 -168q-33 23 -132 85q10 49 96 163q81 -43 138 -80zM926 476q-12 -49 -102 -168q-33 23 -133 86q11 49 96 163q82 -44 139 -81zM669 435q-12 -49 -102 -168q-33 24 -133 86q11 49 96 163q82 -44 139 -81zM1450 170v-170h-27q-83 10 -117 25
q-56 24 -77 84q-6 22 -9 45q-16 -32 -75 -61q-173 -87 -399 -130q-50 -10 -173 -20q-60 -5 -115 -5q-262 0 -382 102q-20 18 -35 41q-8 14 -14 29q-22 57 -22 126q0 55 34 174q40 141 79 141q17 0 6 -64q-37 -97 -37 -158q0 -56 30 -104q72 -114 402 -121q402 5 668 152
q11 6 22 23q5 8 10 30q8 30 27 25t11 -35q-1 -7 -4 -18v-6q1 -52 53 -77q31 -14 117 -28h27z" />
    <glyph glyph-name="thehinitial" unicode="&#x62b;" horiz-adv-x="415" arabic-form="initial" 
d="M297 1151q-12 -49 -102 -168q-33 23 -133 85q11 49 96 163q82 -43 139 -80zM207 814q-28 -49 -74 -110q-34 24 -133 86q10 49 96 163q60 -32 111 -63q27 47 70 104q81 -44 139 -81q-13 -49 -102 -168q-28 20 -107 69zM129 10q-29 -4 -129 -10q-38 -2 -48 90q6 23 13 39
q16 40 35 43q74 -5 129 7q88 19 177 77q-1 38 -9 66q-19 65 -75 193q-6 16 -2 35q12 42 42 115q5 14 11 14q3 -1 5 -4q101 -172 101 -345q0 -29 -4 -56q-6 -39 -28 -100q-25 -71 -46 -89q-25 -16 -51 -30q-63 -33 -121 -45z" />
    <glyph glyph-name="thehmedial" unicode="&#x62b;" horiz-adv-x="415" arabic-form="medial" 
d="M304 829q-12 -49 -102 -168q-33 23 -133 85q11 49 96 163q82 -43 139 -80zM207 492q-28 -49 -74 -110q-34 24 -133 86q10 49 96 163q60 -32 111 -63q26 47 69 104q82 -44 139 -81q-12 -49 -102 -168q-28 20 -106 69zM457 74q-33 -74 -42 -74q-54 2 -76 8q-57 15 -91 63
q-15 24 -42 58q-16 -55 -84 -92q-59 -33 -122 -37q-20 37 -41 88q-6 82 41 82q9 0 25 -1.5t23 -0.5q112 9 148 92q17 40 26 85q3 2 7 3q10 0 23 -16q27 -90 104 -148q21 -14 58 -14q21 0 43 -96z" />
    <glyph glyph-name="jeemisolated" unicode="&#x62c;" arabic-form="isolated" 
 />
    <glyph glyph-name="jeemfinal" unicode="&#x62c;" horiz-adv-x="879" arabic-form="final" 
d="M955 276q-26 -76 -72 -76q-157 0 -190 106q-28 89 -15 153q-490 -118 -582 -456q-7 -165 82 -279q127 -165 425 -157h15q83 3 334 27q12 -7 12 -18q0 -19 -39 -41q-71 -36 -135 -63q-153 -64 -246 -73l1 1q-4 -1 -8 -1q-149 0 -264 56q-239 116 -239 431q0 56 8 117
q37 295 339 469q-57 14 -142 15q-13 1 -26 1q-64 0 -120 -29q-14 -11 -43 -96q-7 -16 -21 -16q-10 0 -21 9q-5 18 -2 29q6 44 15 79q20 84 46 111q66 67 157 67q21 0 43 -3q102 -12 231 -12q140 0 260 17q28 -3 28 -30q0 -8 -3 -18q-11 -38 -53 -122q-2 -2 -22 -7q0 -4 1 -6
q36 -96 174 -91q50 2 72 -94zM596 -1q-12 -49 -102 -168q-33 24 -133 86q11 49 96 163q82 -44 139 -81z" />
    <glyph glyph-name="jeeminitial" unicode="&#x62c;" horiz-adv-x="819" arabic-form="initial" 
d="M810 298q-12 -23 -75 -142q-38 14 -98 14q-163 0 -369 -99q-83 -40 -199 -64q-33 -7 -69 -7q-47 0 -62 36q-6 16 -5 37q46 97 67 97q17 0 40 1q99 8 169 33q33 11 180 80q-102 60 -248 149q-9 6 -19 6q-30 0 -62 -42q-13 -7 -22 -7q-14 0 -14 20q0 16 8 39q17 31 35 55
q43 57 83 64q55 9 116 -30q46 -31 208 -115q175 -79 312 -85q30 -4 30 -23q0 -8 -6 -17zM556 -39q-12 -49 -102 -168q-33 23 -133 85q11 50 96 164q82 -44 139 -81z" />
    <glyph glyph-name="jeemmedial" unicode="&#x62c;" horiz-adv-x="946" arabic-form="medial" 
d="M619 -24q-12 -49 -102 -168q-33 23 -133 86q11 49 96 163q82 -44 139 -81zM1035 82q-26 -76 -72 -76q-36 -5 -66 -1q-49 37 -106 99q-10 33 -15 58q-37 11 -93 11q-163 0 -369 -99q-98 -47 -214 -71q-50 -10 -100 -3q-47 0 -62 36q-6 16 -5 37q46 97 67 97q49 -16 99 -16
q57 0 156 35q33 11 223 89q-146 96 -291 140q-6 1 -12 1q-35 0 -70 -53q-14 -9 -22 -9q-13 0 -13 21q0 16 7 39q11 30 27 55q39 60 98 84q45 12 110 -33q106 -67 237 -123q172 -74 283 -77q30 -4 30 -23q0 -8 -6 -18.5t-29 -48.5q18 -19 60 -39q38 -17 57 -19q11 -1 19 1
q50 2 72 -94z" />
    <glyph glyph-name="hahisolated" unicode="&#x62d;" arabic-form="isolated" 
 />
    <glyph glyph-name="hahfinal" unicode="&#x62d;" horiz-adv-x="879" arabic-form="final" 
d="M955 276q-26 -76 -72 -76q-157 0 -190 106q-28 89 -15 153q-490 -118 -582 -456q-7 -165 82 -279q127 -165 425 -157h15q83 3 334 27q12 -7 12 -18q0 -19 -39 -41q-71 -36 -135 -63q-153 -64 -246 -73l1 1q-4 -1 -8 -1q-149 0 -264 56q-239 116 -239 431q0 56 8 117
q37 295 339 469q-57 14 -142 15q-13 1 -26 1q-64 0 -120 -29q-14 -11 -43 -96q-7 -16 -21 -16q-10 0 -21 9q-5 18 -2 29q6 44 15 79q20 84 46 111q66 67 157 67q21 0 43 -3q102 -12 231 -12q140 0 260 17q28 -3 28 -30q0 -8 -3 -18q-11 -38 -53 -122q-2 -2 -22 -7q0 -4 1 -6
q36 -96 174 -91q50 2 72 -94z" />
    <glyph glyph-name="hahinitial" unicode="&#x62d;" horiz-adv-x="821" arabic-form="initial" 
d="M810 298q-12 -23 -75 -142q-38 14 -98 14q-163 0 -369 -99q-83 -40 -199 -64q-33 -7 -69 -7q-47 0 -62 36q-6 16 -5 37q46 97 67 97q17 0 40 1q99 8 169 33q33 11 180 80q-102 60 -248 149q-9 6 -19 6q-30 0 -62 -42q-13 -7 -22 -7q-14 0 -14 20q0 16 8 39q17 31 35 55
q43 57 83 64q55 9 116 -30q46 -31 208 -115q175 -79 312 -85q30 -4 30 -23q0 -8 -6 -17z" />
    <glyph glyph-name="hahmedial" unicode="&#x62d;" horiz-adv-x="946" arabic-form="medial" 
d="M1035 82q-26 -76 -72 -76q-36 -5 -66 -1q-49 37 -106 99q-10 33 -15 58q-37 11 -93 11q-163 0 -369 -99q-98 -47 -214 -71q-50 -10 -100 -3q-47 0 -62 36q-6 16 -5 37q46 97 67 97q49 -16 99 -16q57 0 156 35q33 11 223 89q-146 96 -291 140q-6 1 -12 1q-35 0 -70 -53
q-14 -9 -22 -9q-13 0 -13 21q0 16 7 39q11 30 27 55q39 60 98 84q45 12 110 -33q106 -67 237 -123q172 -74 283 -77q30 -4 30 -23q0 -8 -6 -18.5t-29 -48.5q18 -19 60 -39q38 -17 57 -19q11 -1 19 1q50 2 72 -94z" />
    <glyph glyph-name="khahisolated" unicode="&#x62e;" arabic-form="isolated" 
 />
    <glyph glyph-name="khahfinal" unicode="&#x62e;" horiz-adv-x="879" arabic-form="final" 
d="M955 276q-26 -76 -72 -76q-157 0 -190 106q-28 89 -15 153q-490 -118 -582 -456q-7 -165 82 -279q127 -165 425 -157h15q83 3 334 27q12 -7 12 -18q0 -19 -39 -41q-71 -36 -135 -63q-153 -64 -246 -73l1 1q-4 -1 -8 -1q-149 0 -264 56q-239 116 -239 431q0 56 8 117
q37 295 339 469q-57 14 -142 15q-13 1 -26 1q-64 0 -120 -29q-14 -11 -43 -96q-7 -16 -21 -16q-10 0 -21 9q-5 18 -2 29q6 44 15 79q20 84 46 111q66 67 157 67q21 0 43 -3q102 -12 231 -12q140 0 260 17q28 -3 28 -30q0 -8 -3 -18q-11 -38 -53 -122q-2 -2 -22 -7q0 -4 1 -6
q36 -96 174 -91q50 2 72 -94zM546 884q-12 -49 -102 -168q-33 23 -133 86q11 49 96 163q82 -44 139 -81z" />
    <glyph glyph-name="khahinitial" unicode="&#x62e;" horiz-adv-x="819" arabic-form="initial" 
d="M810 298q-12 -23 -75 -142q-38 14 -98 14q-163 0 -369 -99q-83 -40 -199 -64q-33 -7 -69 -7q-47 0 -62 36q-6 16 -5 37q46 97 67 97q17 0 40 1q99 8 169 33q33 11 180 80q-102 60 -248 149q-9 6 -19 6q-30 0 -62 -42q-13 -7 -22 -7q-14 0 -14 20q0 16 8 39q17 31 35 55
q43 57 83 64q55 9 116 -30q46 -31 208 -115q175 -79 312 -85q30 -4 30 -23q0 -8 -6 -17zM598 717q-12 -49 -102 -168q-33 23 -133 86q11 49 96 163q82 -44 139 -81z" />
    <glyph glyph-name="khahmedial" unicode="&#x62e;" horiz-adv-x="946" arabic-form="medial" 
d="M674 665q-12 -49 -102 -168q-33 23 -133 86q11 49 96 163q82 -44 139 -81zM1035 82q-26 -76 -72 -76q-36 -5 -66 -1q-49 37 -106 99q-10 33 -15 58q-37 11 -93 11q-163 0 -369 -99q-98 -47 -214 -71q-50 -10 -100 -3q-47 0 -62 36q-6 16 -5 37q46 97 67 97q49 -16 99 -16
q57 0 156 35q33 11 223 89q-146 96 -291 140q-6 1 -12 1q-35 0 -70 -53q-14 -9 -22 -9q-13 0 -13 21q0 16 7 39q11 30 27 55q39 60 98 84q45 12 110 -33q106 -67 237 -123q172 -74 283 -77q30 -4 30 -23q0 -8 -6 -18.5t-29 -48.5q18 -19 60 -39q38 -17 57 -19q11 -1 19 1
q50 2 72 -94z" />
    <glyph glyph-name="dalisolated" unicode="&#x62f;" arabic-form="isolated" 
 />
    <glyph glyph-name="dalfinal" unicode="&#x62f;" horiz-adv-x="889" arabic-form="final" 
d="M973 76q-7 -22 -17 -38q-24 -38 -55 -38h-31q-56 15 -100 46q-104 74 -126 215q-79 -292 -233 -359q-52 -18 -107 -18q-191 0 -231 223q-10 57 -6 160q4 111 22 179q23 74 37 74q9 0 13 -31q-3 -17 -14 -98q-4 -30 -4 -62q0 -196 129 -258q27 -9 62 -9q153 0 262 166
q42 64 28 165q-33 123 -67 285q6 21 21 116q6 44 19 44q12 0 17 -25q3 -19 4 -22q52 -193 121 -451q16 -55 72 -111q60 -59 111 -59t73 -94z" />
    <glyph glyph-name="thalisolated" unicode="&#x630;" horiz-adv-x="473" arabic-form="isolated" 
 />
    <glyph glyph-name="thalfinal" unicode="&#x630;" horiz-adv-x="862" arabic-form="final" 
d="M609 1035q-12 -49 -102 -168q-33 23 -133 86q11 49 96 163q82 -44 139 -81zM973 76q-7 -22 -17 -38q-24 -38 -55 -38h-31q-56 15 -100 46q-104 74 -126 215q-79 -292 -233 -359q-52 -18 -107 -18q-191 0 -231 223q-10 57 -6 160q4 111 22 179q23 74 37 74q9 0 13 -31
q-3 -17 -14 -98q-4 -30 -4 -62q0 -196 129 -258q27 -9 62 -9q153 0 262 166q42 64 28 165q-33 123 -67 285q6 21 21 116q6 44 19 44q12 0 17 -25q3 -19 4 -22q52 -193 121 -451q16 -55 72 -111q60 -59 111 -59t73 -94z" />
    <glyph glyph-name="rehisolated" unicode="&#x631;" arabic-form="isolated" 
 />
    <glyph glyph-name="rehfinal" unicode="&#x631;" horiz-adv-x="803" arabic-form="final" 
d="M854 258q-17 -74 -52 -74q-72 0 -84 6q-55 8 -93 34l-3 8v-1q-10 -53 -25 -110q-2 -8 -14 -48q-57 -181 -262 -235q-35 -7 -158 -19q-65 -5 -116 4t-51 22q0 9 34 19q344 101 492 216q8 6 19 25q2 29 3 63q1 4 2 7q-34 163 -72 248q9 25 59 110q10 15 18 15q9 0 14 -21
q2 -7 14 -36q27 -65 100 -104q51 -28 87 -31q13 0 38 -2q44 -8 50 -96z" />
    <glyph glyph-name="zainisolated" unicode="&#x632;" horiz-adv-x="663" arabic-form="isolated" 
 />
    <glyph glyph-name="zainfinal" unicode="&#x632;" horiz-adv-x="803" arabic-form="final" 
d="M546 742q-12 -49 -102 -168q-33 23 -133 86q11 49 96 163q82 -44 139 -81zM854 258q-17 -74 -52 -74q-72 0 -84 6q-55 8 -93 34l-3 8v-1q-10 -53 -25 -110q-2 -8 -14 -48q-57 -181 -262 -235q-35 -7 -158 -19q-65 -5 -116 4t-51 22q0 9 34 19q344 101 492 216q8 6 19 25
q2 29 3 63q1 4 2 7q-34 163 -72 248q9 25 59 110q10 15 18 15q9 0 14 -21q2 -7 14 -36q27 -65 100 -104q51 -28 87 -31q13 0 38 -2q44 -8 50 -96z" />
    <glyph glyph-name="seenisolated" unicode="&#x633;" arabic-form="isolated" 
 />
    <glyph glyph-name="seenfinal" unicode="&#x633;" horiz-adv-x="1638" arabic-form="final" 
d="M1690 274q-17 -74 -52 -74q-90 0 -171 30q-96 36 -131 102q-3 5 -4 14l-6 -23q-44 -95 -63 -110q-12 -10 -49 -6q-62 6 -119 87q-27 -72 -80 -94q-40 -16 -95 10q2 -71 -16 -132q-68 -238 -236 -350q-126 -83 -282 -83q-45 0 -84 8q-173 34 -243 186q-42 93 -39 197
q9 235 129 416q9 11 32 -3q0 -24 -5 -45q-4 -17 -16 -45q-43 -93 -47 -104q-19 -53 -19 -112q0 -185 121 -269q87 -61 189 -61t229 61q113 54 203 193q22 42 16 104v0q-3 30 -14 56q-33 87 -50 119q-8 15 -6 35q8 43 32 118q5 15 10 15q3 -1 5 -4q14 -19 30 -52
q63 -85 140 -91q21 -1 38 7q26 20 52 91q2 18 6 39q13 38 30 38q7 -5 9 -35q-6 -26 4 -47q21 -31 94 -76q22 -7 31 -3q2 1 3 2q44 18 83 171q3 3 7 3q10 0 23 -16l3 -12l-9 -34q13 -53 111 -89q75 -29 156 -36q44 -8 50 -96z" />
    <glyph glyph-name="seeninitial" unicode="&#x633;" horiz-adv-x="748" arabic-form="initial" 
d="M720 158q-25 -102 -53 -138q-8 -11 -31 -30q-118 -3 -183 87q-15 24 -41 59q-24 -55 -70 -127q-13 -10 -49 -6q-30 3 -71 37q-38 31 -54 60q-2 2 -6 7l-2 1q3 -3 -41 -48q-51 -52 -119 -60q-47 0 -62 36q-6 16 -5 37q46 97 67 97q137 20 174 131q13 40 34 48q7 -6 4 -45
q-5 -27 5 -48q21 -30 94 -76q22 -7 31 -2q2 0 3 1q44 19 83 172q3 3 7 3q10 0 23 -16q26 -90 104 -147q28 -20 53 -20q36 0 57 39q-10 42 -26 112q-3 17 1 35q16 41 52 111q6 13 12 13q3 -1 5 -5q23 -49 23 -158q0 -80 -19 -160z" />
    <glyph glyph-name="seenmedial" unicode="&#x633;" horiz-adv-x="1003" arabic-form="medial" 
d="M1075 76q-26 -76 -72 -76q-52 -6 -150 36q-121 52 -164 134l-14 -47q-44 -95 -63 -110q-12 -10 -49 -6q-29 3 -71 37q-38 31 -54 59q-1 2 -6 7l-2 2q-2 -1 -7 -7v1q-39 -82 -56 -96q-13 -10 -49 -6q-30 3 -71 37q-38 31 -55 60q-1 2 -6 7l-2 1q4 -3 -40 -48
q-51 -52 -119 -60q-8 -1 -25 -1q-47 0 -62 36q-6 16 -5 37q46 98 67 97q4 0 39 5q123 18 160 127q13 40 34 47q6 -5 4 -44q-6 -27 5 -48q20 -30 94 -76q22 -7 31 -2q2 0 3 1q44 19 83 172q3 3 7 3q10 0 22 -16q3 -10 6 -22l-7 -32q1 -15 6 -25q21 -31 94 -76q22 -7 31 -3
q2 1 3 2q44 18 83 171q9 8 23 -5l3 -3t4 -5l3 -12l-2 -6q22 -51 121 -102q90 -46 153 -51q50 2 72 -94z" />
    <glyph glyph-name="sheenisolated" unicode="&#x634;" arabic-form="isolated" 
 />
    <glyph glyph-name="sheenfinal" unicode="&#x634;" horiz-adv-x="1638" arabic-form="final" 
d="M1195 1010q-12 -49 -102 -168q-33 23 -132 85q10 49 96 163q81 -43 138 -80zM1352 787q-12 -49 -102 -168q-33 23 -133 86q11 49 96 163q82 -44 139 -81zM1095 746q-12 -49 -102 -168q-33 24 -133 86q11 49 96 163q82 -44 139 -81zM1690 274q-17 -74 -52 -74
q-90 0 -171 30q-96 36 -131 102q-3 5 -4 14l-6 -23q-44 -95 -63 -110q-12 -10 -49 -6q-62 6 -119 87q-27 -72 -80 -94q-40 -16 -95 10q2 -71 -16 -132q-68 -238 -236 -349q-126 -84 -282 -84q-45 0 -84 8q-173 34 -243 186q-42 93 -39 197q9 235 129 416q9 11 32 -3
q0 -24 -5 -45q-4 -17 -16 -45q-43 -93 -47 -104q-19 -53 -19 -112q0 -185 121 -269q87 -61 189 -61t229 61q113 54 203 193q22 42 16 104v0q-3 30 -14 56q-33 87 -50 119q-8 15 -6 35q8 43 32 118q5 15 10 15q3 -1 5 -4q14 -19 30 -52q63 -85 140 -91q21 -1 38 7
q26 20 52 91q2 18 6 39q13 38 30 38q7 -5 9 -35q-6 -26 4 -47q21 -31 94 -76q22 -7 31 -3q2 1 3 2q44 18 83 171q3 3 7 3q10 0 23 -16l3 -12l-9 -34q13 -53 111 -89q75 -29 156 -36q44 -8 50 -96z" />
    <glyph glyph-name="sheeninitial" unicode="&#x634;" horiz-adv-x="748" arabic-form="initial" 
d="M497 853q-12 -49 -102 -168q-33 23 -132 85q10 49 96 163q81 -43 138 -80zM647 652q-12 -49 -102 -168q-33 23 -133 86q11 49 96 163q82 -44 139 -81zM390 611q-12 -49 -102 -168q-33 24 -133 86q11 49 96 163q82 -44 139 -81zM720 158q-25 -102 -53 -138q-8 -11 -31 -30
q-118 -3 -183 87q-15 24 -41 59q-24 -55 -70 -127q-13 -10 -49 -6q-30 3 -71 37q-38 31 -54 60q-2 2 -6 7l-2 1q3 -3 -41 -48q-51 -52 -119 -60q-47 0 -62 36q-6 16 -5 37q46 97 67 97q137 20 174 131q13 40 34 48q7 -6 4 -45q-5 -27 5 -48q21 -30 94 -76q22 -7 31 -2
q2 0 3 1q44 19 83 172q3 3 7 3q10 0 23 -16q26 -90 104 -147q28 -20 53 -20q36 0 57 39q-10 42 -26 112q-3 17 1 35q16 41 52 111q6 13 12 13q3 -1 5 -5q23 -49 23 -158q0 -80 -19 -160z" />
    <glyph glyph-name="sheenmedial" unicode="&#x634;" horiz-adv-x="1003" arabic-form="medial" 
d="M550 820q-12 -49 -102 -168q-33 23 -132 85q10 49 96 163q81 -43 138 -80zM700 619q-12 -49 -102 -168q-33 23 -133 86q11 49 96 163q82 -44 139 -81zM443 578q-12 -49 -102 -168q-33 24 -133 86q11 49 96 163q82 -43 139 -81zM1075 76q-26 -76 -72 -76q-52 -6 -150 36
q-121 52 -164 134l-14 -47q-44 -95 -63 -110q-12 -10 -49 -6q-29 3 -71 37q-38 31 -54 59q-1 2 -6 7l-2 2q-2 -1 -7 -7v1q-39 -82 -56 -96q-13 -10 -49 -6q-30 3 -71 37q-38 31 -55 60q-1 2 -6 7l-2 1q4 -3 -40 -48q-51 -52 -119 -60q-8 -1 -25 -1q-47 0 -62 36q-6 16 -5 37
q46 98 67 97q4 0 39 5q123 18 160 127q13 40 34 47q6 -5 4 -44q-6 -27 5 -48q20 -30 94 -76q22 -7 31 -2q2 0 3 1q44 19 83 172q3 3 7 3q10 0 22 -16q3 -10 6 -22l-7 -32q1 -15 6 -25q21 -31 94 -76q22 -7 31 -3q2 1 3 2q44 18 83 171q9 8 23 -5l3 -3t4 -5l3 -12l-2 -6
q22 -51 121 -102q90 -46 153 -51q50 2 72 -94z" />
    <glyph glyph-name="sadisolated" unicode="&#x635;" arabic-form="isolated" 
 />
    <glyph glyph-name="sadfinal" unicode="&#x635;" horiz-adv-x="1740" arabic-form="final" 
d="M1812 276q-25 -76 -72 -76q-22 -9 -47 -16q-63 -21 -143 -21q-76 0 -148 21q-111 -28 -294 -40q-4 -12 -16 -82q-19 -33 -37 -33q-13 0 -24 18q1 12 4 38q1 13 9 63q-93 15 -135 35q-2 -22 -6 -46q-1 -3 -2.5 -11.5t-7.5 -30.5q-68 -239 -236 -350q-126 -84 -282 -84
q-46 0 -84 8q-173 35 -243 186q-42 93 -39 197q8 236 129 417q8 10 32 -4q0 -23 -5 -45q-4 -17 -16 -44q-43 -94 -47 -104q-19 -53 -19 -113q0 -185 121 -269q87 -60 189 -60t229 60q113 54 203 194q22 43 16 103q-2 21 -12 61q-33 86 -50 119q-8 15 -6 34q8 44 32 118
q4 15 10 15q4 0 17 -21l2 -4q10 -17 20 -38q79 -130 226 -143q58 226 149 306t232 80q58 0 121 -16q25 -8 46 -20q50 -29 70 -70q4 -28 3 -46q-12 -126 -80 -236q39 15 119 44q51 2 72 -94zM1604 470q-86 72 -236 67q-194 0 -232 -212q372 0 468 145z" />
    <glyph glyph-name="sadinitial" unicode="&#x635;" horiz-adv-x="1092" arabic-form="initial" 
d="M1082 418q-4 -46 -30 -125q-39 -119 -93 -164q-59 -49 -113 -69q-117 -44 -356 -60q-4 -12 -17 -82q-18 -33 -37 -33q-12 0 -23 18q1 12 4 38q1 13 8 62q-113 13 -145 42q-66 62 -72 155l-46 -96q-46 -69 -162 -104q-47 0 -62 36q-6 16 -5 37q46 98 67 97q113 30 156 123
q40 75 63 75q18 0 20 -49q57 -131 222 -136q58 227 149.5 307.5t231.5 80.5q59 0 121 -16q26 -9 47 -21q50 -29 70 -70q4 -28 2 -46zM986 326q-86 73 -237 67q-193 0 -231 -212q372 0 468 145z" />
    <glyph glyph-name="sadmedial" unicode="&#x635;" horiz-adv-x="1128" arabic-form="medial" 
d="M1082 418q-3 -34 -22 -100q-29 -98 -68 -153q101 -7 136 5q50 2 72 -94q-26 -76 -72 -76h-66q-81 4 -294 37q-107 -25 -278 -37q-4 -12 -17 -82q-18 -33 -37 -33q-12 0 -23 18q1 12 4 38q1 13 8 62q-113 13 -145 42q-66 62 -72 155l-46 -96q-46 -69 -162 -104
q-47 0 -62 36q-6 16 -5 37q46 98 67 97q113 30 156 123q40 75 63 75q18 0 20 -49q57 -131 222 -136q58 227 149.5 307.5t231.5 80.5q59 0 121 -16q26 -9 47 -21q50 -29 70 -70q4 -28 2 -46zM986 326q-86 73 -237 67q-193 0 -231 -212q372 0 468 145z" />
    <glyph glyph-name="dadisolated" unicode="&#x636;" arabic-form="isolated" 
 />
    <glyph glyph-name="dadfinal" unicode="&#x636;" horiz-adv-x="1740" arabic-form="final" 
d="M1500 934q-12 -49 -102 -168q-33 23 -133 86q11 49 96 163q82 -44 139 -81zM1813 276q-26 -76 -72 -76q-23 -9 -48 -16q-63 -21 -143 -21q-76 0 -148 21q-111 -28 -294 -40q-4 -12 -16 -82q-19 -33 -37 -33q-13 0 -23 18q0 12 3 38q2 13 9 63q-93 15 -134 35
q-3 -22 -7 -46q-1 -3 -2.5 -11.5t-7.5 -30.5q-68 -239 -236 -350q-126 -84 -282 -84q-45 0 -84 8q-173 35 -242 186q-43 93 -40 197q9 236 129 417q9 10 32 -4q0 -23 -5 -45q-4 -17 -16 -44q-43 -94 -47 -104q-19 -53 -19 -113q0 -185 121 -269q87 -60 189 -60t229 60
q113 54 203 194q23 43 16 103q-2 21 -12 61q-33 86 -50 119q-8 15 -6 34q8 44 32 118q4 15 10 15q4 0 17 -21l2 -4q10 -17 20 -38q79 -130 226 -143q58 226 149 306t232 80q59 0 121 -16q25 -8 46 -20q50 -29 70 -70q4 -28 3 -46q-12 -126 -79 -236q38 15 119 44
q50 2 72 -94zM1604 470q-86 72 -236 67q-194 0 -232 -212q372 0 468 145z" />
    <glyph glyph-name="dadinitial" unicode="&#x636;" horiz-adv-x="1120" arabic-form="initial" 
d="M892 791q-12 -49 -102 -168q-33 24 -133 86q11 49 96 163q82 -44 139 -81zM1082 418q-4 -46 -30 -125q-39 -119 -93 -164q-59 -49 -113 -69q-117 -44 -356 -60q-4 -12 -17 -82q-18 -33 -37 -33q-12 0 -23 18q1 12 4 38q1 13 8 62q-113 13 -145 42q-66 62 -72 155l-46 -96
q-46 -69 -162 -104q-47 0 -62 36q-6 16 -5 37q46 98 67 97q113 30 156 123q40 75 63 75q18 0 20 -49q57 -131 222 -136q58 227 149.5 307.5t231.5 80.5q59 0 121 -16q26 -9 47 -21q50 -29 70 -70q4 -28 2 -46zM986 326q-86 73 -237 67q-193 0 -231 -212q372 0 468 145z" />
    <glyph glyph-name="dadmedial" unicode="&#x636;" horiz-adv-x="1128" arabic-form="medial" 
d="M886 803q-12 -49 -102 -168q-33 23 -133 85q11 50 96 164q82 -44 139 -81zM1082 418q-3 -34 -22 -100q-29 -98 -68 -153q101 -7 136 5q50 2 72 -94q-26 -76 -72 -76h-66q-81 4 -294 37q-107 -25 -278 -37q-4 -12 -17 -82q-18 -33 -37 -33q-12 0 -23 18q1 12 4 38
q1 13 8 62q-113 13 -145 42q-66 62 -72 155l-46 -96q-46 -69 -162 -104q-47 0 -62 36q-6 16 -5 37q46 98 67 97q113 30 156 123q40 75 63 75q18 0 20 -49q57 -131 222 -136q58 227 149.5 307.5t231.5 80.5q59 0 121 -16q26 -9 47 -21q50 -29 70 -70q4 -28 2 -46zM986 326
q-86 73 -237 67q-193 0 -231 -212q372 0 468 145z" />
    <glyph glyph-name="tahisolated" unicode="&#x637;" arabic-form="isolated" 
 />
    <glyph glyph-name="tahfinal" unicode="&#x637;" horiz-adv-x="1108" arabic-form="final" 
d="M1176 76q-26 -76 -72 -76q-140 5 -165 7q-62 7 -156 38q-126 -45 -386 -62q-4 -13 -17 -84q-20 -34 -40 -34q-14 0 -25 19q0 12 4 38q1 15 10 72q-155 16 -294 46q-38 22 -38 38q0 23 78 29q42 -6 279 12q12 53 27 100q13 67 11 133q-3 113 -15 299l-34 436q-2 20 -2 40
q0 81 25 156q6 13 10 21q15 14 20 0q9 -25 25 -70q55 -132 52 -169q-11 -18 -34 -66l24 -286q13 -148 10 -209q-1 -31 -4 -85q27 41 58 67q98 82 250 82q63 0 130 -16q27 -9 49 -21q55 -30 76 -72q4 -29 3 -47q-7 -64 -17 -104q-27 -97 -85 -143q49 1 171 5q62 2 72 -94z
M931 317q-93 75 -255 70q-208 0 -258 -258q406 23 513 188z" />
    <glyph glyph-name="tahinitial" unicode="&#x637;" horiz-adv-x="841" arabic-form="initial" 
d="M830 411q-4 -46 -32 -128q-42 -122 -101 -168q-63 -51 -121 -71q-125 -45 -383 -62q-5 -12 -18 -83q-20 -34 -39 -34q-14 0 -26 18q1 12 4 39q2 14 10 66q-56 5 -124 12q-47 0 -62 36q-6 16 -5 37q46 98 67 97q31 2 59 2q31 0 60.5 -2.5t31.5 -2.5q15 0 17 23q0 2 8 29
q13 67 12 133q-4 113 -15 299l-35 435q-1 20 -1 41q0 81 24 155q6 14 11 22q15 14 20 0q8 -25 25 -70q54 -132 52 -170q-11 -18 -34 -65l24 -286q13 -148 10 -210q-1 -30 -5 -85q28 42 59 68q98 82 249 82q63 0 130 -16q28 -9 50 -22q54 -29 75 -71q5 -29 3 -48zM726 317
q-92 74 -254 69q-208 0 -239 -213q405 23 493 144z" />
    <glyph glyph-name="tahmedial" unicode="&#x637;" horiz-adv-x="894" arabic-form="medial" 
d="M970 77q-25 -76 -72 -76q-140 4 -165 7q-61 7 -156 37q-125 -45 -387 -62q-4 -13 -18 -84q-19 -34 -39 -34q-14 0 -25 19q0 12 3 38q2 14 10 67q-55 4 -121 11q-47 0 -62 36q-6 16 -5 37q46 98 68.5 98.5t44.5 0.5q35 0 67 -5t33 -5q12 0 19 29q1 4 9 28q13 67 11 133
q-3 113 -15 299l-34 436q-2 20 -2 40q0 81 24 156q7 13 11 21q15 14 20 0q9 -25 25 -70q55 -132 52 -169q-11 -18 -34 -66l24 -286q13 -148 10 -209q-1 -31 -4 -85q27 41 58 67q98 82 249 82q64 0 130 -16q28 -9 50 -21q54 -30 75 -72q5 -29 3 -47q-14 -157 -100 -246
q49 1 171 5q62 2 72 -94zM724 317q-93 75 -255 70q-208 0 -249 -228q405 23 504 158z" />
    <glyph glyph-name="zahisolated" unicode="&#x638;" arabic-form="isolated" 
 />
    <glyph glyph-name="zahfinal" unicode="&#x638;" horiz-adv-x="1108" arabic-form="final" 
d="M1176 76q-26 -76 -72 -76q-140 5 -165 7q-62 7 -156 38q-126 -45 -386 -62q-4 -13 -17 -84q-20 -34 -40 -34q-14 0 -25 19q0 12 4 38q1 15 10 72q-155 16 -294 46q-38 22 -38 38q0 23 78 29q42 -6 279 12q12 53 27 100q13 67 11 133q-3 113 -15 299l-34 436q-2 20 -2 40
q0 81 25 156q6 13 10 21q15 14 20 0q9 -25 25 -70q55 -132 52 -169q-11 -18 -34 -66l24 -286q13 -148 10 -209q-1 -31 -4 -85q27 41 58 67q98 82 250 82q63 0 130 -16q27 -9 49 -21q55 -30 76 -72q4 -29 3 -47q-7 -64 -17 -104q-27 -97 -85 -143q49 1 171 5q62 2 72 -94z
M931 317q-93 75 -255 70q-208 0 -258 -258q406 23 513 188zM874 838q-12 -49 -102 -168q-33 23 -133 86q11 49 96 163q82 -44 139 -81z" />
    <glyph glyph-name="zahinitial" unicode="&#x638;" horiz-adv-x="833" arabic-form="initial" 
d="M674 827q-12 -49 -102 -168q-33 23 -133 86q11 49 96 163q82 -44 139 -81zM830 411q-4 -46 -32 -128q-42 -122 -101 -168q-63 -51 -121 -71q-125 -45 -383 -62q-5 -12 -18 -83q-20 -34 -39 -34q-14 0 -26 18q1 12 4 39q2 14 10 66q-56 5 -124 12q-47 0 -62 36
q-6 16 -5 37q46 98 67 97q31 2 59 2q31 0 60.5 -2.5t31.5 -2.5q15 0 17 23q0 2 8 29q13 67 12 133q-4 113 -15 299l-35 435q-1 20 -1 41q0 81 24 155q6 14 11 22q15 14 20 0q8 -25 25 -70q54 -132 52 -170q-11 -18 -34 -65l24 -286q13 -148 10 -210q-1 -30 -5 -85
q28 42 59 68q98 82 249 82q63 0 130 -16q28 -9 50 -22q54 -29 75 -71q5 -29 3 -48zM726 317q-92 74 -254 69q-208 0 -239 -213q405 23 493 144z" />
    <glyph glyph-name="zahmedial" unicode="&#x638;" horiz-adv-x="894" arabic-form="medial" 
d="M970 77q-25 -76 -72 -76q-140 4 -165 7q-61 7 -156 37q-125 -45 -387 -62q-4 -13 -18 -84q-19 -34 -39 -34q-14 0 -25 19q0 12 3 38q2 14 10 67q-55 4 -121 11q-47 0 -62 36q-6 16 -5 37q46 98 68.5 98.5t44.5 0.5q35 0 67 -5t33 -5q12 0 19 29q1 4 9 28q13 67 11 133
q-3 113 -15 299l-34 436q-2 20 -2 40q0 81 24 156q7 13 11 21q15 14 20 0q9 -25 25 -70q55 -132 52 -169q-11 -18 -34 -66l24 -286q13 -148 10 -209q-1 -31 -4 -85q27 41 58 67q98 82 249 82q64 0 130 -16q28 -9 50 -21q54 -30 75 -72q5 -29 3 -47q-14 -157 -100 -246
q49 1 171 5q62 2 72 -94zM724 317q-93 75 -255 70q-208 0 -249 -228q405 23 504 158zM674 827q-12 -49 -102 -168q-33 23 -133 86q11 49 96 163q82 -44 139 -81z" />
    <glyph glyph-name="ainisolated" unicode="&#x639;" arabic-form="isolated" 
 />
    <glyph glyph-name="ainfinal" unicode="&#x639;" horiz-adv-x="696" arabic-form="final" 
d="M879 -435q9 -8 9 -17q0 -21 -46 -37q-227 -69 -367 -69q-17 0 -32 1l1 1h-8q-127 23 -222 82q-200 125 -200 369q0 105 39 231q31 100 102 187q39 49 103 104q-81 69 -180 65q-28 3 -31 24l66 145q17 14 82 33q53 7 87 7q125 0 233 -72q21 -15 21 -48q0 -59 -71 -151
q83 -50 252 -51q50 -3 60 -102q-35 -71 -81 -67q-217 17 -377 141q-9 -6 -18 -13q-67 -47 -129 -107q-24 -30 -43 -63q-7 -11 -19 -37q-7 -19 -10 -40q-5 -36 -5 -70q0 -348 435 -413l15 -2q82 -12 334 -31z" />
    <glyph glyph-name="aininitial" unicode="&#x639;" horiz-adv-x="732" arabic-form="initial" 
d="M712 221q-29 -56 -62 -109q-29 -15 -42 -14q-250 -47 -608 -98q-47 -2 -62 35q-6 16 -5 38q46 98 67 97q54 5 108 3q-66 75 -66 184q0 54 15 102q86 163 217 154q26 -4 55 -17q67 -31 134 -98q15 -34 -31 -31q-81 41 -159 41q-87 0 -142 -57q19 -63 50 -110
q75 -113 200 -130q83 8 303 52q37 10 37 -13q0 -11 -9 -29z" />
    <glyph glyph-name="ainmedial" unicode="&#x639;" horiz-adv-x="546" arabic-form="medial" 
d="M609 76q-7 -22 -17 -37q-24 -37 -55 -39q-134 13 -239 99q-126 -90 -298 -99q-47 -2 -61 35q-7 16 -6 38q13 28 25 48q28 49 42 49q134 1 223 46q-40 53 -104 69q-2 0 -66 6q-12 1 -29 2q-24 7 -7 61q25 106 57 120q101 29 225 23q125 -6 162 -26q28 -15 28 -56
q0 -26 -12 -63q-19 -58 -67 -140q60 -36 127 -42q50 2 72 -94z" />
    <glyph glyph-name="ghainisolated" unicode="&#x63a;" arabic-form="isolated" 
 />
    <glyph glyph-name="ghainfinal" unicode="&#x63a;" horiz-adv-x="711" arabic-form="final" 
d="M411 920q-12 -49 -102 -168q-33 23 -133 86q11 49 96 163q82 -44 139 -81zM879 -435q9 -8 9 -17q0 -21 -46 -37q-227 -69 -367 -69q-17 0 -32 1l1 1h-8q-127 23 -222 82q-200 125 -200 369q0 105 39 231q31 100 102 187q39 49 103 104q-81 69 -180 65q-28 3 -31 24
l66 145q17 14 82 33q53 7 87 7q125 0 233 -72q21 -15 21 -48q0 -59 -71 -151q83 -50 252 -51q50 -3 60 -102q-35 -71 -81 -67q-217 17 -377 141q-9 -6 -18 -13q-99 -70 -136 -117q-20 -25 -36 -53q-7 -11 -19 -37q-7 -19 -10 -40q-5 -36 -5 -70q0 -348 435 -413l15 -2
q82 -12 334 -31z" />
    <glyph glyph-name="ghaininitial" unicode="&#x63a;" horiz-adv-x="727" arabic-form="initial" 
d="M354 847q-12 -49 -102 -168q-33 23 -133 86q11 49 96 163q82 -44 139 -81zM712 221q-29 -56 -62 -109q-29 -15 -42 -14q-250 -47 -608 -98q-47 -2 -62 35q-6 16 -5 38q46 98 67 97q54 5 108 3q-66 75 -66 184q0 54 15 102q86 163 217 154q26 -4 55 -17q67 -31 134 -98
q15 -34 -31 -31q-81 41 -159 41q-87 0 -142 -57q19 -63 50 -110q75 -113 200 -130q83 8 303 52q37 10 37 -13q0 -11 -9 -29z" />
    <glyph glyph-name="ghainmedial" unicode="&#x63a;" horiz-adv-x="544" arabic-form="medial" 
d="M398 752q-12 -49 -102 -168q-33 23 -133 86q11 49 96 163q82 -44 139 -81zM609 76q-7 -22 -17 -37q-24 -37 -55 -39q-134 13 -239 99q-126 -90 -298 -99q-47 -2 -61 35q-7 16 -6 38q13 28 25 48q28 49 42 49q134 1 223 46q-40 53 -104 69q-2 0 -66 6q-12 1 -29 2
q-24 7 -7 61q25 106 57 120q101 29 225 23q125 -6 162 -26q28 -15 28 -56q0 -26 -12 -63q-19 -58 -67 -140q60 -36 127 -42q50 2 72 -94z" />
    <glyph glyph-name="fehisolated" unicode="&#x641;" arabic-form="isolated" 
 />
    <glyph glyph-name="fehfinal" unicode="&#x641;" horiz-adv-x="1394" arabic-form="final" 
d="M1076 805q-12 -49 -102 -168q-33 23 -133 86q11 49 96 163q82 -44 139 -81zM1467 76q-26 -76 -72 -76q-39 -2 -73 0q-159 10 -253 80q-140 -59 -320 -93q-50 -10 -173 -20q-60 -5 -115 -5q-262 0 -382 102q-21 18 -35 41q-9 14 -15 29q-21 57 -21 126q0 55 34 174
q40 140 79 140q17 0 6 -63q-38 -97 -38 -158q0 -57 30 -104q73 -114 403 -121q247 3 461 68l-3 4q-21 54 -21 124q0 80 26 161q23 73 52 105q46 50 117 50q57 0 114 -28q76 -67 76 -174q0 -124 -109 -257q16 -9 60 -18q21 -4 52 1q39 6 48 6q50 2 72 -94zM1246 369
q-51 82 -114 82q-57 0 -94 -50q-14 -19 -12 -34q21 -88 86 -127l11 6q125 63 125 114q0 6 -2 9z" />
    <glyph glyph-name="fehinitial" unicode="&#x641;" horiz-adv-x="441" arabic-form="initial" 
d="M320 904q-12 -49 -102 -168q-33 23 -133 86q11 49 96 163q82 -44 139 -81zM418 208q-22 -105 -170 -163q-116 -45 -248 -45q-69 0 -67 73q13 28 25 48q28 49 42 49q133 2 202 14q124 21 181 79q-10 73 -40 101q-65 -30 -117 -30q-70 0 -90 59q-11 34 -11 79q0 127 44 183
q27 25 64 25q59 0 117 -74q86 -110 86 -252q0 -63 -18 -146z" />
    <glyph glyph-name="fehmedial" unicode="&#x641;" horiz-adv-x="610" arabic-form="medial" 
d="M439 876q-12 -49 -102 -168q-33 23 -133 86q11 49 96 163q82 -44 139 -81zM434 369q-51 82 -113 82q-57 0 -95 -50q-14 -19 -11 -34q20 -88 86 -127l11 6q124 63 124 114q0 6 -2 9zM682 76q-26 -76 -72 -76q-8 0 -27.5 2t-26.5 2q-59 3 -108 9q-116 14 -164 42
q-43 -14 -87 -25q-105 -26 -197 -30q-47 0 -62 36q-6 16 -5 37q46 98 67 97q27 -2 53 -2q78 0 124 17q-28 70 -28 152q0 169 76 253q46 50 117 50q57 0 114 -28q77 -67 77 -174q0 -120 -90 -257q23 -13 78 -13q45 1 89 2q50 2 72 -94z" />
    <glyph glyph-name="qafisolated" unicode="&#x642;" arabic-form="isolated" 
 />
    <glyph glyph-name="qaffinal" unicode="&#x642;" horiz-adv-x="953" arabic-form="final" 
d="M842 732q-12 -49 -102 -168q-33 23 -133 86q11 49 96 163q82 -44 139 -81zM585 691q-12 -49 -102 -168q-33 24 -133 86q11 49 96 163q82 -44 139 -81zM778 57zM1015 240q-25 -76 -72 -76q-19 -3 -38 -5q-3 -80 -22 -156q-73 -219 -236 -322q-123 -77 -272 -77
q-45 0 -84 8q-173 35 -243 186q-42 93 -39 197q9 235 129 416q9 11 32 -3q0 -24 -5 -45q-4 -17 -16 -45q-43 -93 -47 -104q-19 -53 -19 -112q0 -185 121 -269q87 -61 189 -61t229 61q135 64 203 194q19 35 19 72q0 31 -9 53q-37 -2 -70 -1q-40 0 -95 4q-47 10 -62 56
q-11 34 -11 79q0 127 44 183q27 25 63 25q60 0 117 -74q37 -46 53 -98q40 3 69 8q50 2 72 -94z" />
    <glyph glyph-name="qafinitial" unicode="&#x642;" horiz-adv-x="451" arabic-form="initial" 
d="M451 910q-12 -49 -102 -168q-33 23 -133 86q11 49 96 163q82 -44 139 -81zM235 869q-13 -49 -102 -168q-34 24 -133 86q10 49 96 163q81 -44 139 -81zM418 208q-22 -105 -170 -163q-116 -45 -248 -45q-69 0 -67 73q13 28 25 48q28 49 42 49q133 2 202 14q124 21 181 79
q-10 73 -40 101q-65 -30 -117 -30q-70 0 -90 59q-11 34 -11 79q0 127 44 183q27 25 64 25q59 0 117 -74q86 -110 86 -252q0 -63 -18 -146z" />
    <glyph glyph-name="qafmedial" unicode="&#x642;" horiz-adv-x="612" arabic-form="medial" 
d="M536 887q-12 -49 -102 -168q-33 23 -133 86q11 49 96 163q82 -44 139 -81zM308 846q-12 -49 -102 -168q-33 24 -133 86q11 49 96 163q82 -44 139 -81zM434 369q-51 82 -113 82q-57 0 -95 -50q-14 -19 -11 -34q20 -88 86 -127l11 6q124 63 124 114q0 6 -2 9zM682 76
q-26 -76 -72 -76q-8 0 -27.5 2t-26.5 2q-59 3 -108 9q-116 14 -164 42q-43 -14 -87 -25q-105 -26 -197 -30q-47 0 -62 36q-6 16 -5 37q46 98 67 97q27 -2 53 -2q78 0 124 17q-28 70 -28 152q0 169 76 253q46 50 117 50q57 0 114 -28q77 -67 77 -174q0 -120 -90 -257
q23 -13 78 -13q45 1 89 2q50 2 72 -94z" />
    <glyph glyph-name="kafisolated" unicode="&#x643;" arabic-form="isolated" 
 />
    <glyph glyph-name="arabickaffinal" unicode="&#x643;" horiz-adv-x="1461" arabic-form="final" 
d="M1525 76q-26 -76 -72 -76q-36 -5 -77 0q-35 6 -66 23q-73 43 -111 137v0q-14 -11 -60 -38q-173 -87 -398 -130q-50 -9 -173 -19q-60 -5 -115 -5q-262 0 -382 102q-21 17 -35 40q-9 15 -15 30q-21 57 -21 126q0 54 34 174q40 140 79 140q17 0 6 -63q-38 -97 -38 -158
q0 -57 30 -104q73 -114 403 -121q381 4 650 147q-7 61 -14 157l-3 25l-32 611q0 6 3 12q23 66 47 102q16 14 20 -1q7 -45 20 -185l36 -527q19 -292 212 -305q50 2 72 -94zM936 660q10 -17 10 -44q0 -45 -24 -104q-40 -14 -257 -57q-10 -38 -31 -105q-13 -31 -23 -31
q-4 0 -6 3q-5 35 -4 54q0 1 20 71q-112 -18 -202 -16l-77 36q-27 16 -27 26q0 5 7 6q169 -2 319 23q8 36 24 97q-32 -3 -57 -5t-47 -2q-148 0 -140 93q45 181 262 214q7 1 11 1q56 -26 56 -79q0 -16 -4 -34q-2 -26 -19 -97l64 6q27 3 46 3q64 0 99 -59zM904 571
q-4 73 -104 64q-31 -3 -91 -10q-6 -31 -20 -97q93 15 215 43zM693 759q7 63 -38 75q-129 -15 -197 -123q17 -21 115 -21q103 0 111 13q3 17 9 56z" />
    <glyph glyph-name="kafinitial" unicode="&#x643;" horiz-adv-x="742" arabic-form="initial" 
d="M268 216q5 3 9 7q0 4 -1 7q-60 219 -285 482q-7 6 -17 22q-4 10 -2 25q2 10 11 36q6 17 20 37q19 35 60 61l2 1q50 32 584 231l63 24q12 4 20 4q15 0 15 -13q0 -14 -18 -42q-10 -15 -78 -84q-8 -7 -27 -23q-16 -12 -44.5 -25.5t-200.5 -77.5q-151 -57 -278 -124l-4 -2
q111 -135 182 -275.5t71 -234.5q0 -39 -9 -76q-1 -6 -4 -13q-27 -63 -77 -103q-82 -50 -260 -60q-62 0 -67 73q1 23 8 42q17 44 59 55q149 1 268 46z" />
    <glyph glyph-name="kafmedial" unicode="&#x643;" horiz-adv-x="932" arabic-form="medial" 
d="M1024 83q-13 -54 -92 -83q-35 -6 -81 -6q-139 0 -260 54q-36 20 -68 48q-79 67 -129 166q-4 -79 -13 -171q-12 -33 -36 -48q-73 -45 -261 -45q-40 0 -84 2q-70 0 -67 73q13 28 25 48q28 49 42 49q220 -3 302 23q40 12 40 24q0 6 -4 12q-12 25 -71 118q-67 100 -262 343
l-18 39v4q-6 22 -5 47l-1 13q3 11 11 39l7 23q3 18 50 64l3 2q50 31 704 298l63 24q11 4 20 4q15 0 15 -12q0 -14 -18 -42q-10 -16 -78 -84q-14 -13 -29 -24q-21 -15 -42 -25q-131 -55 -262 -111q-207 -87 -338 -159q-1 0 -8 -4q239 -293 309 -365q46 -55 183 -190
q53 -33 168 -55q122 -8 193 2q24 -15 42 -29q44 -36 50 -66z" />
    <glyph glyph-name="lamisolated" unicode="&#x644;" arabic-form="isolated" 
 />
    <glyph glyph-name="lamfinal" unicode="&#x644;" horiz-adv-x="1185" arabic-form="final" 
d="M1257 76q-26 -76 -72 -76q-36 -5 -86 -6q-34 7 -64 24q-72 42 -110 132q-16 -56 -38 -108q-67 -193 -224 -283q-119 -68 -265 -68q-49 0 -89 8q-173 34 -243 186q-43 93 -39 197q8 235 129 416q8 11 32 -3q0 -24 -5 -45q-4 -17 -17 -45q-42 -93 -46 -104
q-19 -53 -19 -112q0 -185 121 -269q86 -60 188 -60t229 60q109 51 181 158q15 27 27 65q20 65 23 191q3 104 1 111l-31 545q-1 12 -4 161q0 5 2 12q24 65 48 102q16 13 20 -2l18 -231l39 -563q21 -292 222 -299q50 2 72 -94z" />
    <glyph glyph-name="laminitial" unicode="&#x644;" horiz-adv-x="293" arabic-form="initial" 
d="M264 411q1 -64 -3 -105v-4q-3 -26 -8 -47h-2q-8 -34 -20 -64h1q8 19 13 36q-5 -19 -12 -37l-1 1q-9 -22 -24 -50q-80 -115 -208 -141q-47 0 -62 36q-6 16 -5 37q46 97 67 97q156 18 186 98q-1 125 -22 288q-16 142 -40 418l-3 32q-1 20 -1 41q0 81 24 155q6 14 11 22
q14 14 20 0q8 -25 25 -70q54 -132 51 -170q-11 -18 -34 -65q13 -107 45 -442q2 -20 2 -66z" />
    <glyph glyph-name="lammedial" unicode="&#x644;" horiz-adv-x="441" arabic-form="medial" 
d="M513 76q-26 -76 -72 -76q-36 -5 -77 0q-35 7 -65 25q-73 44 -111 138q-41 -98 -104 -137q-39 -20 -84 -26q-47 0 -62 36q-6 16 -5 37q46 97 67 97q53 0 91 17q36 24 42.5 85.5t4.5 165.5l-3 25l-29 532q-1 13 -4 161q0 6 2 12q23 66 47 102q17 14 20 -1l19 -232l39 -562
q20 -292 212 -305q50 2 72 -94z" />
    <glyph glyph-name="meemisolated" unicode="&#x645;" arabic-form="isolated" 
 />
    <glyph glyph-name="meemfinal" unicode="&#x645;" horiz-adv-x="1065" arabic-form="final" 
d="M1137 76q-26 -76 -72 -76q-150 -2 -247 70q-18 -43 -78 -121q-79 -82 -199 -84q-101 24 -146 97q-40 -69 -119 -149q-10 -10 -17.5 -15t-26.5 -13q-115 -29 -196 -42q-31 3 -31 14t28 26q228 104 339 234q-15 52 -7 104q13 127 83 204q60 65 134 71q73 5 223 -115
q53 -43 160 -102q33 -2 100 -9q50 2 72 -94zM752 92q-65 73 -170 122q-14 4 -28 4q-65 0 -128 -63q13 -48 70 -84q53 -33 111 -33q78 0 145 54z" />
    <glyph glyph-name="meeminitial" unicode="&#x645;" horiz-adv-x="761" arabic-form="initial" 
d="M709 511q36 -81 36 -177q0 -113 -55 -222q-1 -4 -19 -11q-50 12 -96 27q-109 36 -175 84q-6 -45 -35 -82q-130 -119 -367 -132q-47 0 -62 36q-6 16 -5 37q46 98 67 97q177 -37 352 153q79 187 171 237q38 19 78 19q46 0 80 -26q9 -7 16 -17q4 -4 14 -23zM665 271
q7 100 -59 148q-18 6 -35 6q-58 0 -104 -63q35 -38 198 -91z" />
    <glyph glyph-name="meemmedial" unicode="&#x645;" horiz-adv-x="872" arabic-form="medial" 
d="M552 199q1 0 1 2q0 18 -26 57q-32 48 -71 54q-63 5 -103 -40zM734 25q-24 17 -45 35q-51 43 -73 83l-49 -99q-12 -16 -29 -8q-122 38 -286 99q-19 -30 -46 -54q-65 -57 -160 -75q-22 -4 -46 -6v171q45 1 84 3q98 6 148 64q69 112 132 173q59 62 118 62q47 0 87 -38
q26 -24 91 -140q23 -61 120 -114q43 -10 92.5 -9.5t71.5 -95.5q-26 -76 -72 -76q-53 3 -138 25z" />
    <glyph glyph-name="noonisolated" unicode="&#x646;" arabic-form="isolated" 
 />
    <glyph glyph-name="noonfinal" unicode="&#x646;" horiz-adv-x="1032" arabic-form="final" 
d="M610 385q-12 -50 -102 -169q-33 24 -132 86q10 49 96 163q81 -43 138 -80zM1104 276q-7 -22 -17 -38q-24 -37 -55 -38q-47 0 -104 39l-6 7v-6q-1 -82 -27 -171q-68 -239 -236 -350q-126 -83 -282 -83q-45 0 -84 7q-172 35 -242 186q-43 93 -39 197q8 236 128 417
q9 11 33 -4q0 -23 -4.5 -42.5t-17.5 -46.5q-43 -94 -47 -104q-19 -53 -19 -113q0 -185 121 -269q87 -60 189 -60t229 60q114 54 203 194q6 11 10 24q3 85 -23 204q-16 63 -31 127q-6 45 17 96q15 32 38 66q9 13 15 13q3 -1 5 -5q3 1 17 -60q2 -51 44 -99q48 -53 113 -54
q50 -1 72 -94z" />
    <glyph glyph-name="nooninitial" unicode="&#x646;" horiz-adv-x="415" arabic-form="initial" 
d="M255 881q-12 -49 -102 -168q-33 23 -133 86q11 49 96 163q82 -44 139 -81zM129 10q-29 -4 -129 -10q-38 -2 -48 90q6 23 13 39q16 40 35 43q74 -5 129 7q88 19 177 77q-1 38 -9 66q-19 65 -75 193q-6 16 -2 35q12 42 42 115q5 14 11 14q3 -1 5 -4q101 -172 101 -345
q0 -29 -4 -56q-6 -39 -28 -100q-25 -71 -46 -89q-25 -16 -51 -30q-63 -33 -121 -45z" />
    <glyph glyph-name="noonmedial" unicode="&#x646;" horiz-adv-x="415" arabic-form="medial" 
d="M327 610q-12 -49 -102 -168q-33 23 -133 86q11 49 96 163q82 -44 139 -81zM457 74q-33 -74 -42 -74q-54 2 -76 8q-57 15 -91 63q-15 24 -42 58q-16 -55 -84 -92q-59 -33 -122 -37q-20 37 -41 88q-6 82 41 82q9 0 25 -1.5t23 -0.5q112 9 148 92q17 40 26 85q3 2 7 3
q10 0 23 -16q27 -90 104 -148q21 -14 58 -14q21 0 43 -96z" />
    <glyph glyph-name="hehisolated" unicode="&#x647;" arabic-form="isolated" 
 />
    <glyph glyph-name="hehfinal" unicode="&#x647;" horiz-adv-x="764" arabic-form="final" 
d="M805 74q-16 -36 -42 -74q-34 -8 -59 -9q-179 22 -219 272q-26 -44 -85 -100q-78 -61 -254 -47q-82 7 -127 52q-12 12 -18 33q-1 15 -1 30q0 98 60 202q71 122 399 205v10q-1 -3 22 77q18 66 37 66t32 -61q-3 -52 -3 -103q0 -269 75 -375q38 -53 140 -82q21 0 43 -96z
M473 367l-9 162q-93 -18 -166 -42q-174 -59 -220 -138q24 -23 68 -48q42 -6 90 -6q175 0 237 72z" />
    <glyph glyph-name="hehinitial" unicode="&#x647;" horiz-adv-x="681" arabic-form="initial" 
d="M678 275q-16 -101 -56 -163q-33 -39 -101 -36q-154 7 -269 44q-129 -112 -252 -120q-20 37 -41 88q-6 82 41 82q30 1 61 2q24 2 62 18q-6 5 -10 11q-42 33 -42 108q0 33 9 72q19 58 44 107q60 116 141 166l27 110q10 22 19 22t15 -18q28 -79 130 -166q30 -25 114 -100
q111 -106 111 -195q0 -16 -3 -32zM585 250q10 0 -4 13q-32 51 -109 118q-26 23 -49 38q-7 -22 -27 -85q-12 -33 -28 -68q87 -18 217 -16zM350 378q5 43 -17 82t-46 41q-85 9 -125 -101q-3 -9 -6 -35q-2 -11 9 -20q43 -29 111 -50q58 32 74 83z" />
    <glyph glyph-name="hehmedial" unicode="&#x647;" horiz-adv-x="656" arabic-form="medial" 
d="M728 76q-26 -76 -72 -76h-107q-26 -296 -175 -325q-14 -3 -30 -3q-122 0 -146 121q-20 103 14 233q-120 -21 -212 -26q-47 0 -62 36q-6 16 -5 37q46 98 67 97q62 5 118 13q44 52 236 527q18 69 37 69q5 0 10 -5q43 -44 82 -112q69 -120 69 -239q0 -122 -75 -232
q113 -23 179 -21q50 2 72 -94zM469 335q-6 91 -99 235q-31 -95 -167 -374q219 41 266 139zM471 -18q0 55 -116 55q-39 0 -80 -6q-10 -36 -10 -66q0 -109 95 -109t111 126z" />
    <glyph glyph-name="wawisolated" unicode="&#x648;" arabic-form="isolated" 
 />
    <glyph glyph-name="wawfinal" unicode="&#x648;" horiz-adv-x="649" arabic-form="final" 
d="M740 228q-11 -22 -25 -37q-31 -38 -66 -41q-6 -3 -32 -7q-8 -60 -29 -126q-63 -160 -253 -210q-35 -7 -158 -20q-65 -4 -114 4q-53 9 -53 22q0 10 34 20q344 100 492 216q10 9 24 32q5 20 0 40q-2 7 -8 18q-24 -1 -88 -4q-61 -3 -82 3q-41 11 -55 55q-12 35 -12 80
q0 126 44 182q27 25 64 25q59 0 117 -73q37 -48 55 -89q12 -2 54 2q56 -1 91 -92z" />
    <glyph glyph-name="alefmaksuraisolated" unicode="&#x649;" arabic-form="isolated" 
 />
    <glyph glyph-name="alefmaksurafinal" unicode="&#x649;" horiz-adv-x="904" arabic-form="final" 
d="M904 285q-226 18 -242 5q-37 -31 -33 -50q4 -21 35 -23q-7 0 47 2q42 1 74 1q134 0 129 -102q-4 -16 -18 -65l-2 -6q-38 -115 -83 -182q-48 -69 -144 -145q-142 -111 -278 -111q-41 0 -100 12q-172 35 -245 196q-45 101 -41 207q8 235 132 500q15 11 32 -4q1 -20 -22 -90
q-64 -141 -77 -285q-6 -73 23 -153q35 -98 111 -150q84 -58 184 -58q99 0 234 58q130 72 212 209q-15 54 -169 41q-82 10 -97 57q-17 44 -5 109q3 7 8 23q37 101 149 146q74 31 159 31q37 0 27 -3l55 -87z" />
    <glyph glyph-name="yehisolated" unicode="&#x64a;" arabic-form="isolated" 
 />
    <glyph glyph-name="yehfinal" unicode="&#x64a;" horiz-adv-x="908" arabic-form="final" 
d="M687 -497q-11 -45 -91 -152q-31 21 -120 78q10 44 86 147q73 -40 125 -73zM456 -534q-12 -44 -92 -152q-30 21 -119 78q9 44 86 147q73 -40 125 -73zM904 288q-226 18 -242 5q-37 -31 -33 -50q4 -21 35 -23q-7 0 47 1q42 2 74 2q134 0 129 -103q-4 -16 -18 -64l-2 -6
q-38 -116 -83 -182q-48 -70 -144 -145q-142 -111 -278 -111q-41 0 -100 12q-172 34 -245 196q-45 101 -41 206q8 236 132 500q15 12 32 -3q1 -20 -22 -90q-64 -141 -77 -285q-6 -74 23 -153q35 -98 111 -150q84 -59 184 -59q99 0 234 59q130 72 212 208q-15 54 -169 41
q-82 11 -97 58q-17 44 -5 109q3 7 8 22q37 101 149 147q74 31 159 31q37 0 27 -3l55 -87z" />
    <glyph glyph-name="yehinitial" unicode="&#x64a;" horiz-adv-x="415" arabic-form="initial" 
d="M148 -182q-26 -45 -70 -103q-30 21 -119 77q9 45 86 147q59 -31 106 -60q24 43 65 97q73 -39 125 -72q-11 -45 -92 -152q-26 19 -101 66zM129 10q-29 -4 -129 -10q-38 -2 -48 90q6 23 13 39q16 40 35 43q74 -5 129 7q88 19 177 77q-1 38 -9 66q-19 65 -75 193
q-6 16 -2 35q12 42 42 115q5 14 11 14q3 -1 5 -4q101 -172 101 -345q0 -29 -4 -56q-18 -118 -68 -184q-2 -2 -6 -5q-25 -16 -51 -30q-63 -33 -121 -45z" />
    <glyph glyph-name="yehmedial" unicode="&#x64a;" horiz-adv-x="415" arabic-form="medial" 
d="M457 74q-33 -74 -42 -74q-54 2 -76 8q-57 15 -91 63q-15 24 -42 58q-16 -55 -84 -92q-59 -33 -122 -37q-20 37 -41 88q-6 82 41 82q9 0 25 -1.5t23 -0.5q112 9 148 92q17 40 26 85q3 2 7 3q10 0 23 -16q27 -90 104 -148q21 -14 58 -14q21 0 43 -96zM187 -225
q-26 -43 -68 -98q-30 21 -119 77q9 44 86 147q54 -29 100 -57q24 42 63 94q73 -40 124 -73q-11 -44 -91 -151q-25 17 -95 61z" />
    <glyph glyph-name="zerowidthnobreakspace" unicode="&#xfdfa;" horiz-adv-x="3205" arabic-form="isolated" 
d="M2813 1549q-12 -55 -21 -74q-19 -40 -55 -50q-35 8 -50 26q-25 40 -25 101q0 36 21 149l28 84q18 47 40 79q3 -1 5 -3q-20 -63 -41 -127q-23 -75 -23 -132q0 -25 4 -49q9 -24 15 -33q12 -19 30 -21q21 -5 34 8q9 17 28 51q10 7 10 -9zM2957 1474q4 -29 -19 -104
q-37 54 -68 58q-16 0 -25 -18l-17 -34q-19 -47 -37 -156q-18 -103 -40 -151h-13q-11 106 -73 175l-16 -16q-12 13 -108 65q1 0 6 61q4 38 23 49q96 -13 157 -129q9 -36 27 -81q18 30 28 99q11 73 26 103q13 37 26 73q17 42 48 54q51 -5 75 -48zM1726 2314q20 -54 20 -107
q0 -61 -27 -114q-14 -17 -12 2q5 70 -15 145q-3 10 -2 12q1 10 17 63q12 19 19 -1zM3110 1209q-14 -32 -48 -89q-7 -5 -22 -15q-8 -5 -533 -253q-19 -2 -11 15q22 50 31 72q2 3 11 10q485 225 532 259q36 22 38 22q12 -3 2 -21zM3043 750q-9 -37 -15 -50q-13 -28 -38 -35
q-23 6 -34 18q-17 27 -17 69q0 25 14 102q12 39 47 112q2 -1 4 -3l-28 -86q-16 -52 -16 -90q0 -17 4.5 -34t8.5 -23q8 -13 20 -14q14 -4 24 5q6 12 18 35q8 5 8 -6zM1880 2000q11 -77 -19 -115q-12 -11 -59 -23q-10 12 -22 31q-3 -13 -18 -34q-23 -15 -57 -8q-25 4 -27 62
q-3 77 4 98q4 9 11 21q10 4 12 -8q-5 -57 -2 -95q1 -13 12 -16q7 -4 18 -4q8 2 26 12q3 2 4 16q-4 65 -3 68q3 18 14 43q8 -8 17 -34q1 -24 4 -57t23 -37q28 -2 41 12l-13 84q-2 12 -1 14q0 1 2 8q4 12 10 22q8 20 11 0q6 -27 12 -60zM2427 639q-5 -113 -44 -206
q-3 -8 -15 -10q-8 4 -9 18q2 50 -44 877q-1 12 -39 499l-2 25q-7 80 18 155q4 10 8 16q12 12 16 0q6 -19 20 -55q42 -104 40 -133q-8 -14 -26 -52zM1496 2105q5 -26 5 -46q0 -99 -88 -184q-70 -66 -172 -112h-5q-17 1 -17 15t23 32q106 58 125 83q-51 37 -51 95q0 41 23 96
q26 59 57 74q9 4 25 4q65 0 75 -57zM2665 564q-9 -37 -15 -51q-13 -27 -38 -34q-23 6 -34 18q-17 27 -17 69q0 25 14 102q12 38 47 111q2 0 4 -2l-28 -86q-16 -52 -16 -91q0 -17 2 -33q7 -17 11 -23q8 -13 20 -14q14 -4 24 5q6 12 18 35q8 5 8 -6zM973 2057q-14 -32 -48 -90
q-7 -4 -22 -14q-8 -5 -236 -112q-18 -2 -11 15q23 50 32 72q1 3 11 10q198 92 234 118q36 22 38 21q11 -2 2 -20zM2021 683q-8 -38 -14 -51q-13 -28 -38 -34q-24 5 -34 18q-17 27 -17 68q0 25 14 102q12 39 47 112q2 -1 3 -2q-14 -44 -28 -87q-16 -52 -16 -90
q0 -17 4.5 -33.5t8.5 -23.5q9 -12 21 -14q14 -4 23 5q6 12 19 35q7 5 7 -5zM1881 957q-13 -33 -48 -90q-7 -5 -22 -15q-8 -5 -235 -112q-19 -1 -11 15q22 50 31 73q2 3 11 10q199 92 235 118q35 22 37 21q12 -2 2 -20zM2518 -74q-9 -37 -15 -50q-13 -28 -38 -34
q-23 5 -34 17q-16 28 -16 69q0 25 14 102q11 39 46 112q2 -1 4 -3l-28 -86q-16 -52 -16 -90q0 -17 4.5 -33.5t8.5 -23.5q8 -12 20 -14q15 -4 24 5q6 12 19 35q7 5 7 -6zM1036 1504q0 -57 -25 -138q-50 -127 -200 -166q-28 -6 -124 -16q-51 -3 -91.5 4t-40.5 17q0 8 27 16
q271 79 387 170q8 7 19 25q4 16 0 32q-3 14 -21 34q-51 -24 -92 -24q-55 0 -71 47q-8 26 -8 62q0 100 34 144q22 20 50 20q47 0 92 -58q64 -82 64 -169zM2156 1647q31 -86 31 -183q0 -185 -101 -229q-91 -38 -151 -3q-47 28 -72 90q-27 -121 -137 -132q-35 6 -63 32
q-41 -130 -41 -165q0 -17 4.5 -33.5t8.5 -22.5q9 -13 21 -14q14 -4 24 5q5 12 18 35q7 5 7 -6q-8 -37 -14 -51q-13 -27 -38 -34q-24 6 -34 18q-17 27 -17 69q0 25 14 102q11 35 41 102q-44 45 -67 138q-25 -56 -74 -86q-34 -27 -107 -35q6 -4 7.5 -20t26.5 -351t26 -357
q11 -203 131 -217q-7 42 -7 81q0 163 92 224q39 26 82 26q56 0 109 -43q44 -36 48.5 -56.5t-13.5 -20.5q-17 0 -48 13l-96 23q-66 0 -101 -45q-14 -33 -14 -68q0 -47 29 -79q36 -37 97 -37q40 0 86 18q46 31 101 67q13 10 19 10t6 -7q0 -5 -2 -11q-11 -45 -29 -100
q-131 -165 -306 -165q-46 4 -85 20q-94 40 -136 134q-31 -76 -80 -106q-21 -11 -37 -15l-29 -6q-57 -3 -86 17q-44 32 -63 83q-37 -85 -169 -119q-14 -3 -25 -4q-142 0 -197 192q-17 -38 -58 -87q-28 -28 -94 -46q-32 -95 -32 -139q0 -17 2 -33q7 -17 11 -23q8 -13 20 -15
q14 -3 24 6q6 11 18 35q8 5 8 -6q-9 -38 -15 -51q-13 -28 -38 -34q-23 5 -34 18q-17 27 -17 68q0 25 14 103q7 22 24 68q-43 -10 -85 -12q-65 -2 -104 29q-10 8 -17 23q-6 28 -6 56q0 62 30 132q43 102 292 199l-1 7q0 -2 10 63q8 55 23 55t31 -45q14 -270 102 -367
q32 -36 99 -47q103 -2 136 73q21 65 36 65q13 0 19 -52q30 -83 119 -83q25 0 52 7l4 1q13 3 23 7v-1q51 19 63 70q1 0 2 1q-2 12 -5 55l-51 621q-3 44 6 91q1 12 25 76q1 2 1 3q11 22 19 27q-44 -5 -86 -1q-65 5 -100 41q-9 9 -14 25q-1 12 -1 25q0 77 47 159q56 96 315 161
v8q-1 -2 17 61q4 13 7 16q7 23 13 23q9 0 14 -41q5 -20 36 -255q6 -50 27 -95q22 -41 70 -41q47 0 82 32q11 16 11 53q0 9 -14.5 128t-15.5 135q-1 28 -2 42q-2 22 24 96q10 20 18 20v0q11 -1 15 -36q4 -21 18 -152q14 -134 15 -160q2 -79 82 -126q23 -4 44 -4q42 0 88 26
q22 13 17 32q-1 24 -12 60q-25 88 -61 220q-10 38 -7 85q2 26 25 100q8 21 14 21t9 -17q3 -46 59 -237zM667 1484q-8 -38 -15 -51q-13 -28 -37 -34q-24 5 -35 18q-16 27 -16 68q0 25 14 103q11 38 47 111q1 0 3 -2q-14 -43 -28 -87q-16 -51 -16 -90q0 -17 4.5 -33.5
t8.5 -22.5q8 -13 21 -14q14 -4 23 5q6 11 19 35q7 5 7 -6zM3156 461q-4 -36 -24 -99q-31 -94 -74 -129q-46 -39 -89 -55q-92 -34 -281 -47q-3 -9 -12 -64q-15 -26 -30 -26q-10 0 -18 14q0 9 3 30q1 10 7 49q-90 10 -115 33q-30 28 -45 66q-32 -72 -79 -102q-38 -19 -82 -22
q-24 3 -45 12q-52 21 -86 71q-4 -19 -7 -33q-1 -8 -19 -60q-6 -12 12 -14q11 0 57 -9q52 -15 48 -72q-2 -28 -7 -50q-11 -55 -34 -79q-29 -31 -57 -52q-51 -39 -125 -70q-239 -103 -371 -142q-261 -77 -534 -77q-38 0 -76 1q-132 11 -243 34q-267 55 -387 164
q-98 130 -98 171q0 14 15 14q5 0 13 -2q140 -116 333 -174q197 -59 431 -59q332 0 711 116q207 63 364 137q6 31 -33 40q-16 4 -39 4l-96 2q2 0 -45 1q-20 0 -24.5 6.5t-1.5 23.5q18 70 37 79l20 2q3 1 5 0q73 12 82.5 17.5t21.5 38.5q7 18 5 79q-1 57 -5 76q-7 25 -22 165
l-41 690q0 5 2 10q18 52 37 80q13 11 16 -1l43 -535q15 -218 18 -235q5 -76 24 -148q12 -45 53 -75q19 -9 49 -12q9 -1 17 0q99 -1 118 79q1 23 3 38q6 38 18 40q6 1 13 -11v1q42 -112 179 -116q46 179 118 242.5t182 63.5q47 0 96 -13q20 -6 36 -16q40 -23 55 -55
q4 -22 3 -36zM1852 -74q-8 -37 -15 -50q-13 -28 -37 -34q-24 5 -35 17q-16 28 -16 69q0 25 14 102q11 39 46 112q2 -1 4 -3l-28 -86q-16 -52 -16 -90q0 -17 4.5 -33.5t8.5 -23.5q8 -12 20 -14q15 -4 24 5q6 12 19 35q7 5 7 -6zM250 1484q-9 -38 -15 -51q-13 -28 -38 -34
q-23 5 -34 18q-17 27 -17 68q0 25 14 103q12 38 47 111q2 0 4 -2q-14 -43 -28 -87q-16 -51 -16 -90q0 -17 2 -33q7 -17 11 -23q8 -13 20 -14q14 -4 24 5q6 11 18 35q8 5 8 -6zM1211 926q-19 -80 -41 -109q-7 -9 -25 -24q-93 -2 -144 69q-11 19 -32 46q-19 -42 -55 -99
q-10 -8 -39 -5q-23 2 -54.5 28t-44.5 48l-6 7q3 -2 -32 -38q-40 -42 -94 -48q-19 -2 -69 4v1q-103 22 -148 148q-32 -66 -73 -90q35 -32 73 -83q-1 -99 -68 -152q-65 -7 -130 -13q-72 -11 -113 -46q22 -97 44 -195q29 -133 37 -265q5 -107 -30 -206q-14 -37 -24 -22l-1 15
q-3 204 -47 394q-21 68 -49 245q-9 159 112 216q27 9 58 15q19 3 19 7q-1 4 -7 12q-18 25 -47 25q-22 0 -53 -16q-42 -29 -45 -29q-12 0 -20 19q-9 30 11 73q11 26 51 59q36 21 73 24q65 14 119 32q70 33 88 77q-6 46 -13 116l-23 386l-3 127q0 5 1 10q19 52 38 80
q13 11 16 -1l45 -593q5 -76 24 -148q14 -52 66 -83q46 -13 100 -5q96 14 125 100q11 32 27 37q5 -4 3 -35q-4 -21 4 -37q16 -25 74 -60q17 -6 25 -3l2 2q35 14 66 135q8 8 23 -10q21 -71 82 -116q22 -16 42 -16q28 0 44 31q-7 33 -19 89q-3 13 0 27q12 33 41 87q8 17 13 7
q19 -39 19 -125q0 -63 -16 -126zM1525 -124q-9 -38 -15 -51q-13 -28 -38 -34q-23 5 -34 18q-16 27 -16 68q0 25 14 102q11 39 46 112l4 -2q-14 -44 -28 -87q-16 -51 -16 -90q0 -17 4.5 -33.5t8.5 -23.5q8 -12 20 -14q14 -3 24 6q6 11 18 35q8 5 8 -6zM1157 683
q11 -15 -8 -51q-37 -72 -76 -99q-46 -30 -113 -41q-20 -3 -21 6q-1 4 1 10q14 16 87 49q59 27 68 45q-20 38 -104 19q-8 -2 -10 4q10 29 34 71q9 9 26 12q81 18 116 -25zM1246 1q-10 -38 -81 -132q-26 18 -104 67q8 39 75 129q65 -34 110 -64zM1043 -31q-10 -39 -80 -132
q-27 18 -105 67q8 39 76 129q64 -35 109 -64zM1453 2026q-2 66 -52 65q-34 -1 -41 -44q-7 -49 20 -64q23 -13 59 6q14 12 14 37zM3079 388q-67 57 -186 53q-73 0 -124 -47.5t-59 -119.5q294 0 369 114zM1573 1440l-7 127q-73 -14 -130 -33q-137 -46 -174 -109q20 -17 54 -38
q33 -4 71 -4q138 0 186 57zM726 405l-23 126q-71 -23 -125 -49q-131 -63 -159 -129q7 -15 57 -31q58 1 104 9q110 20 146 74zM281 1228q9 -12 -7 -41q-30 -59 -62 -81q-37 -24 -92 -33q-16 -3 -17 5q-1 3 1 8q11 13 71 40q48 22 55 36q-16 31 -85 16q-6 -2 -8 3q8 24 28 58
q7 7 21 10q66 14 95 -21z" />
    <glyph glyph-name="uniFDFB" unicode="&#xfdfb;" horiz-adv-x="2582" arabic-form="isolated" 
d="M2200 1321q-9 -37 -15 -51q-13 -27 -38 -34q-23 6 -34 18q-17 27 -17 69q0 25 14 102q12 38 47 111q2 0 4 -2l-28 -86q-16 -52 -16 -91q0 -17 2 -33q7 -17 11 -23q8 -13 20 -14q14 -4 24 5q6 12 18 35q8 5 8 -6zM2077 1670q-18 -42 -63 -117q-8 -6 -28 -19
q-11 -6 -306 -145q-17 -2 -17 9q0 5 3 10q29 65 40 94q2 4 15 13q258 120 305 154q45 28 48 27q15 -3 3 -26zM1422 2082q-17 -42 -62 -117q-9 -6 -29 -19q-10 -7 -306 -145q-17 -2 -17 9q1 5 3 10q29 65 41 94q2 4 14 13q258 120 305 153q46 29 48 28q16 -3 3 -26zM2380 497
q-9 -38 -15 -51q-13 -28 -38 -34q-23 5 -34 18q-16 27 -16 68q0 25 14 103q11 38 46 111q2 0 4 -2q-14 -43 -28 -87q-16 -51 -16 -90q0 -17 4.5 -33.5t8.5 -22.5q8 -13 20 -14q15 -4 24 5q6 11 19 35q7 5 7 -6zM2162 825q-10 -39 -81 -133q-26 19 -104 68q8 39 75 128
q64 -34 110 -63zM1378 1147l-16 -75q-8 -24 -19 -24q-8 0 -15 16q-10 54 -10 111t-35 124q-63 121 -214 197l-34 -5q-8 -14 -24 -14q-12 0 -27 9q-65 39 -89 74q-13 13 -12 35q-2 81 8 126q13 16 23 10l10 -5l250 -139q208 -134 208 -376q0 -31 -4 -64zM1918 582
q-9 -38 -15 -51q-13 -28 -38 -34q-24 6 -34 18q-17 27 -17 68q0 25 14 103q12 38 47 111q2 0 4 -2q-15 -43 -29 -87q-15 -51 -15 -90q0 -17 2 -33q6 -17 11 -23q8 -13 20 -14q14 -4 24 5q6 11 18 35q8 5 8 -6zM2522 214q-10 -17 -59 -96q-30 10 -78 10q-128 0 -291 -78
q-65 -31 -156 -50q-28 -6 -58 -6q-121 0 -147 84q-3 9 -5 26q-8 -67 -18 -107q-13 -44 -30 -85q-53 -152 -177 -223q-93 -54 -208 -54q-39 0 -71 6q-136 28 -191 147q-34 73 -31 155q7 186 102 329q6 8 25 -3q0 -19 -3.5 -34t-13.5 -37q-52 -113 -52 -170q0 -146 96 -212
q68 -48 148 -48t181 48q86 40 143 124q11 22 20 51q16 52 19 151q2 82 0 87l-24 430q0 8 -3 127q0 4 2 9q11 32 24 57q-115 3 -142 84q-19 55 -21 95q-40 -132 -141 -198q-131 -85 -350 -85q-39 -1 -55 0q-8 6 -8 14q0 15 33 26q363 117 472 252q4 8 6 49q0 10 1 46
q-4 85 -10 200q-16 308 -31 484q0 5 1 10q15 53 32 83q12 11 16 0q14 -77 33 -240l29 -436q17 -163 22 -181q34 -92 152 -82q79 6 133 25q27 9 143 63q-81 47 -196 118q-7 4 -15 4q-24 0 -49 -33q-11 -5 -17 -5q-11 0 -11 16q0 12 6 30q13 25 27 44q34 44 66 50q44 8 92 -23
q75 -44 143 -77q164 -77 266 -81q24 -3 24 -18q0 -6 -5 -14q-9 -18 -59 -97q-30 11 -77 11q-128 0 -291 -78q-66 -32 -157 -50q-15 -3 -31 -5q5 -57 12 -161l31 -447q2 -20 6 -45q36 -96 169 -85q78 6 133 25q26 10 142 63q-81 48 -196 118q-7 5 -15 5q-23 0 -49 -33
q-10 -6 -17 -6q-11 0 -11 16q0 13 6 30q14 25 28 44q34 45 66 50q43 8 91 -23q75 -44 144 -76q164 -78 266 -82q23 -3 23 -18q0 -6 -4 -14zM1140 1084q-9 -38 -15 -51q-13 -28 -38 -34q-24 6 -34 18q-17 27 -17 68q0 25 14 103q12 38 47 111q2 0 4 -2q-15 -43 -29 -87
q-15 -51 -15 -90q0 -17 2 -33q6 -17 11 -23q8 -13 20 -14q14 -4 24 5q5 11 18 35q7 5 8 -6zM2269 -44q-10 -39 -81 -133q-26 19 -104 68q8 39 75 128q65 -34 110 -63zM600 1791q5 -30 5 -53q0 -113 -100 -210q-80 -76 -197 -128h-6q-19 1 -19 17t26 37q128 71 143 95
q-58 42 -58 109q0 46 26 108q30 69 66 86q10 4 28 4q74 0 86 -65zM1524 520q16 -110 -26 -165q-17 -15 -85 -33q-15 17 -32 44q-4 -18 -26 -47q-32 -22 -80 -13q-37 7 -39 90q-4 109 6 140q5 12 16 29q14 5 16 -11q-6 -82 -2 -136q2 -18 16 -23q11 -6 26 -5q11 2 37 16
q5 4 7 23q-6 93 -5 97q4 26 19 62q4 5 8 5q13 0 17 -53q1 -36 4 -84q7 -45 35 -51q40 -2 58 17l-19 121q-2 16 -1 19q0 2 3 12q6 17 14 31q5 14 10 14q4 -2 7 -15q7 -37 16 -84zM1083 463q-9 -37 -15 -51q-13 -27 -38 -34q-23 6 -34 18q-16 27 -16 69q0 25 14 102
q11 39 46 111q2 0 4 -2l-28 -86q-16 -52 -16 -91q0 -17 4.5 -33.5t8.5 -22.5q8 -13 20 -14q15 -4 24 5q6 12 19 35q7 5 7 -6zM642 802q0 -82 -62 -114q-38 -15 -52 -6q-24 24 -11 77q4 15 38 114q26 72 26 118q0 60 -38 105q5 16 22 48q10 -5 18 -19q11 -21 13 -23
q10 -29 10 -64q0 -43 -24 -135q0 -3 -6.5 -16.5t-6.5 -20.5q0 -12 17 -14q25 -6 56 -50zM881 166q-6 -130 -37 -173l-9 -3q-41 -78 -166 -109q-14 -4 -24 -5q-142 0 -198 192q-16 -38 -57 -87q-55 -55 -194 -60q-65 -3 -104 28q-11 8 -18 23q-6 28 -6 56q0 62 30 132
q44 102 293 199l-1 7q-1 -2 9 63q9 55 24 55q14 0 30 -44q14 -271 102 -368q33 -36 99 -47q109 -2 144 77q8 45 7 80q-2 53 -5 101q-5 83 -49.5 789.5t-48.5 751.5q-1 5 1 10q14 53 32 83q11 11 15 0q7 -20 20 -55q43 -104 41 -134q-9 -14 -27 -51zM410 1234q3 -22 -14 -78
q-28 41 -52 43q-12 0 -18.5 -13t-12.5 -26q-14 -35 -28 -117q-13 -77 -30 -113h-9q-9 80 -55 132l-12 -12q-9 9 -81 48l5 46q2 28 17 37q71 -10 118 -97q6 -27 19 -61q14 23 22 76.5t19 75.5q10 27 21 56.5t35 38.5q38 -4 56 -36zM289 539q1 -45 -25 -77q-32 -38 -79 -22
q-22 7 -44 44q-11 32 -11 68q0 97 62 172q11 12 40 41q28 19 39 7t-5 -36q-80 -73 -83 -138q-3 -47 24 -56q12 -4 28 1q20 25 33 25q17 0 21 -29zM551 1700q-3 76 -61 75q-38 -1 -47 -51q-1 -13 -1 -23q0 -36 25 -49q10 -6 23 -6q22 0 45 13q15 13 16 41zM611 760
q-9 15 -31 28l-36 21l-11 -24q-8 -39 14 -53q24 -3 64 28zM427 148l-22 126q-71 -23 -125 -49q-131 -62 -160 -129q8 -15 58 -31q57 1 103 9q111 20 146 74z" />
    <glyph glyph-name="uni066E.init" unicode="&#x66e;" horiz-adv-x="389" 
d="M129 10q-29 -4 -129 -10q-38 -2 -48 90q6 23 13 39q16 40 35 43q74 -5 129 7q88 19 177 77q-1 38 -9 66q-19 65 -75 193q-6 16 -2 35q12 42 42 115q5 14 11 14q3 -1 5 -4q101 -172 101 -345q0 -29 -4 -56q-6 -39 -28 -100q-25 -71 -46 -89q-25 -16 -51 -30
q-63 -33 -121 -45z" />
    <glyph glyph-name="uni066E.medi" unicode="&#x66e;" horiz-adv-x="415" 
d="M457 74q-33 -74 -42 -74q-54 2 -76 8q-57 15 -91 63q-15 24 -42 58q-16 -55 -84 -92q-59 -33 -122 -37q-20 37 -41 88q-6 82 41 82q9 0 25 -1.5t23 -0.5q112 9 148 92q17 40 26 85q3 2 7 3q10 0 23 -16q27 -90 104 -148q21 -14 58 -14q21 0 43 -96z" />
    <glyph glyph-name="uni066E.fina" unicode="&#x66e;" horiz-adv-x="1420" 
d="M1450 170v-170h-27q-83 10 -117 25q-56 24 -77 84q-6 22 -9 45q-16 -32 -75 -61q-173 -87 -399 -130q-50 -10 -173 -20q-60 -5 -115 -5q-262 0 -382 102q-20 18 -35 41q-8 14 -14 29q-22 57 -22 126q0 55 34 174q40 141 79 141q17 0 6 -64q-37 -97 -37 -158
q0 -56 30 -104q72 -114 402 -121q402 5 668 152q11 6 22 23q5 8 10 30q8 30 27 25t11 -35q-1 -7 -4 -18v-6q1 -52 53 -77q31 -14 117 -28h27z" />
    <glyph glyph-name="uni06D2.fina" unicode="&#x6d2;" horiz-adv-x="483" arabic-form="final" 
d="M582 556q-16 -35 -43 -54q-19 -14 -39 -27q-27 -22 -161 -73q-168 -64 -180 -69q-4 -5 -4 -11q0 -36 134 -106q80 -45 151 -58q22 -4 160 -14q166 -8 464 -30q103 -20 103 -44q0 -13 -42 -26q-68 -20 -195.5 -37.5t-185.5 -15.5q-288 10 -407 31q-293 52 -316 193
q-7 46 54 126q11 27 41.5 56.5t196.5 136.5q175 113 198 110q1 -1 43 -32q25 -19 28 -56z" />
    <glyph glyph-name="uni06BE.fina" unicode="&#x6be;" horiz-adv-x="656" arabic-form="final" 
d="M728 76q-26 -76 -72 -76h-107q-26 -296 -175 -325q-14 -3 -30 -3q-122 0 -146 121q-20 103 14 233q-120 -21 -212 -26q-47 0 -62 36q-6 16 -5 37q46 98 67 97q62 5 118 13q44 52 236 527q18 69 37 69q5 0 10 -5q43 -44 82 -112q69 -120 69 -239q0 -122 -75 -232
q113 -23 179 -21q50 2 72 -94zM469 335q-6 91 -99 235q-31 -95 -167 -374q219 41 266 139zM471 -18q0 55 -116 55q-39 0 -80 -6q-10 -36 -10 -66q0 -109 95 -109t111 126z" />
    <glyph glyph-name="uni06C1.init" unicode="&#x6c1;" horiz-adv-x="415" arabic-form="initial" 
d="M129 10q-29 -4 -129 -10q-38 -2 -48 90q6 23 13 39q16 40 35 43q74 -5 129 7q88 19 177 77q-1 38 -9 66q-19 65 -75 193q-6 16 -2 35q12 42 42 115q5 14 11 14q3 -1 5 -4q101 -172 101 -345q0 -29 -4 -56q-6 -39 -28 -100q-25 -71 -46 -89q-25 -16 -51 -30
q-63 -33 -121 -45zM259 -83q-89 -81 -93 -153q-4 -65 41 -65q9 0 18 2q21 29 37 29q18 0 23 -33q1 -50 -28 -86q-36 -43 -89 -25q-24 8 -48 50q-14 36 -14 75q0 109 71 193q11 14 44 46q31 21 43 7q13 -13 -5 -40z" />
    <glyph glyph-name="uni06C1.medi" unicode="&#x6c1;" horiz-adv-x="560" arabic-form="medial" 
d="M416 -78q-2 -17 -2 -30q0 -26 36 -96q19 -23 76 -66q10 -9 11 -28q-4 -47 -26 -135q-7 -10 -21 -6q-21 6 -22 6q-50 4 -156 83q-141 137 -135 389q-8 5 -20 -2q-17 -10 -18 -11q-27 -7 -83 -19q-38 -9 -56 -7q-41 76 -41 88q-6 82 41 82q56 -1 170 23q49 18 70 68
q7 9 17 4q10 -10 5 -29q-25 -98 -25 -111l6 -4l-6 -7q-1 -115 53 -196q9 -90 39 -114q-5 66 25 188q9 34 29 58q41 77 153 115q14 3 23 5q21 0 43 -96q-33 -74 -42 -74l-84 -22q-46 -17 -60 -56z" />
    <glyph glyph-name="uni06C1.fina" unicode="&#x6c1;" horiz-adv-x="647" arabic-form="final" 
d="M550 189q-66 30 -135 149q-61 116 -139 116q-35 0 -69 -26q-46 -47 -82 -106q-88 -140 -117 -313q1 -57 18 -57q15 0 39 44q80 203 186 269q13 4 24 4q41 0 82 -63q57 -89 79 -114q59 -68 130 -86q31 -9 81 -6q46 0 72 76q-22 96 -72 94.5t-97 18.5z" />
    <glyph glyph-name="uni0679.init" unicode="&#x679;" horiz-adv-x="432" arabic-form="initial" 
d="M129 10q-29 -4 -129 -10q-38 -2 -48 90q6 23 13 39q16 40 35 43q74 -5 129 7q88 19 177 77q-1 38 -9 66q-19 65 -75 193q-6 16 -2 35q12 42 42 115q5 14 11 14q3 -1 5 -4q101 -172 101 -345q0 -29 -4 -56q-6 -39 -28 -100q-25 -71 -46 -89q-25 -16 -51 -30
q-63 -33 -121 -45zM451 901q-9 -97 -62 -139q-30 -24 -57 -33q-59 -21 -180 -29q-2 -6 -8 -39q-9 -16 -19 -16q-6 0 -11 8q0 6 2 19q0 7 4 34q-72 7 -137 21q-18 10 -18 18q0 11 37 13q19 -3 130 6q6 26 16 57q-1 2 -1 3q2 30 -2 117l-20 253q-1 2 0 6q9 31 19 49q7 7 9 0
q4 -12 12 -33q26 -62 24 -79q-5 -9 -16 -31q3 -21 11 -116q4 -45 4 -48q-1 -24 -3 -39q13 20 28 33q46 39 117 39q30 0 61 -8q22 -6 59 -44q2 -13 1 -22zM403 857q-44 35 -120 32q-49 0 -81.5 -35t-39.5 -85q190 11 241 88z" />
    <glyph glyph-name="uni0679.medi" unicode="&#x679;" horiz-adv-x="415" arabic-form="medial" 
d="M457 74q-33 -74 -42 -74q-54 2 -76 8q-57 15 -91 63q-15 24 -42 58q-16 -55 -84 -92q-59 -33 -122 -37q-20 37 -41 88q-6 82 41 82q9 0 25 -1.5t23 -0.5q112 9 148 92q17 40 26 85q3 2 7 3q10 0 23 -16q27 -90 104 -148q21 -14 58 -14q21 0 43 -96zM419 618
q-9 -96 -62 -139q-29 -23 -57 -33q-59 -21 -180 -29q-2 -5 -8 -39q-9 -16 -18 -16q-7 0 -12 9q0 6 2 18q0 7 5 34q-73 7 -138 21q-18 11 -18 18q0 11 37 14q19 -3 130 6q6 26 16 56q-1 3 -1 4q2 30 -2 116l-20 253q-1 3 0 6q9 31 19 49q7 7 9 0q4 -12 12 -33q26 -61 24 -79
q-5 -8 -15 -31q2 -20 10 -115q4 -46 4 -48q-1 -25 -3 -40q14 21 28 33q47 39 117 39q30 0 61 -8q22 -6 59 -43q2 -14 1 -23zM371 574q-44 35 -120 33q-49 0 -81.5 -35.5t-39.5 -85.5q190 11 241 88z" />
    <glyph glyph-name="uni0679.fina" unicode="&#x679;" horiz-adv-x="1420" arabic-form="final" 
d="M863 533q-9 -97 -62 -139q-30 -24 -57 -33q-59 -21 -180 -29q-2 -6 -8 -39q-9 -16 -19 -16q-6 0 -11 8q0 6 2 19q0 7 4 34q-72 7 -137 21q-18 10 -18 18q0 11 37 13q19 -3 130 6q6 26 16 57q-1 2 -1 3q2 30 -2 117l-20 253q-1 2 0 6q9 31 19 49q7 7 9 0q4 -12 12 -33
q26 -62 24 -79q-5 -9 -16 -31q3 -21 11 -116q4 -45 4 -48q-1 -24 -3 -39q13 20 28 33q46 39 117 39q30 0 61 -8q22 -6 59 -44q2 -13 1 -22zM815 489q-44 35 -120 32q-49 0 -81.5 -35t-39.5 -85q190 11 241 88zM1450 170v-170h-27q-83 10 -117 25q-56 24 -77 84q-6 22 -9 45
q-16 -32 -75 -61q-173 -87 -399 -130q-50 -10 -173 -20q-60 -5 -115 -5q-262 0 -382 102q-20 18 -35 41q-8 14 -14 29q-22 57 -22 126q0 55 34 174q40 141 79 141q17 0 6 -64q-37 -97 -37 -158q0 -56 30 -104q72 -114 402 -121q402 5 668 152q11 6 22 23q5 8 10 30
q8 30 27 25t11 -35q-1 -7 -4 -18v-6q1 -52 53 -77q31 -14 117 -28h27z" />
    <glyph glyph-name="uni0688.fina" unicode="&#x688;" horiz-adv-x="889" arabic-form="final" 
d="M973 76q-7 -22 -17 -38q-24 -38 -55 -38h-31q-56 15 -100 46q-104 74 -126 215q-79 -292 -233 -359q-52 -18 -107 -18q-191 0 -231 223q-10 57 -6 160q4 111 22 179q23 74 37 74q9 0 13 -31q-3 -17 -14 -98q-4 -30 -4 -62q0 -196 129 -258q27 -9 62 -9q153 0 262 166
q42 64 28 165q-33 123 -67 285q6 21 21 116q6 44 19 44q12 0 17 -25q3 -19 4 -22q52 -193 121 -451q16 -55 72 -111q60 -59 111 -59t73 -94zM612 1038q-9 -97 -63 -139q-29 -23 -57 -33q-58 -21 -179 -29q-2 -6 -8 -39q-10 -16 -19 -16q-7 0 -12 9q0 5 2 18q1 7 5 34
q-73 7 -138 21q-18 10 -18 18q0 11 37 13q19 -2 130 6q7 27 16 57v4q1 29 -3 116l-20 253q0 3 1 6q8 31 18 49q7 7 10 0q4 -12 12 -33q25 -62 24 -79q-5 -9 -16 -31q2 -20 10 -116q4 -45 4 -47q-1 -25 -2 -40q13 21 28 33q46 39 117 39q29 0 61 -8q21 -6 58 -43q3 -14 2 -23
zM563 994q-43 35 -119 33q-49 0 -82 -35.5t-39 -85.5q190 11 240 88z" />
    <glyph glyph-name="uni0691.fina" unicode="&#x691;" horiz-adv-x="803" arabic-form="final" 
d="M854 258q-17 -74 -52 -74q-72 0 -84 6q-55 8 -93 34l-3 8v-1q-10 -53 -25 -110q-2 -8 -14 -48q-57 -181 -262 -235q-35 -7 -158 -19q-65 -5 -116 4t-51 22q0 9 34 19q344 101 492 216q8 6 19 25q2 29 3 63q1 4 2 7q-34 163 -72 248q9 25 59 110q10 15 18 15q9 0 14 -21
q2 -7 14 -36q27 -65 100 -104q51 -28 87 -31q13 0 38 -2q44 -8 50 -96zM658 779q-9 -97 -62 -139q-30 -24 -57 -33q-59 -21 -180 -29q-2 -6 -8 -39q-9 -16 -19 -16q-6 0 -11 8q0 6 2 19q0 7 4 34q-72 7 -137 21q-18 10 -18 18q0 11 37 13q19 -3 130 6q6 26 16 57q-1 2 -1 3
q2 30 -2 117l-20 253q-1 2 0 6q9 31 19 49q7 7 9 0q4 -12 12 -33q26 -62 24 -79q-5 -9 -16 -31q3 -21 11 -116q4 -45 4 -48q-1 -24 -3 -39q13 20 28 33q46 39 117 39q30 0 61 -8q22 -6 59 -44q2 -13 1 -22zM610 735q-44 35 -120 32q-49 0 -81.5 -35t-39.5 -85q190 11 241 88
z" />
    <glyph glyph-name="uni06BA.fina" unicode="&#x6ba;" horiz-adv-x="1019" arabic-form="final" 
d="M1092 276q-7 -22 -17 -38q-23 -37 -55 -38q-47 0 -104 39l-5 7l-1 -6q-1 -82 -26 -171q-68 -239 -236 -350q-126 -83 -282 -83q-46 0 -84 7q-173 35 -243 186q-43 93 -39 197q8 236 129 417q8 11 32 -4q0 -23 -4.5 -42.5t-16.5 -46.5q-43 -94 -47 -104q-19 -53 -19 -113
q0 -185 121 -269q87 -60 189 -60t229 60q113 54 203 194q5 11 9 24q4 85 -23 204q-15 63 -31 127q-5 45 18 96q15 32 38 66q8 13 14 13q4 -1 5 -5q3 1 18 -60q1 -51 43 -99q48 -53 113 -54q51 -1 72 -94z" />
    <glyph glyph-name="uni06AA.init" unicode="&#x6aa;" horiz-adv-x="1674" 
d="M0 154q287 -1 404 3q704 21 1090 45q41 -3 41 17q0 15 -21 38q-87 91 -211 104q-12 2 -33 2q-83 0 -475 -30q-368 -28 -421 -24q-204 17 -277 68q-29 20 -29 77q0 35 17 67q149 275 405 378q132 53 248 50q104 -3 104 -72q0 -20 -9 -42q-30 -59 -47 -82q-5 -11 -13 -4
q-13 10 -17 17q-10 18 -21 24.5t-19 6.5l-18 3q-82 0 -101 -2q-87 -12 -183 -62q-75 -40 -125 -82q-17 -13 -86 -79q-23 -22 -23 -39q0 -23 94 -50q104 -18 245 -18q119 0 283 14l202 18q121 6 208 6q252 0 332 -70q107 -93 107 -201q0 -42 -35 -140q-11 -33 -54 -45
q-18 -4 -41 -5q-45 0 -501.5 -21.5t-540.5 -21.5q-87 0 -181 -3.5t-122 -3.5q-57 0 -176 5q-69 1 -67 73q13 82 67 81z" />
    <glyph glyph-name="uni06AA.medi" unicode="&#x6aa;" horiz-adv-x="1763" 
d="M1768 170q50 0 72 -94q-26 -77 -72 -76l-42 2q-36 9 -71 19q-61 21 -143 77q-43 30 -43 48q0 22 59 24q154 -5 240 0zM406 156q179 -1 637 25q425 23 453 21q42 -3 42 17q0 15 -21 38q-88 91 -212 104q-11 1 -33 1q-82 0 -475 -30q-367 -28 -420 -23q-95 8 -120 12
q-102 17 -158 56q-28 20 -28 77q0 35 17 66q149 275 404 379q132 53 248 50q104 -3 104 -72q0 -20 -9 -43q-12 -31 -46 -82q-6 -10 -13 -3q-9 3 -18.5 18.5t-20 22.5t-19.5 7v0q-6 2 -17 3q-83 0 -101 -2q-87 -12 -183 -62.5t-212 -160.5q-23 -22 -23 -39q0 -41 95 -50
q104 -18 244 -18q119 0 283 14q102 9 203 18q121 6 207 6q252 0 332 -70q107 -93 107 -201q0 -42 -34 -140q-17 -49 -96 -50q-44 0 -501 -21.5t-541 -21.5q-87 0 -181 -3.5t-121 -3.5q-59 0 -179 5q-69 1 -67 73q46 98 67 97q174 -7 406 -14z" />
    <glyph glyph-name="uni06AA.fina" unicode="&#x6aa;" horiz-adv-x="2078" 
d="M2078 168q50 1 72 -94q-26 -77 -72 -76l-40 2q-35 10 -70 19q-62 22 -143 78q-43 29 -43 47q0 23 59 24q152 -4 237 0zM1014 799q-83 0 -102 -3q-87 -11 -183 -62q-74 -40 -125 -81q-17 -14 -86 -80q-23 -22 -23 -39q0 -23 94 -49q104 -19 245 -19q119 0 283 14
q101 9 203 18q120 7 207 7q252 0 332 -70q107 -94 107 -202q0 -42 -34 -140q-12 -32 -55 -44q-18 -5 -41 -6q-45 0 -501.5 -21.5t-540.5 -21.5q-87 0 -181 -3.5t-122 -3.5q-69 0 -218 7q-35 10 -71 19q-61 22 -143 78q-43 29 -43 47q0 23 59 24q96 -13 214 -16q79 -2 215 0
q157 3 215 3q704 21 1090 45q41 -3 41 17q0 15 -21 38q-87 91 -211 104q-12 2 -33 2q-83 0 -475 -30q-368 -28 -421 -24q-204 17 -277 68q-28 20 -28 77q0 36 16 67q149 275 405 378q132 53 248 50q104 -3 104 -72q0 -20 -9 -42q-30 -58 -47 -82q-5 -10 -13 -4
q-13 10 -17 17q-10 18 -21 24.5t-19 6.5z" />
    <glyph glyph-name=".notdef" horiz-adv-x="1024" 
d="M128 0v1825h768v-1825h-768zM256 128h512v1569h-512v-1569z" />
    <glyph glyph-name=".null" 
 />
    <glyph glyph-name="nonmarkingreturn" horiz-adv-x="500" 
 />
    <glyph glyph-name="space" unicode=" " horiz-adv-x="303" 
 />
    <glyph glyph-name="brokenbar" unicode="&#xa6;" horiz-adv-x="1044" 
d="M567 678h-88v756h88v-756zM567 -348h-88v756h88v-756z" />
    <glyph glyph-name="section" unicode="&#xa7;" horiz-adv-x="961" 
d="M852 166q0 -220 -157 -359q-148 -131 -310 -131q-72 0 -151 30q-101 38 -101 99q0 26 20 46t46 20q32 0 84 -45t80 -70q28 -20 92 -20q103 0 160 81q26 37 26 79q0 87 -100 226l-148 206q-125 174 -190 298q-97 185 -97 334q0 203 127 357q136 164 334 164q140 0 224 -70
q38 -32 38 -63q0 -66 -73 -66q-34 0 -99 63q-76 74 -151 74q-105 0 -161 -83q-26 -39 -26 -83q0 -72 108 -229q51 -70 151 -209q135 -187 191 -304q83 -173 83 -345zM774 145q0 161 -67 305q-41 88 -166 269l-96 139q-176 254 -195 379q-68 -111 -68 -256q0 -116 55 -241
q46 -104 121 -218q82 -117 283 -427q50 -81 66 -177q67 100 67 227z" />
    <glyph glyph-name="delete" unicode="&#x2421;" horiz-adv-x="1600" 
d="M1520 129h-366v586h78v-517h288v-69zM1080 129h-438v586h424v-69h-346v-179h324v-69h-324v-200h360v-69zM572 425q0 -242 -179 -286q-41 -10 -95 -10h-211v586h202q69 0 104 -8q112 -26 156 -142q23 -61 23 -140zM492 427q0 167 -104 207q-31 12 -100 12h-124v-448h126
q102 0 143 41q59 59 59 188z" />
    <glyph glyph-name="nonbreakingspace" unicode="&#xa0;" horiz-adv-x="303" 
 />
    <glyph glyph-name="exclamdown" unicode="&#xa1;" horiz-adv-x="569" 
d="M379 986q0 -38 -26 -65t-64 -27t-63.5 27t-24.5 65q1 36 26.5 61t61.5 25t63 -25t27 -61zM375 136q0 -154 -88 -154q-90 0 -90 156q0 86 33 277.5t34 291.5l1 117h41l1 -115q1 -98 34.5 -289.5t33.5 -283.5z" />
    <glyph glyph-name="cent" unicode="&#xa2;" horiz-adv-x="874" 
d="M801 317q-107 -169 -270 -204q-42 -9 -79 -9q-50 0 -104 13l-135 -332h-66l144 352q-197 113 -197 363q0 132 69.5 242.5t187.5 170.5q99 50 214 50q26 0 53 -3l107 261h66l-111 -275q115 -34 115 -100q0 -62 -60 -62q-49 0 -102 50l-244 -613q76 -33 133 -33
q136 0 250 148zM586 874q-53 35 -90 35q-149 0 -228 -185q-37 -86 -37 -179q0 -164 107 -283z" />
    <glyph glyph-name="dieresis" unicode="&#xa8;" horiz-adv-x="682" 
d="M631 1274q0 -38 -26 -64t-64 -26t-64 26t-26 64t26 64t64 26t64 -26t26 -64zM233 1274q0 -38 -26 -64t-64 -26t-64 26t-26 64t26 64t64 26t64 -26t26 -64z" />
    <glyph glyph-name="glyph11" horiz-adv-x="500" 
 />
    <glyph glyph-name="copyright" unicode="&#xa9;" horiz-adv-x="1556" 
d="M1487 807q0 -191 -94 -353.5t-258.5 -259t-356.5 -96.5q-190 0 -353 94t-259 258.5t-96 356.5q0 190 94 353.5t258.5 259t355.5 95.5t354 -94t259 -258.5t96 -355.5zM1425 807q0 174 -85 322.5t-235 236.5t-327 88q-174 0 -323 -85.5t-236.5 -236t-87.5 -325.5
q0 -270 188.5 -458.5t458.5 -188.5q175 0 324 85t236 235.5t87 326.5zM1165 561q-141 -203 -385 -203q-271 0 -402 219q-61 102 -61 224q0 129 65.5 235.5t180 167t252.5 60.5q79 0 171 -32q38 -13 54 -13q34 0 47 45h39l21 -281h-39q-70 238 -303 238q-200 0 -282 -184
q-40 -90 -40 -206q0 -182 73 -289q85 -124 259 -124q197 0 311 162z" />
    <glyph glyph-name="ordfeminine" unicode="&#xaa;" horiz-adv-x="532" 
d="M530 987q-87 -72 -143 -72t-70 64q-85 -64 -145 -64q-129 0 -129 107q0 54 53 85q31 18 107.5 40t109.5 41v112q0 35 -24.5 60.5t-59.5 25.5q-31 0 -54 -23q-13 -13 -13 -29q0 -12 8 -25l-111 -50q-8 11 -8 24q0 21 17 45q29 41 84.5 73.5t103.5 32.5q94 0 145 -62
q25 -31 25 -67v-263q0 -55 23 -55q36 0 69 35zM313 1018v129q-57 -19 -143 -64q-18 -16 -18 -47q0 -65 63 -65q21 0 98 47z" />
    <glyph glyph-name="glyph14" horiz-adv-x="500" 
 />
    <glyph glyph-name="sterling" unicode="&#xa3;" horiz-adv-x="1556" 
d="M1507 1335q0 -63 -65 -63q-33 0 -88 48q-27 25 -82 73q-22 18 -84 18q-127 0 -244 -215q-30 -54 -137 -316l-119 -289q-72 -168 -133 -282h352l-10 -49h-365q-69 -148 -174 -276l4 -5q103 56 224 56q142 0 325 -134q89 -65 119 -82q71 -40 137 -40q72 0 125 39
q60 43 60 112q0 31 -29 84.5t-29 65.5q0 76 72 76q45 0 70 -48q20 -38 20 -88q0 -187 -197 -294q-88 -48 -184 -48q-144 0 -319 147q-84 71 -125 96q-75 46 -148 46q-69 0 -166 -47q-40 -82 -94 -147q-75 -90 -139 -90q-20 0 -37.5 14t-17.5 33q0 63 92 136q73 58 149 87
q60 103 136 307h-302l11 49h311l160 414q254 658 566 743q55 15 114 15q138 0 209 -73q32 -33 32 -73z" />
    <glyph glyph-name="currency" unicode="&#xa4;" horiz-adv-x="1366" 
d="M1153 379l-61 -62l-125 125q-141 -102 -283 -102q-139 0 -283 100l-125 -123l-61 62l125 123q-100 138 -100 282q0 148 100 283l-125 123l61 63l125 -123q140 99 283 99q144 0 283 -101l125 125l61 -63l-125 -123q100 -134 100 -283q0 -142 -100 -280zM1040 784
q0 206 -179 310q-81 47 -177 47q-205 0 -308 -178q-48 -83 -48 -179q0 -201 178 -307q82 -49 178 -49q147 0 251.5 104.5t104.5 251.5z" />
    <glyph glyph-name="macron" unicode="&#xaf;" horiz-adv-x="682" 
d="M623 1216h-564v119h564v-119z" />
    <glyph glyph-name="degree" unicode="&#xb0;" horiz-adv-x="811" 
d="M713 1130q0 -176 -152 -265q-71 -42 -155 -42q-129 0 -218.5 89t-89.5 218q0 177 154 267q70 41 154 41q128 0 217.5 -90t89.5 -218zM629 1130q0 129 -111 194q-51 30 -112 30q-94 0 -159 -65t-65 -159t65 -158.5t159 -64.5q128 0 193 112q30 51 30 111z" />
    <glyph glyph-name="logicalnot" unicode="&#xac;" horiz-adv-x="1366" 
d="M1221 498h-93v487h-983v90h1076v-577z" />
    <glyph glyph-name="plusminus" unicode="&#xb1;" horiz-adv-x="946" 
d="M835 581h-321v-253h-84v253h-325v83h325v328h84v-328h321v-83zM835 175h-730v83h730v-83z" />
    <glyph glyph-name="registered" unicode="&#xae;" horiz-adv-x="1556" 
d="M1487 807q0 -191 -94 -353.5t-258.5 -259t-356.5 -96.5q-190 0 -353 94t-259 258.5t-96 356.5q0 190 94 353.5t258.5 259t355.5 95.5t354 -94t259 -258.5t96 -355.5zM1425 807q0 174 -85 322.5t-235 236.5t-327 88q-174 0 -323 -85.5t-236.5 -236t-87.5 -325.5
q0 -270 188.5 -458.5t458.5 -188.5q175 0 324 85t236 235.5t87 326.5zM1176 377h-185l-295 405h-73v-295q0 -77 116 -77v-33h-366v33q104 0 104 88v622q0 86 -92 86v37h385q184 0 262 -107q37 -51 37 -118q0 -166 -223 -221l209 -299q58 -83 121 -88v-33zM907 1008
q0 84 -58.5 137t-143.5 53q-34 0 -82 -14v-359h39q100 0 166 41q79 48 79 142z" />
    <glyph glyph-name="sfthyphen" unicode="&#xad;" horiz-adv-x="1366" 
d="M1221 739h-1076v90h1076v-90z" />
    <glyph glyph-name="yen" unicode="&#xa5;" horiz-adv-x="1024" 
d="M1194 1364q-168 -12 -256 -162l-80 -137h227v-68h-268l-190 -321h458v-68h-487v-289q0 -85 41 -119q37 -32 123 -32h26v-39h-563v39h39q86 0 123 30q41 34 41 117v293h-549v68h504l-207 321h-297v68h254l-70 108q-48 73 -71 101q-45 53 -93 72q-40 16 -116 18v39h545v-39
q-148 0 -144 -54q2 -29 35 -79l109 -166h420l88 151q31 53 31 85q0 63 -136 63v39h463v-39zM707 997h-336l176 -272z" />
    <glyph glyph-name="guillemotleft" unicode="&#xab;" horiz-adv-x="834" 
d="M778 10h-53l-340 400l340 393h47l-246 -393zM471 10h-49l-338 400l340 393h47l-246 -393z" />
    <glyph glyph-name="exclam" horiz-adv-x="569" 
d="M375 989q0 -92 -33.5 -283.5t-34.5 -289.5l-1 -115h-41l-1 117q-1 100 -34 294q-33 191 -33 275q0 156 90 156q88 0 88 -154zM379 139q0 -36 -27 -61t-63 -25t-61.5 25t-26.5 61q-1 38 24.5 65t63.5 27t64 -27t26 -65z" />
    <glyph glyph-name="quotedbl" horiz-adv-x="569" 
d="M452 1273q0 -62 -14.5 -186.5t-14.5 -187.5h-42q0 63 -14 187.5t-14 186.5q0 68 49 68q50 0 50 -68zM218 1273q0 -62 -14.5 -186.5t-14.5 -187.5h-42q0 63 -14 187.5t-14 186.5q0 68 49 68q50 0 50 -68z" />
    <glyph glyph-name="numbersign" horiz-adv-x="1368" 
d="M1272 498h-332l-88 -416h-88l88 416h-457l-88 -416h-88l88 416h-213v88h232l84 405h-316v88h336l86 416h88l-86 -416h453l88 416h88l-88 -416h213v-88h-232l-84 -405h316v-88zM952 991h-454l-84 -405h454z" />
    <glyph glyph-name="dollar" horiz-adv-x="938" 
d="M856 432q0 -239 -291 -315v-197h-53v182q-28 -3 -57 -3q-39 0 -80 5v-184h-53v197q-94 20 -172 74q-97 67 -97 149q0 27 20.5 48.5t47.5 21.5q51 0 88 -98q40 -106 113 -140v584q-232 144 -232 307q0 97 70 172q63 68 162 96v133h53v-127q35 5 69 5t68 -5v127h53v-133
q154 -43 212 -112q28 -33 28 -68q0 -64 -60 -64q-31 0 -57 29l-40 56q-39 54 -83 92v-473q220 -135 267 -236q24 -52 24 -123zM512 815v467q-28 17 -84 17q-24 0 -53 -3v-385zM322 946v342q-119 -40 -119 -153q0 -103 119 -189zM733 383q0 82 -62 142q-33 32 -106 83v-450
q168 72 168 225zM512 143v492l-137 94v-571q36 -16 99 -16q18 0 38 1z" />
    <glyph glyph-name="percent" horiz-adv-x="1473" 
d="M1425 461q0 -202 -131 -300q-62 -46 -133 -46q-152 0 -227 171q-35 80 -35 175q0 201 131 300q61 46 131 46q154 0 229 -172q35 -80 35 -174zM1274 1468l-993 -1394h-86l995 1394h84zM573 1087q0 -201 -131 -300q-61 -46 -133 -46q-152 0 -227 172q-35 80 -35 174
q0 202 131 301q61 46 131 46q154 0 229 -172q35 -80 35 -175zM1311 461q0 315 -150 315q-147 0 -147 -315q0 -316 147 -316q150 0 150 316zM459 1087q0 316 -150 316q-147 0 -147 -316q0 -315 147 -315q150 0 150 315z" />
    <glyph glyph-name="ampersand" horiz-adv-x="1493" 
d="M1466 948q-135 0 -174 -39q-35 -35 -95 -135l-89 -148q-50 -75 -123 -159q37 -63 136 -223q47 -74 110 -74q61 0 160 70l18 -33q-135 -107 -252 -107q-114 0 -179 93q-37 52 -95 161q-152 -162 -315 -224q-79 -30 -152 -30q-143 0 -237.5 97.5t-94.5 240.5q0 167 150 273
q79 56 208 108q-145 125 -145 266q0 115 84 179q76 59 194 59q158 0 228 -95q33 -45 33 -104q0 -146 -232 -260q211 -143 357 -362q256 325 256 405q0 41 -113 41v37h362v-37zM711 1110q0 75 -37 121q-40 51 -113 51q-135 0 -135 -147q0 -132 152 -246q133 79 133 221z
M860 389q-139 234 -389 406q-219 -151 -219 -332q0 -115 67 -187.5t181 -72.5q93 0 198 57q99 53 162 129z" />
    <glyph glyph-name="quotesingle" horiz-adv-x="362" 
d="M283 1325q0 -35 -25 -180l-51 -295h-49l-52 295q-24 136 -24 180q0 47 27 78t73 31q101 0 101 -109z" />
    <glyph glyph-name="parenleft" horiz-adv-x="569" 
d="M526 891q-311 -314 -311 -633q0 -149 74 -311q64 -141 233 -334l-8 -12q-160 102 -246 198q-184 207 -184 463q0 236 172 432q90 103 254 209z" />
    <glyph glyph-name="parenright" horiz-adv-x="569" 
d="M492 262q0 -253 -187 -463q-86 -97 -244 -198l-12 12q58 63 103 119q208 259 208 526q0 316 -311 633l17 12q168 -113 251 -209q175 -202 175 -432z" />
    <glyph glyph-name="asterisk" horiz-adv-x="680" 
d="M649 1104q0 -45 -59 -45q-15 0 -94 15l-84 16l-9 -29l64 -45q25 -17 80 -59q22 -23 22 -44q0 -15 -12 -30q-34 -27 -72 11q-8 8 -57 79l-47 68q-9 -5 -27 -12l15 -80q16 -85 16 -96q0 -58 -47 -58q-43 0 -43 56q0 31 16 98l19 80q-21 4 -29 12l-49 -68q-17 -24 -57 -79
q-24 -23 -45 -23q-42 0 -42 43q0 20 21 41q8 8 80 57l72 49q-11 15 -13 29l-80 -16q-75 -15 -96 -15q-57 0 -57 45q0 44 55 44q31 0 98 -15l80 -18q5 19 13 26l-72 50q-46 32 -80 59q-21 21 -21 40q0 15 14 29t29 14q20 0 44 -22l104 -147q9 4 31 12l-19 80q-16 67 -16 98
q0 56 43 56q47 0 47 -60l-31 -178q-5 0 27 -8l47 67q16 24 57 80q21 21 41 21q16 0 31 -12q12 -15 12 -31q0 -21 -22 -43q-5 -6 -80 -58l-68 -47q9 -11 17 -26l80 18q67 15 98 15q55 0 55 -44zM379 1102q0 37 -37 37t-37 -37q0 -36 37 -36t37 36zM348 791z" />
    <glyph glyph-name="plus" horiz-adv-x="946" 
d="M835 452h-321v-323h-84v323h-325v83h325v328h84v-328h321v-83z" />
    <glyph glyph-name="comma" unicode="," horiz-adv-x="569" 
d="M379 90q0 -166 -184 -325l-31 33q132 119 132 221v11l-1 11q-123 0 -123 101q0 40 28 66t68 26q54 0 85 -47q26 -40 26 -97z" />
    <glyph glyph-name="hyphenminus" unicode="&#x2010;" horiz-adv-x="946" 
d="M835 452h-730v83h730v-83z" />
    <glyph glyph-name="period" horiz-adv-x="569" 
d="M375 141q0 -36 -25 -62t-61 -26q-37 0 -62.5 25.5t-25.5 62.5q0 36 23.5 63t58.5 27q38 0 65 -26t27 -64z" />
    <glyph glyph-name="slash" horiz-adv-x="569" 
d="M508 1425l-379 -1564h-63l376 1564h66z" />
    </font>
</defs>
</svg>
